SplineFontDB: 3.0
FontName: Monda-Medium
FullName: Monda Medium
FamilyName: Monda
Weight: Normal
Version: 1.000;PS (version unavailable);hotconv 1.0.57;makeotf.lib2.0.21895 DEVELOPMENT
ItalicAngle: 0
UnderlinePosition: 0
UnderlineWidth: 0
Ascent: 1638
Descent: 410
UFOAscent: 1638
UFODescent: -410
LayerCount: 2
Layer: 0 0 "Back"  1 a16669
Layer: 1 0 "Fore"  0 0
FSType: 8
OS2Version: 0
OS2_WeightWidthSlopeOnly: 0
OS2_UseTypoMetrics: 0
CreationTime: 1353096974
ModificationTime: 1353102344
PfmFamily: 0
TTFWeight: 400
TTFWidth: 5
LineGap: 0
VLineGap: 0
Panose: 2 0 7 3 0 0 0 0 0 0
OS2TypoAscent: 1638
OS2TypoAOffset: 0
OS2TypoDescent: -410
OS2TypoDOffset: 0
OS2TypoLinegap: 0
OS2WinAscent: 2361
OS2WinAOffset: 0
OS2WinDescent: 572
OS2WinDOffset: 0
HheadAscent: 2361
HheadAOffset: 0
HheadDescent: -572
HheadDOffset: 0
OS2SubXSize: 1331
OS2SubYSize: 1228
OS2SubXOff: 0
OS2SubYOff: 153
OS2SupXSize: 1331
OS2SupYSize: 1228
OS2SupXOff: 0
OS2SupYOff: 716
OS2StrikeYSize: 0
OS2StrikeYPos: 650
OS2Vendor: 'newt'
OS2CodePages: 00000001.00000000
OS2UnicodeRanges: 0000002f.0000004c.00000002.00000000
Lookup: 258 0 0 "'kern' Horizontal Kerning in Latin lookup 0"  {"'kern' Horizontal Kerning in Latin lookup 0 subtable"  } ['kern' ('latn' <'dflt' > ) ]
DEI: 91125
LangName: 1033 "" "" "" "1.000;newt;Monda-Medium" "" "Version 1.000;PS (version unavailable);hotconv 1.0.57;makeotf.lib2.0.21895 DEVELOPMENT" 
PickledData: "(dp1
S'com.typemytype.robofont.compileSettings.autohint'
p2
I0
sS'com.typemytype.robofont.compileSettings.decompose'
p3
I0
sS'com.typemytype.robofont.foreground.layerStrokeColor'
p4
(F0.5
F0
F0.5
F0.69999999999999996
tp5
sS'com.typemytype.robofont.compileSettings.releaseMode'
p6
I0
sS'com.typemytype.robofont.b.layerStrokeColor'
p7
(F1
F0.75
F0
F0.69999999999999996
tp8
sS'com.typemytype.robofont.compileSettings.path'
p9
S'/Users/vern/Github/mondaFont/src/Monda-Medium.otf'
p10
sS'com.robofont.robohint'
p11
(dp12
S'programs'
p13
(dp14
S'maxp'
p15
(dp16
S'numGlyphs'
p17
I146

StartChar: .notdef
Encoding: 65536 -1 0
Width: 1024
VWidth: 0
Flags: HW
PickledData: "(dp1
S'com.typemytype.robofont.layerData'
p2
(dp3
S'b'
(dp4
S'name'
p5
S'.notdef'
p6
sS'lib'
p7
(dp8
sS'unicodes'
p9
(tsS'width'
p10
I1024
sS'contours'
p11
(tsS'components'
p12
(tsS'anchors'
p13
(tsss."
LayerCount: 2
UndoRedoHistory
Layer: 1
Undoes
UndoOperation
Index: 0
Type: 1
WasModified: 0
WasOrder2: 0
Width: 1024
VWidth: 0
LBearingChange: 0
UnicodeEnc: 0
InstructionsLength: 0
SplineSet
204 102 m 1
 820 102 l 1
 820 990 l 1
 204 990 l 1
 204 102 l 1
102 0 m 1
 102 1092 l 1
 922 1092 l 1
 922 0 l 1
 102 0 l 1
EndSplineSet
EndUndoOperation
UndoOperation
Index: 1
Type: 1
WasModified: 1
WasOrder2: 0
Width: 1024
VWidth: 0
LBearingChange: 0
UnicodeEnc: 0
InstructionsLength: 0
SplineSet
204 102 m 1
 204 990 l 1
 820 990 l 1
 820 102 l 1
 204 102 l 1
102 0 m 1
 922 0 l 1
 922 1092 l 1
 102 1092 l 1
 102 0 l 1
EndSplineSet
EndUndoOperation
UndoOperation
Index: 2
Type: 1
WasModified: 0
WasOrder2: 0
Width: 1024
VWidth: 0
LBearingChange: 0
UnicodeEnc: 0
InstructionsLength: 0
SplineSet
102 0 m 1
 922 0 l 1
 922 1092 l 1
 102 1092 l 1
 102 0 l 1
204 102 m 1
 204 990 l 1
 820 990 l 1
 820 102 l 1
 204 102 l 1
EndSplineSet
EndUndoOperation
EndUndoes
Redoes
EndRedoes
EndUndoRedoHistory
Fore
SplineSet
204 102 m 1
 820 102 l 1
 820 990 l 1
 204 990 l 1
 204 102 l 1
102 0 m 1
 102 1092 l 1
 922 1092 l 1
 922 0 l 1
 102 0 l 1
EndSplineSet
EndChar

StartChar: A
Encoding: 65 65 1
Width: 1376
VWidth: 0
Flags: HW
PickledData: "(dp1
S'com.typemytype.robofont.layerData'
p2
(dp3
S'b'
(dp4
S'name'
p5
S'A'
sS'lib'
p6
(dp7
sS'unicodes'
p8
(tsS'width'
p9
I1376
sS'contours'
p10
(tsS'components'
p11
(tsS'anchors'
p12
(tsss."
LayerCount: 2
UndoRedoHistory
Layer: 1
Undoes
UndoOperation
Index: 0
Type: 1
WasModified: 0
WasOrder2: 0
Width: 1376
VWidth: 0
LBearingChange: 0
UnicodeEnc: 0
InstructionsLength: 0
SplineSet
1308 0 m 1
 1103 0 l 1
 1005.34797297 282 l 1
 376.081081081 282 l 1
 277 0 l 1
 68 0 l 1
 599 1446 l 1
 776 1446 l 1
 1308 0 l 1
958.599662162 417 m 1
 693 1184 l 1
 423.513513514 417 l 1
 958.599662162 417 l 1
EndSplineSet
EndUndoOperation
UndoOperation
Index: 1
Type: 1
WasModified: 1
WasOrder2: 0
Width: 1376
VWidth: 0
LBearingChange: 0
UnicodeEnc: 0
InstructionsLength: 0
SplineSet
1308 0 m 1
 1103 0 l 1
 1005.34797297 282 l 1
 376.081081081 282 l 1
 277 0 l 1
 68 0 l 1
 599 1446 l 1
 776 1446 l 1
 1308 0 l 1
958.599662162 417 m 1
 693 1184 l 1
 423.513513514 417 l 1
 958.599662162 417 l 1
EndSplineSet
EndUndoOperation
UndoOperation
Index: 2
Type: 1
WasModified: 0
WasOrder2: 0
Width: 1376
VWidth: 0
LBearingChange: 0
UnicodeEnc: 0
InstructionsLength: 0
SplineSet
302 417 m 1
 1060 417 l 1
 1060 282 l 1
 302 282 l 1
 302 417 l 1
1308 0 m 1
 1103 0 l 1
 693 1184 l 1
 277 0 l 1
 68 0 l 1
 599 1446 l 1
 776 1446 l 1
 1308 0 l 1
EndSplineSet
EndUndoOperation
EndUndoes
Redoes
EndRedoes
EndUndoRedoHistory
Fore
SplineSet
1308 0 m 1
 1103 0 l 1
 1005 282 l 1
 376 282 l 1
 277 0 l 1
 68 0 l 1
 599 1446 l 1
 776 1446 l 1
 1308 0 l 1
959 417 m 1
 693 1184 l 1
 424 417 l 1
 959 417 l 1
EndSplineSet
EndChar

StartChar: B
Encoding: 66 66 2
Width: 1467
VWidth: 0
Flags: HW
PickledData: "(dp1
S'com.typemytype.robofont.layerData'
p2
(dp3
S'b'
(dp4
S'name'
p5
S'B'
sS'lib'
p6
(dp7
sS'unicodes'
p8
(tsS'width'
p9
I1467
sS'contours'
p10
(tsS'components'
p11
(tsS'anchors'
p12
(tsss."
LayerCount: 2
UndoRedoHistory
Layer: 1
Undoes
UndoOperation
Index: 0
Type: 1
WasModified: 0
WasOrder2: 0
Width: 1467
VWidth: 0
LBearingChange: 0
UnicodeEnc: 0
InstructionsLength: 0
SplineSet
806 -1 m 2
 231 -1 l 1
 231 1446 l 1
 769 1446 l 2
 1170 1446 1265 1320 1265 1049 c 0
 1265 922 1237 809 1123 769 c 1
 1274 731 1340 572 1340 448 c 0
 1340 135 1173 -1 806 -1 c 2
433 833 m 1
 834 833 l 2
 1016 833 1064 917 1064 1047 c 0
 1064 1256 993 1295 749 1295 c 2
 433 1295 l 1
 433 833 l 1
433 696 m 1
 433 149 l 1
 786 149 l 2
 1010 149 1139 180 1139 446 c 0
 1139 578 1084 696 863 696 c 2
 433 696 l 1
EndSplineSet
EndUndoOperation
UndoOperation
Index: 1
Type: 1
WasModified: 1
WasOrder2: 0
Width: 1467
VWidth: 0
LBearingChange: 0
UnicodeEnc: 0
InstructionsLength: 0
SplineSet
806 -1 m 2
 1173 -1 1340 135 1340 448 c 0
 1340 572 1274 731 1123 769 c 1
 1237 809 1265 922 1265 1049 c 0
 1265 1320 1170 1446 769 1446 c 2
 231 1446 l 1
 231 -1 l 1
 806 -1 l 2
433 833 m 1
 433 1295 l 1
 749 1295 l 2
 993 1295 1064 1256 1064 1047 c 0
 1064 917 1016 833 834 833 c 2
 433 833 l 1
433 696 m 1
 863 696 l 2
 1084 696 1139 578 1139 446 c 0
 1139 180 1010 149 786 149 c 2
 433 149 l 1
 433 696 l 1
EndSplineSet
EndUndoOperation
UndoOperation
Index: 2
Type: 1
WasModified: 0
WasOrder2: 0
Width: 1467
VWidth: 0
LBearingChange: 0
UnicodeEnc: 0
InstructionsLength: 0
SplineSet
806 -1 m 2
 1173 -1 1340 135 1340 448 c 0
 1340 572 1274 731 1123 769 c 1
 1237 809 1265 922 1265 1049 c 0
 1265 1320 1170 1446 769 1446 c 2
 231 1446 l 1
 231 -1 l 1
 806 -1 l 2
433 149 m 1
 433 1295 l 1
 749 1295 l 2
 993 1295 1064 1256 1064 1047 c 0
 1064 917 1016 833 834 833 c 2
 405 833 l 1
 405 696 l 1
 863 696 l 2
 1084 696 1139 578 1139 446 c 0
 1139 180 1010 149 786 149 c 2
 433 149 l 1
EndSplineSet
EndUndoOperation
EndUndoes
Redoes
EndRedoes
EndUndoRedoHistory
Fore
SplineSet
806 -1 m 2
 231 -1 l 1
 231 1446 l 1
 769 1446 l 2
 1170 1446 1265 1320 1265 1049 c 0
 1265 922 1237 809 1123 769 c 1
 1274 731 1340 572 1340 448 c 0
 1340 135 1173 -1 806 -1 c 2
433 833 m 1
 834 833 l 2
 1016 833 1064 917 1064 1047 c 0
 1064 1256 993 1295 749 1295 c 2
 433 1295 l 1
 433 833 l 1
433 696 m 1
 433 149 l 1
 786 149 l 2
 1010 149 1139 180 1139 446 c 0
 1139 578 1084 696 863 696 c 2
 433 696 l 1
EndSplineSet
EndChar

StartChar: C
Encoding: 67 67 3
Width: 1460
VWidth: 0
Flags: HW
PickledData: "(dp1
S'com.typemytype.robofont.layerData'
p2
(dp3
S'b'
(dp4
S'name'
p5
S'C'
sS'lib'
p6
(dp7
sS'unicodes'
p8
(tsS'width'
p9
I1460
sS'contours'
p10
(tsS'components'
p11
(tsS'anchors'
p12
(tsss."
LayerCount: 2
UndoRedoHistory
Layer: 1
Undoes
UndoOperation
Index: 0
Type: 1
WasModified: 0
WasOrder2: 0
Width: 1460
VWidth: 0
LBearingChange: 0
UnicodeEnc: 0
InstructionsLength: 0
SplineSet
1107 900 m 1
 1107 992 l 2
 1107 1249 1016 1332 760 1332 c 0
 506 1332 385 1249 385 992 c 2
 385 455 l 2
 385 199 506 126 762 126 c 0
 1020 126 1107 199 1107 455 c 2
 1107 558 l 1
 1302 558 l 1
 1302 500 l 2
 1302 203 1227 -24 762 -24 c 0
 279 -24 183 185 183 486 c 2
 183 955 l 2
 183 1261 275 1483 760 1483 c 0
 1227 1483 1302 1248 1302 942 c 2
 1302 900 l 1
 1107 900 l 1
EndSplineSet
EndUndoOperation
UndoOperation
Index: 1
Type: 1
WasModified: 1
WasOrder2: 0
Width: 1460
VWidth: 0
LBearingChange: 0
UnicodeEnc: 0
InstructionsLength: 0
SplineSet
1107 900 m 1
 1302 900 l 1
 1302 942 l 2
 1302 1248 1227 1483 760 1483 c 0
 275 1483 183 1261 183 955 c 2
 183 486 l 2
 183 185 279 -24 762 -24 c 0
 1227 -24 1302 203 1302 500 c 2
 1302 558 l 1
 1107 558 l 1
 1107 455 l 2
 1107 199 1020 126 762 126 c 0
 506 126 385 199 385 455 c 2
 385 992 l 2
 385 1249 506 1332 760 1332 c 0
 1016 1332 1107 1249 1107 992 c 2
 1107 900 l 1
EndSplineSet
EndUndoOperation
UndoOperation
Index: 2
Type: 1
WasModified: 0
WasOrder2: 0
Width: 1460
VWidth: 0
LBearingChange: 0
UnicodeEnc: 0
InstructionsLength: 0
SplineSet
1107 900 m 1
 1302 900 l 1
 1302 942 l 2
 1302 1248 1227 1483 760 1483 c 0
 275 1483 183 1261 183 955 c 2
 183 486 l 2
 183 185 279 -24 762 -24 c 0
 1227 -24 1302 203 1302 500 c 2
 1302 558 l 1
 1107 558 l 1
 1107 455 l 2
 1107 199 1020 126 762 126 c 0
 506 126 385 199 385 455 c 2
 385 992 l 2
 385 1249 506 1332 760 1332 c 0
 1016 1332 1107 1249 1107 992 c 2
 1107 900 l 1
EndSplineSet
EndUndoOperation
EndUndoes
Redoes
EndRedoes
EndUndoRedoHistory
Fore
SplineSet
1107 900 m 1
 1107 992 l 2
 1107 1249 1016 1332 760 1332 c 0
 506 1332 385 1249 385 992 c 2
 385 455 l 2
 385 199 506 126 762 126 c 0
 1020 126 1107 199 1107 455 c 2
 1107 558 l 1
 1302 558 l 1
 1302 500 l 2
 1302 203 1227 -24 762 -24 c 0
 279 -24 183 185 183 486 c 2
 183 955 l 2
 183 1261 275 1483 760 1483 c 0
 1227 1483 1302 1248 1302 942 c 2
 1302 900 l 1
 1107 900 l 1
EndSplineSet
EndChar

StartChar: D
Encoding: 68 68 4
Width: 1530
VWidth: 0
Flags: HW
PickledData: "(dp1
S'com.typemytype.robofont.layerData'
p2
(dp3
S'b'
(dp4
S'name'
p5
S'D'
sS'lib'
p6
(dp7
sS'unicodes'
p8
(tsS'width'
p9
I1530
sS'contours'
p10
(tsS'components'
p11
(tsS'anchors'
p12
(tsss."
LayerCount: 2
UndoRedoHistory
Layer: 1
Undoes
UndoOperation
Index: 0
Type: 1
WasModified: 0
WasOrder2: 0
Width: 1530
VWidth: 0
LBearingChange: 0
UnicodeEnc: 0
InstructionsLength: 0
SplineSet
781 150 m 2
 989 150 1146 196 1146 462 c 2
 1146 971 l 2
 1146 1238 987 1295 781 1295 c 2
 433 1295 l 1
 433 150 l 1
 781 150 l 2
231 0 m 1
 231 1446 l 1
 799 1446 l 2
 1200 1446 1347 1235 1347 959 c 2
 1347 482 l 2
 1347 169 1168 0 801 0 c 2
 231 0 l 1
EndSplineSet
EndUndoOperation
UndoOperation
Index: 1
Type: 1
WasModified: 1
WasOrder2: 0
Width: 1530
VWidth: 0
LBearingChange: 0
UnicodeEnc: 0
InstructionsLength: 0
SplineSet
781 150 m 2
 433 150 l 1
 433 1295 l 1
 781 1295 l 2
 987 1295 1146 1238 1146 971 c 2
 1146 462 l 2
 1146 196 989 150 781 150 c 2
231 0 m 1
 801 0 l 2
 1168 0 1347 169 1347 482 c 2
 1347 959 l 2
 1347 1235 1200 1446 799 1446 c 2
 231 1446 l 1
 231 0 l 1
EndSplineSet
EndUndoOperation
UndoOperation
Index: 2
Type: 1
WasModified: 0
WasOrder2: 0
Width: 1530
VWidth: 0
LBearingChange: 0
UnicodeEnc: 0
InstructionsLength: 0
SplineSet
231 0 m 1
 801 0 l 2
 1168 0 1347 169 1347 482 c 2
 1347 959 l 2
 1347 1235 1200 1446 799 1446 c 2
 231 1446 l 1
 231 0 l 1
781 150 m 2
 433 150 l 1
 433 1295 l 1
 781 1295 l 2
 987 1295 1146 1238 1146 971 c 2
 1146 462 l 2
 1146 196 989 150 781 150 c 2
EndSplineSet
EndUndoOperation
EndUndoes
Redoes
EndRedoes
EndUndoRedoHistory
Fore
SplineSet
781 150 m 2
 989 150 1146 196 1146 462 c 2
 1146 971 l 2
 1146 1238 987 1295 781 1295 c 2
 433 1295 l 1
 433 150 l 1
 781 150 l 2
231 0 m 1
 231 1446 l 1
 799 1446 l 2
 1200 1446 1347 1235 1347 959 c 2
 1347 482 l 2
 1347 169 1168 0 801 0 c 2
 231 0 l 1
EndSplineSet
EndChar

StartChar: E
Encoding: 69 69 5
Width: 1241
VWidth: 0
Flags: HW
PickledData: "(dp1
S'com.typemytype.robofont.layerData'
p2
(dp3
S'b'
(dp4
S'name'
p5
S'E'
sS'lib'
p6
(dp7
sS'unicodes'
p8
(tsS'width'
p9
I1241
sS'contours'
p10
(tsS'components'
p11
(tsS'anchors'
p12
(tsss."
LayerCount: 2
UndoRedoHistory
Layer: 1
Undoes
UndoOperation
Index: 0
Type: 1
WasModified: 0
WasOrder2: 0
Width: 1241
VWidth: 0
LBearingChange: 0
UnicodeEnc: 0
InstructionsLength: 0
SplineSet
231 1446 m 1
 1074 1446 l 1
 1074 1296 l 1
 432 1296 l 1
 432 814 l 1
 1013 814 l 1
 1013 664 l 1
 432 664 l 1
 432 150 l 1
 1083 150 l 1
 1083 0 l 1
 231 0 l 1
 231 1446 l 1
EndSplineSet
EndUndoOperation
UndoOperation
Index: 1
Type: 1
WasModified: 1
WasOrder2: 0
Width: 1241
VWidth: 0
LBearingChange: 0
UnicodeEnc: 0
InstructionsLength: 0
SplineSet
231 1446 m 1
 1074 1446 l 1
 1074 1296 l 1
 432 1296 l 1
 432 814 l 1
 1013 814 l 1
 1013 664 l 1
 432 664 l 1
 432 150 l 1
 1083 150 l 1
 1083 0 l 1
 231 0 l 1
 231 1446 l 1
EndSplineSet
EndUndoOperation
UndoOperation
Index: 2
Type: 1
WasModified: 0
WasOrder2: 0
Width: 1241
VWidth: 0
LBearingChange: 0
UnicodeEnc: 0
InstructionsLength: 0
SplineSet
231 1446 m 1
 1074 1446 l 1
 1074 1296 l 1
 432 1296 l 1
 432 814 l 1
 1013 814 l 1
 1013 664 l 1
 432 664 l 1
 432 150 l 1
 1083 150 l 1
 1083 0 l 1
 231 0 l 1
 231 1446 l 1
EndSplineSet
EndUndoOperation
EndUndoes
Redoes
EndRedoes
EndUndoRedoHistory
Fore
SplineSet
231 1446 m 1
 1074 1446 l 1
 1074 1296 l 1
 432 1296 l 1
 432 814 l 1
 1013 814 l 1
 1013 664 l 1
 432 664 l 1
 432 150 l 1
 1083 150 l 1
 1083 0 l 1
 231 0 l 1
 231 1446 l 1
EndSplineSet
EndChar

StartChar: Eacute
Encoding: 201 201 6
Width: 763
VWidth: 0
Flags: HW
PickledData: "(dp1
S'com.typemytype.robofont.layerData'
p2
(dp3
S'b'
(dp4
S'name'
p5
S'Eacute'
p6
sS'lib'
p7
(dp8
sS'unicodes'
p9
(tsS'width'
p10
I763
sS'contours'
p11
(tsS'components'
p12
(tsS'anchors'
p13
(tsss."
LayerCount: 2
UndoRedoHistory
Layer: 1
Undoes
UndoOperation
Index: 0
Type: 1
WasModified: 0
WasOrder2: 0
Width: 763
VWidth: 0
LBearingChange: 0
UnicodeEnc: 0
InstructionsLength: 0
SplineSet
309 1848 m 1
 575 1848 l 1
 367 1529 l 1
 205 1529 l 1
 309 1848 l 1
146 1459 m 1
 853 1459 l 1
 853 1223 l 1
 465 1223 l 1
 465 862 l 1
 776 862 l 1
 776 642 l 1
 465 642 l 1
 465 236 l 1
 853 236 l 1
 853 0 l 1
 146 0 l 1
 146 1459 l 1
EndSplineSet
EndUndoOperation
UndoOperation
Index: 1
Type: 1
WasModified: 1
WasOrder2: 0
Width: 763
VWidth: 0
LBearingChange: 0
UnicodeEnc: 0
InstructionsLength: 0
SplineSet
309 1848 m 1
 575 1848 l 1
 367 1529 l 1
 205 1529 l 1
 309 1848 l 1
146 1459 m 1
 853 1459 l 1
 853 1223 l 1
 465 1223 l 1
 465 862 l 1
 776 862 l 1
 776 642 l 1
 465 642 l 1
 465 236 l 1
 853 236 l 1
 853 0 l 1
 146 0 l 1
 146 1459 l 1
EndSplineSet
EndUndoOperation
UndoOperation
Index: 2
Type: 1
WasModified: 0
WasOrder2: 0
Width: 763
VWidth: 0
LBearingChange: 0
UnicodeEnc: 0
InstructionsLength: 0
SplineSet
146 1459 m 1
 853 1459 l 1
 853 1223 l 1
 465 1223 l 1
 465 862 l 1
 776 862 l 1
 776 642 l 1
 465 642 l 1
 465 236 l 1
 853 236 l 1
 853 0 l 1
 146 0 l 1
 146 1459 l 1
309 1848 m 1
 575 1848 l 1
 367 1529 l 1
 205 1529 l 1
 309 1848 l 1
EndSplineSet
EndUndoOperation
EndUndoes
Redoes
EndRedoes
EndUndoRedoHistory
Fore
SplineSet
309 1848 m 1
 575 1848 l 1
 367 1529 l 1
 205 1529 l 1
 309 1848 l 1
146 1459 m 1
 853 1459 l 1
 853 1223 l 1
 465 1223 l 1
 465 862 l 1
 776 862 l 1
 776 642 l 1
 465 642 l 1
 465 236 l 1
 853 236 l 1
 853 0 l 1
 146 0 l 1
 146 1459 l 1
EndSplineSet
EndChar

StartChar: Edieresis
Encoding: 203 203 8
Width: 763
VWidth: 0
Flags: HW
PickledData: "(dp1
S'com.typemytype.robofont.layerData'
p2
(dp3
S'b'
(dp4
S'name'
p5
S'Edieresis'
p6
sS'lib'
p7
(dp8
sS'unicodes'
p9
(tsS'width'
p10
I763
sS'contours'
p11
(tsS'components'
p12
(tsS'anchors'
p13
(tsss."
LayerCount: 2
UndoRedoHistory
Layer: 1
Undoes
UndoOperation
Index: 0
Type: 1
WasModified: 0
WasOrder2: 0
Width: 763
VWidth: 0
LBearingChange: 0
UnicodeEnc: 0
InstructionsLength: 0
SplineSet
479 1596 m 1
 479 1826 l 1
 746 1826 l 1
 746 1596 l 1
 479 1596 l 1
19 1596 m 1
 19 1826 l 1
 285 1826 l 1
 285 1596 l 1
 19 1596 l 1
146 1459 m 1
 853 1459 l 1
 853 1223 l 1
 465 1223 l 1
 465 862 l 1
 776 862 l 1
 776 642 l 1
 465 642 l 1
 465 236 l 1
 853 236 l 1
 853 0 l 1
 146 0 l 1
 146 1459 l 1
EndSplineSet
EndUndoOperation
UndoOperation
Index: 1
Type: 1
WasModified: 1
WasOrder2: 0
Width: 763
VWidth: 0
LBearingChange: 0
UnicodeEnc: 0
InstructionsLength: 0
SplineSet
479 1596 m 1
 479 1826 l 1
 746 1826 l 1
 746 1596 l 1
 479 1596 l 1
19 1596 m 1
 19 1826 l 1
 285 1826 l 1
 285 1596 l 1
 19 1596 l 1
146 1459 m 1
 853 1459 l 1
 853 1223 l 1
 465 1223 l 1
 465 862 l 1
 776 862 l 1
 776 642 l 1
 465 642 l 1
 465 236 l 1
 853 236 l 1
 853 0 l 1
 146 0 l 1
 146 1459 l 1
EndSplineSet
EndUndoOperation
UndoOperation
Index: 2
Type: 1
WasModified: 0
WasOrder2: 0
Width: 763
VWidth: 0
LBearingChange: 0
UnicodeEnc: 0
InstructionsLength: 0
SplineSet
146 1459 m 1
 853 1459 l 1
 853 1223 l 1
 465 1223 l 1
 465 862 l 1
 776 862 l 1
 776 642 l 1
 465 642 l 1
 465 236 l 1
 853 236 l 1
 853 0 l 1
 146 0 l 1
 146 1459 l 1
19 1596 m 1
 19 1826 l 1
 285 1826 l 1
 285 1596 l 1
 19 1596 l 1
479 1596 m 1
 479 1826 l 1
 746 1826 l 1
 746 1596 l 1
 479 1596 l 1
EndSplineSet
EndUndoOperation
EndUndoes
Redoes
EndRedoes
EndUndoRedoHistory
Fore
SplineSet
479 1596 m 1
 479 1826 l 1
 746 1826 l 1
 746 1596 l 1
 479 1596 l 1
19 1596 m 1
 19 1826 l 1
 285 1826 l 1
 285 1596 l 1
 19 1596 l 1
146 1459 m 1
 853 1459 l 1
 853 1223 l 1
 465 1223 l 1
 465 862 l 1
 776 862 l 1
 776 642 l 1
 465 642 l 1
 465 236 l 1
 853 236 l 1
 853 0 l 1
 146 0 l 1
 146 1459 l 1
EndSplineSet
EndChar

StartChar: Egrave
Encoding: 200 200 9
Width: 763
VWidth: 0
Flags: HW
PickledData: "(dp1
S'com.typemytype.robofont.layerData'
p2
(dp3
S'b'
(dp4
S'name'
p5
S'Egrave'
p6
sS'lib'
p7
(dp8
sS'unicodes'
p9
(tsS'width'
p10
I763
sS'contours'
p11
(tsS'components'
p12
(tsS'anchors'
p13
(tsss."
LayerCount: 2
UndoRedoHistory
Layer: 1
Undoes
UndoOperation
Index: 0
Type: 1
WasModified: 0
WasOrder2: 0
Width: 763
VWidth: 0
LBearingChange: 0
UnicodeEnc: 0
InstructionsLength: 0
SplineSet
191 1848 m 1
 456 1848 l 1
 561 1529 l 1
 398 1529 l 1
 191 1848 l 1
146 1459 m 1
 853 1459 l 1
 853 1223 l 1
 465 1223 l 1
 465 862 l 1
 776 862 l 1
 776 642 l 1
 465 642 l 1
 465 236 l 1
 853 236 l 1
 853 0 l 1
 146 0 l 1
 146 1459 l 1
EndSplineSet
EndUndoOperation
UndoOperation
Index: 1
Type: 1
WasModified: 1
WasOrder2: 0
Width: 763
VWidth: 0
LBearingChange: 0
UnicodeEnc: 0
InstructionsLength: 0
SplineSet
191 1848 m 1
 456 1848 l 1
 561 1529 l 1
 398 1529 l 1
 191 1848 l 1
146 1459 m 1
 853 1459 l 1
 853 1223 l 1
 465 1223 l 1
 465 862 l 1
 776 862 l 1
 776 642 l 1
 465 642 l 1
 465 236 l 1
 853 236 l 1
 853 0 l 1
 146 0 l 1
 146 1459 l 1
EndSplineSet
EndUndoOperation
UndoOperation
Index: 2
Type: 1
WasModified: 0
WasOrder2: 0
Width: 763
VWidth: 0
LBearingChange: 0
UnicodeEnc: 0
InstructionsLength: 0
SplineSet
146 1459 m 1
 853 1459 l 1
 853 1223 l 1
 465 1223 l 1
 465 862 l 1
 776 862 l 1
 776 642 l 1
 465 642 l 1
 465 236 l 1
 853 236 l 1
 853 0 l 1
 146 0 l 1
 146 1459 l 1
191 1848 m 1
 456 1848 l 1
 561 1529 l 1
 398 1529 l 1
 191 1848 l 1
EndSplineSet
EndUndoOperation
EndUndoes
Redoes
EndRedoes
EndUndoRedoHistory
Fore
SplineSet
191 1848 m 1
 456 1848 l 1
 561 1529 l 1
 398 1529 l 1
 191 1848 l 1
146 1459 m 1
 853 1459 l 1
 853 1223 l 1
 465 1223 l 1
 465 862 l 1
 776 862 l 1
 776 642 l 1
 465 642 l 1
 465 236 l 1
 853 236 l 1
 853 0 l 1
 146 0 l 1
 146 1459 l 1
EndSplineSet
EndChar

StartChar: Eth
Encoding: 208 208 10
Width: 1124
VWidth: 0
Flags: HW
PickledData: "(dp1
S'com.typemytype.robofont.layerData'
p2
(dp3
S'b'
(dp4
S'name'
p5
S'Eth'
p6
sS'lib'
p7
(dp8
sS'unicodes'
p9
(tsS'width'
p10
I1124
sS'contours'
p11
(tsS'components'
p12
(tsS'anchors'
p13
(tsss."
LayerCount: 2
UndoRedoHistory
Layer: 1
Undoes
UndoOperation
Index: 0
Type: 1
WasModified: 0
WasOrder2: 0
Width: 1124
VWidth: 0
LBearingChange: 0
UnicodeEnc: 0
InstructionsLength: 0
SplineSet
80 0 m 1
 80 688 l 1
 9 688 l 1
 9 829 l 1
 80 829 l 1
 80 1459 l 1
 399 1459 l 2
 972 1459 1054 1331 1054 1021 c 2
 1054 467 l 2
 1054 149 994 0 394 0 c 2
 80 0 l 1
392 196 m 0
 625 197 685 208 685 324 c 2
 685 1149 l 2
 685 1244 590 1262 387 1262 c 2
 368 1262 l 1
 368 829 l 1
 528 829 l 1
 528 688 l 1
 368 688 l 1
 368 197 l 1
 370 197 391 196 392 196 c 0
EndSplineSet
EndUndoOperation
UndoOperation
Index: 1
Type: 1
WasModified: 1
WasOrder2: 0
Width: 1124
VWidth: 0
LBearingChange: 0
UnicodeEnc: 0
InstructionsLength: 0
SplineSet
80 0 m 1
 80 688 l 1
 9 688 l 1
 9 829 l 1
 80 829 l 1
 80 1459 l 1
 399 1459 l 2
 972 1459 1054 1331 1054 1021 c 2
 1054 467 l 2
 1054 149 994 0 394 0 c 2
 80 0 l 1
392 196 m 0
 625 197 685 208 685 324 c 2
 685 1149 l 2
 685 1244 590 1262 387 1262 c 2
 368 1262 l 1
 368 829 l 1
 528 829 l 1
 528 688 l 1
 368 688 l 1
 368 197 l 1
 370 197 391 196 392 196 c 0
EndSplineSet
EndUndoOperation
UndoOperation
Index: 2
Type: 1
WasModified: 0
WasOrder2: 0
Width: 1124
VWidth: 0
LBearingChange: 0
UnicodeEnc: 0
InstructionsLength: 0
SplineSet
392 196 m 0
 625 197 685 208 685 324 c 2
 685 1149 l 2
 685 1244 590 1262 387 1262 c 2
 368 1262 l 1
 368 829 l 1
 528 829 l 1
 528 688 l 1
 368 688 l 1
 368 197 l 1
 370 197 391 196 392 196 c 0
80 0 m 1
 80 688 l 1
 9 688 l 1
 9 829 l 1
 80 829 l 1
 80 1459 l 1
 399 1459 l 2
 972 1459 1054 1331 1054 1021 c 2
 1054 467 l 2
 1054 149 994 0 394 0 c 2
 80 0 l 1
EndSplineSet
EndUndoOperation
EndUndoes
Redoes
EndRedoes
EndUndoRedoHistory
Fore
SplineSet
80 0 m 1
 80 688 l 1
 9 688 l 1
 9 829 l 1
 80 829 l 1
 80 1459 l 1
 399 1459 l 2
 972 1459 1054 1331 1054 1021 c 2
 1054 467 l 2
 1054 149 994 0 394 0 c 2
 80 0 l 1
392 196 m 0
 625 197 685 208 685 324 c 2
 685 1149 l 2
 685 1244 590 1262 387 1262 c 2
 368 1262 l 1
 368 829 l 1
 528 829 l 1
 528 688 l 1
 368 688 l 1
 368 197 l 1
 370 197 391 196 392 196 c 0
EndSplineSet
EndChar

StartChar: F
Encoding: 70 70 11
Width: 1180
VWidth: 0
Flags: HW
PickledData: "(dp1
S'com.typemytype.robofont.layerData'
p2
(dp3
S'b'
(dp4
S'name'
p5
S'F'
sS'lib'
p6
(dp7
sS'unicodes'
p8
(tsS'width'
p9
I1180
sS'contours'
p10
(tsS'components'
p11
(tsS'anchors'
p12
(tsss."
LayerCount: 2
UndoRedoHistory
Layer: 1
Undoes
UndoOperation
Index: 0
Type: 1
WasModified: 0
WasOrder2: 0
Width: 1180
VWidth: 0
LBearingChange: 0
UnicodeEnc: 0
InstructionsLength: 0
SplineSet
231 0 m 1
 231 1446 l 1
 1052 1446 l 1
 1052 1296 l 1
 432 1296 l 1
 432 814 l 1
 1016 814 l 1
 1016 664 l 1
 432 664 l 1
 432 0 l 1
 231 0 l 1
EndSplineSet
EndUndoOperation
UndoOperation
Index: 1
Type: 1
WasModified: 1
WasOrder2: 0
Width: 1180
VWidth: 0
LBearingChange: 0
UnicodeEnc: 0
InstructionsLength: 0
SplineSet
231 0 m 1
 432 0 l 1
 432 664 l 1
 1016 664 l 1
 1016 814 l 1
 432 814 l 1
 432 1296 l 1
 1052 1296 l 1
 1052 1446 l 1
 231 1446 l 1
 231 0 l 1
EndSplineSet
EndUndoOperation
UndoOperation
Index: 2
Type: 1
WasModified: 0
WasOrder2: 0
Width: 1180
VWidth: 0
LBearingChange: 0
UnicodeEnc: 0
InstructionsLength: 0
SplineSet
231 0 m 1
 432 0 l 1
 432 664 l 1
 1016 664 l 1
 1016 814 l 1
 432 814 l 1
 432 1296 l 1
 1052 1296 l 1
 1052 1446 l 1
 231 1446 l 1
 231 0 l 1
EndSplineSet
EndUndoOperation
EndUndoes
Redoes
EndRedoes
EndUndoRedoHistory
Fore
SplineSet
231 0 m 1
 231 1446 l 1
 1052 1446 l 1
 1052 1296 l 1
 432 1296 l 1
 432 814 l 1
 1016 814 l 1
 1016 664 l 1
 432 664 l 1
 432 0 l 1
 231 0 l 1
EndSplineSet
EndChar

StartChar: G
Encoding: 71 71 12
Width: 1516
VWidth: 0
Flags: HW
PickledData: "(dp1
S'com.typemytype.robofont.layerData'
p2
(dp3
S'b'
(dp4
S'name'
p5
S'G'
sS'lib'
p6
(dp7
sS'unicodes'
p8
(tsS'width'
p9
I1516
sS'contours'
p10
(tsS'components'
p11
(tsS'anchors'
p12
(tsss."
LayerCount: 2
UndoRedoHistory
Layer: 1
Undoes
UndoOperation
Index: 0
Type: 1
WasModified: 0
WasOrder2: 0
Width: 1516
VWidth: 0
LBearingChange: 0
UnicodeEnc: 0
InstructionsLength: 0
SplineSet
1232 0 m 1
 1188 216 l 1
 1154 96 1048 -24 762 -24 c 0
 279 -24 183 185 183 486 c 2
 183 955 l 2
 183 1261 281 1483 766 1483 c 0
 1233 1483 1302 1248 1302 942 c 2
 1302 900 l 1
 1107 900 l 1
 1107 992 l 2
 1107 1249 1022 1332 766 1332 c 0
 512 1332 385 1249 385 992 c 2
 385 455 l 2
 385 199 506 126 762 126 c 0
 1020 126 1107 199 1107 455 c 2
 1107 588 l 1
 883 588 l 1
 883 735 l 1
 1323 735 l 1
 1323 0 l 1
 1232 0 l 1
EndSplineSet
EndUndoOperation
UndoOperation
Index: 1
Type: 1
WasModified: 1
WasOrder2: 0
Width: 1516
VWidth: 0
LBearingChange: 0
UnicodeEnc: 0
InstructionsLength: 0
SplineSet
1232 0 m 1
 1323 0 l 1
 1323 735 l 1
 883 735 l 1
 883 588 l 1
 1107 588 l 1
 1107 455 l 2
 1107 199 1020 126 762 126 c 0
 506 126 385 199 385 455 c 2
 385 992 l 2
 385 1249 512 1332 766 1332 c 0
 1022 1332 1107 1249 1107 992 c 2
 1107 900 l 1
 1302 900 l 1
 1302 942 l 2
 1302 1248 1233 1483 766 1483 c 0
 281 1483 183 1261 183 955 c 2
 183 486 l 2
 183 185 279 -24 762 -24 c 0
 1048 -24 1154 96 1188 216 c 1
 1232 0 l 1
EndSplineSet
EndUndoOperation
UndoOperation
Index: 2
Type: 1
WasModified: 0
WasOrder2: 0
Width: 1516
VWidth: 0
LBearingChange: 0
UnicodeEnc: 0
InstructionsLength: 0
SplineSet
1232 0 m 1
 1323 0 l 1
 1323 735 l 1
 883 735 l 1
 883 588 l 1
 1107 588 l 1
 1107 455 l 2
 1107 199 1020 126 762 126 c 0
 506 126 385 199 385 455 c 2
 385 992 l 2
 385 1249 512 1332 766 1332 c 0
 1022 1332 1107 1249 1107 992 c 2
 1107 900 l 1
 1302 900 l 1
 1302 942 l 2
 1302 1248 1233 1483 766 1483 c 0
 281 1483 183 1261 183 955 c 2
 183 486 l 2
 183 185 279 -24 762 -24 c 0
 1048 -24 1154 96 1188 216 c 1
 1232 0 l 1
EndSplineSet
EndUndoOperation
EndUndoes
Redoes
EndRedoes
EndUndoRedoHistory
Fore
SplineSet
1232 0 m 1
 1188 216 l 1
 1154 96 1048 -24 762 -24 c 0
 279 -24 183 185 183 486 c 2
 183 955 l 2
 183 1261 281 1483 766 1483 c 0
 1233 1483 1302 1248 1302 942 c 2
 1302 900 l 1
 1107 900 l 1
 1107 992 l 2
 1107 1249 1022 1332 766 1332 c 0
 512 1332 385 1249 385 992 c 2
 385 455 l 2
 385 199 506 126 762 126 c 0
 1020 126 1107 199 1107 455 c 2
 1107 588 l 1
 883 588 l 1
 883 735 l 1
 1323 735 l 1
 1323 0 l 1
 1232 0 l 1
EndSplineSet
EndChar

StartChar: H
Encoding: 72 72 13
Width: 1543
VWidth: 0
Flags: HW
PickledData: "(dp1
S'com.typemytype.robofont.layerData'
p2
(dp3
S'b'
(dp4
S'name'
p5
S'H'
sS'lib'
p6
(dp7
sS'unicodes'
p8
(tsS'width'
p9
I1543
sS'contours'
p10
(tsS'components'
p11
(tsS'anchors'
p12
(tsss."
LayerCount: 2
UndoRedoHistory
Layer: 1
Undoes
UndoOperation
Index: 0
Type: 1
WasModified: 0
WasOrder2: 0
Width: 1543
VWidth: 0
LBearingChange: 0
UnicodeEnc: 0
InstructionsLength: 0
SplineSet
231 1446 m 1
 432 1446 l 1
 432 807 l 1
 1111 807 l 1
 1111 1446 l 1
 1312 1446 l 1
 1312 0 l 1
 1111 0 l 1
 1111 659 l 1
 432 659 l 1
 432 0 l 1
 231 0 l 1
 231 1446 l 1
EndSplineSet
EndUndoOperation
UndoOperation
Index: 1
Type: 1
WasModified: 1
WasOrder2: 0
Width: 1543
VWidth: 0
LBearingChange: 0
UnicodeEnc: 0
InstructionsLength: 0
SplineSet
231 1446 m 1
 432 1446 l 1
 432 807 l 1
 1111 807 l 1
 1111 1446 l 1
 1312 1446 l 1
 1312 0 l 1
 1111 0 l 1
 1111 659 l 1
 432 659 l 1
 432 0 l 1
 231 0 l 1
 231 1446 l 1
EndSplineSet
EndUndoOperation
UndoOperation
Index: 2
Type: 1
WasModified: 0
WasOrder2: 0
Width: 1543
VWidth: 0
LBearingChange: 0
UnicodeEnc: 0
InstructionsLength: 0
SplineSet
231 1446 m 1
 432 1446 l 1
 432 807 l 1
 1111 807 l 1
 1111 1446 l 1
 1312 1446 l 1
 1312 0 l 1
 1111 0 l 1
 1111 659 l 1
 432 659 l 1
 432 0 l 1
 231 0 l 1
 231 1446 l 1
EndSplineSet
EndUndoOperation
EndUndoes
Redoes
EndRedoes
EndUndoRedoHistory
Fore
SplineSet
231 1446 m 1
 432 1446 l 1
 432 807 l 1
 1111 807 l 1
 1111 1446 l 1
 1312 1446 l 1
 1312 0 l 1
 1111 0 l 1
 1111 659 l 1
 432 659 l 1
 432 0 l 1
 231 0 l 1
 231 1446 l 1
EndSplineSet
EndChar

StartChar: I
Encoding: 73 73 14
Width: 1133
VWidth: 0
Flags: HW
PickledData: "(dp1
S'com.typemytype.robofont.layerData'
p2
(dp3
S'b'
(dp4
S'name'
p5
S'I'
sS'lib'
p6
(dp7
sS'unicodes'
p8
(tsS'width'
p9
I1133
sS'contours'
p10
(tsS'components'
p11
(tsS'anchors'
p12
(tsss."
LayerCount: 2
UndoRedoHistory
Layer: 1
Undoes
UndoOperation
Index: 0
Type: 1
WasModified: 0
WasOrder2: 0
Width: 1133
VWidth: 0
LBearingChange: 0
UnicodeEnc: 0
InstructionsLength: 0
SplineSet
942 0 m 1
 191 0 l 1
 191 150 l 1
 466 150 l 1
 466 1297 l 1
 191 1297 l 1
 191 1446 l 1
 942 1446 l 1
 942 1297 l 1
 667 1297 l 1
 667 150 l 1
 942 150 l 1
 942 0 l 1
EndSplineSet
EndUndoOperation
UndoOperation
Index: 1
Type: 1
WasModified: 1
WasOrder2: 0
Width: 1133
VWidth: 0
LBearingChange: 0
UnicodeEnc: 0
InstructionsLength: 0
SplineSet
942 0 m 1
 942 150 l 1
 667 150 l 1
 667 1297 l 1
 942 1297 l 1
 942 1446 l 1
 191 1446 l 1
 191 1297 l 1
 466 1297 l 1
 466 150 l 1
 191 150 l 1
 191 0 l 1
 942 0 l 1
EndSplineSet
EndUndoOperation
UndoOperation
Index: 2
Type: 1
WasModified: 0
WasOrder2: 0
Width: 1133
VWidth: 0
LBearingChange: 0
UnicodeEnc: 0
InstructionsLength: 0
SplineSet
942 0 m 1
 942 150 l 1
 667 150 l 1
 667 1297 l 1
 942 1297 l 1
 942 1446 l 1
 191 1446 l 1
 191 1297 l 1
 466 1297 l 1
 466 150 l 1
 191 150 l 1
 191 0 l 1
 942 0 l 1
EndSplineSet
EndUndoOperation
EndUndoes
Redoes
EndRedoes
EndUndoRedoHistory
Fore
SplineSet
942 0 m 1
 191 0 l 1
 191 150 l 1
 466 150 l 1
 466 1297 l 1
 191 1297 l 1
 191 1446 l 1
 942 1446 l 1
 942 1297 l 1
 667 1297 l 1
 667 150 l 1
 942 150 l 1
 942 0 l 1
EndSplineSet
EndChar

StartChar: Iacute
Encoding: 205 205 15
Width: 458
VWidth: 0
Flags: HW
PickledData: "(dp1
S'com.typemytype.robofont.layerData'
p2
(dp3
S'b'
(dp4
S'name'
p5
S'Iacute'
p6
sS'lib'
p7
(dp8
sS'unicodes'
p9
(tsS'width'
p10
I458
sS'contours'
p11
(tsS'components'
p12
(tsS'anchors'
p13
(tsss."
LayerCount: 2
UndoRedoHistory
Layer: 1
Undoes
UndoOperation
Index: 0
Type: 1
WasModified: 0
WasOrder2: 0
Width: 458
VWidth: 0
LBearingChange: 0
UnicodeEnc: 0
InstructionsLength: 0
SplineSet
156 1848 m 1
 421 1848 l 1
 213 1529 l 1
 52 1529 l 1
 156 1848 l 1
86 1459 m 1
 374 1459 l 1
 374 0 l 1
 86 0 l 1
 86 1459 l 1
EndSplineSet
EndUndoOperation
UndoOperation
Index: 1
Type: 1
WasModified: 1
WasOrder2: 0
Width: 458
VWidth: 0
LBearingChange: 0
UnicodeEnc: 0
InstructionsLength: 0
SplineSet
156 1848 m 1
 421 1848 l 1
 213 1529 l 1
 52 1529 l 1
 156 1848 l 1
86 1459 m 1
 374 1459 l 1
 374 0 l 1
 86 0 l 1
 86 1459 l 1
EndSplineSet
EndUndoOperation
UndoOperation
Index: 2
Type: 1
WasModified: 0
WasOrder2: 0
Width: 458
VWidth: 0
LBearingChange: 0
UnicodeEnc: 0
InstructionsLength: 0
SplineSet
86 1459 m 1
 374 1459 l 1
 374 0 l 1
 86 0 l 1
 86 1459 l 1
156 1848 m 1
 421 1848 l 1
 213 1529 l 1
 52 1529 l 1
 156 1848 l 1
EndSplineSet
EndUndoOperation
EndUndoes
Redoes
EndRedoes
EndUndoRedoHistory
Fore
SplineSet
156 1848 m 1
 421 1848 l 1
 213 1529 l 1
 52 1529 l 1
 156 1848 l 1
86 1459 m 1
 374 1459 l 1
 374 0 l 1
 86 0 l 1
 86 1459 l 1
EndSplineSet
EndChar

StartChar: Icircumflex
Encoding: 206 206 16
Width: 458
VWidth: 0
Flags: HW
PickledData: "(dp1
S'com.typemytype.robofont.layerData'
p2
(dp3
S'b'
(dp4
S'name'
p5
S'Icircumflex'
p6
sS'lib'
p7
(dp8
sS'unicodes'
p9
(tsS'width'
p10
I458
sS'contours'
p11
(tsS'components'
p12
(tsS'anchors'
p13
(tsss."
LayerCount: 2
UndoRedoHistory
Layer: 1
Undoes
UndoOperation
Index: 0
Type: 1
WasModified: 0
WasOrder2: 0
Width: 458
VWidth: 0
LBearingChange: 0
UnicodeEnc: 0
InstructionsLength: 0
SplineSet
58 1825 m 1
 396 1825 l 1
 556 1529 l 1
 328 1529 l 1
 227 1673 l 1
 128 1529 l 1
 -98 1529 l 1
 58 1825 l 1
86 1459 m 1
 374 1459 l 1
 374 0 l 1
 86 0 l 1
 86 1459 l 1
EndSplineSet
EndUndoOperation
UndoOperation
Index: 1
Type: 1
WasModified: 1
WasOrder2: 0
Width: 458
VWidth: 0
LBearingChange: 0
UnicodeEnc: 0
InstructionsLength: 0
SplineSet
58 1825 m 1
 396 1825 l 1
 556 1529 l 1
 328 1529 l 1
 227 1673 l 1
 128 1529 l 1
 -98 1529 l 1
 58 1825 l 1
86 1459 m 1
 374 1459 l 1
 374 0 l 1
 86 0 l 1
 86 1459 l 1
EndSplineSet
EndUndoOperation
UndoOperation
Index: 2
Type: 1
WasModified: 0
WasOrder2: 0
Width: 458
VWidth: 0
LBearingChange: 0
UnicodeEnc: 0
InstructionsLength: 0
SplineSet
86 1459 m 1
 374 1459 l 1
 374 0 l 1
 86 0 l 1
 86 1459 l 1
58 1825 m 1
 396 1825 l 1
 556 1529 l 1
 328 1529 l 1
 227 1673 l 1
 128 1529 l 1
 -98 1529 l 1
 58 1825 l 1
EndSplineSet
EndUndoOperation
EndUndoes
Redoes
EndRedoes
EndUndoRedoHistory
Fore
SplineSet
58 1825 m 1
 396 1825 l 1
 556 1529 l 1
 328 1529 l 1
 227 1673 l 1
 128 1529 l 1
 -98 1529 l 1
 58 1825 l 1
86 1459 m 1
 374 1459 l 1
 374 0 l 1
 86 0 l 1
 86 1459 l 1
EndSplineSet
EndChar

StartChar: Idieresis
Encoding: 207 207 17
Width: 458
VWidth: 0
Flags: HW
PickledData: "(dp1
S'com.typemytype.robofont.layerData'
p2
(dp3
S'b'
(dp4
S'name'
p5
S'Idieresis'
p6
sS'lib'
p7
(dp8
sS'unicodes'
p9
(tsS'width'
p10
I458
sS'contours'
p11
(tsS'components'
p12
(tsS'anchors'
p13
(tsss."
LayerCount: 2
UndoRedoHistory
Layer: 1
Undoes
UndoOperation
Index: 0
Type: 1
WasModified: 0
WasOrder2: 0
Width: 458
VWidth: 0
LBearingChange: 0
UnicodeEnc: 0
InstructionsLength: 0
SplineSet
326 1596 m 1
 326 1826 l 1
 592 1826 l 1
 592 1596 l 1
 326 1596 l 1
-134 1596 m 1
 -134 1826 l 1
 132 1826 l 1
 132 1596 l 1
 -134 1596 l 1
86 1459 m 1
 374 1459 l 1
 374 0 l 1
 86 0 l 1
 86 1459 l 1
EndSplineSet
EndUndoOperation
UndoOperation
Index: 1
Type: 1
WasModified: 1
WasOrder2: 0
Width: 458
VWidth: 0
LBearingChange: 0
UnicodeEnc: 0
InstructionsLength: 0
SplineSet
326 1596 m 1
 326 1826 l 1
 592 1826 l 1
 592 1596 l 1
 326 1596 l 1
-134 1596 m 1
 -134 1826 l 1
 132 1826 l 1
 132 1596 l 1
 -134 1596 l 1
86 1459 m 1
 374 1459 l 1
 374 0 l 1
 86 0 l 1
 86 1459 l 1
EndSplineSet
EndUndoOperation
UndoOperation
Index: 2
Type: 1
WasModified: 0
WasOrder2: 0
Width: 458
VWidth: 0
LBearingChange: 0
UnicodeEnc: 0
InstructionsLength: 0
SplineSet
86 1459 m 1
 374 1459 l 1
 374 0 l 1
 86 0 l 1
 86 1459 l 1
-134 1596 m 1
 -134 1826 l 1
 132 1826 l 1
 132 1596 l 1
 -134 1596 l 1
326 1596 m 1
 326 1826 l 1
 592 1826 l 1
 592 1596 l 1
 326 1596 l 1
EndSplineSet
EndUndoOperation
EndUndoes
Redoes
EndRedoes
EndUndoRedoHistory
Fore
SplineSet
326 1596 m 1
 326 1826 l 1
 592 1826 l 1
 592 1596 l 1
 326 1596 l 1
-134 1596 m 1
 -134 1826 l 1
 132 1826 l 1
 132 1596 l 1
 -134 1596 l 1
86 1459 m 1
 374 1459 l 1
 374 0 l 1
 86 0 l 1
 86 1459 l 1
EndSplineSet
EndChar

StartChar: Igrave
Encoding: 204 204 18
Width: 458
VWidth: 0
Flags: HW
PickledData: "(dp1
S'com.typemytype.robofont.layerData'
p2
(dp3
S'b'
(dp4
S'name'
p5
S'Igrave'
p6
sS'lib'
p7
(dp8
sS'unicodes'
p9
(tsS'width'
p10
I458
sS'contours'
p11
(tsS'components'
p12
(tsS'anchors'
p13
(tsss."
LayerCount: 2
UndoRedoHistory
Layer: 1
Undoes
UndoOperation
Index: 0
Type: 1
WasModified: 0
WasOrder2: 0
Width: 458
VWidth: 0
LBearingChange: 0
UnicodeEnc: 0
InstructionsLength: 0
SplineSet
38 1848 m 1
 303 1848 l 1
 408 1529 l 1
 245 1529 l 1
 38 1848 l 1
86 1459 m 1
 374 1459 l 1
 374 0 l 1
 86 0 l 1
 86 1459 l 1
EndSplineSet
EndUndoOperation
UndoOperation
Index: 1
Type: 1
WasModified: 1
WasOrder2: 0
Width: 458
VWidth: 0
LBearingChange: 0
UnicodeEnc: 0
InstructionsLength: 0
SplineSet
38 1848 m 1
 303 1848 l 1
 408 1529 l 1
 245 1529 l 1
 38 1848 l 1
86 1459 m 1
 374 1459 l 1
 374 0 l 1
 86 0 l 1
 86 1459 l 1
EndSplineSet
EndUndoOperation
UndoOperation
Index: 2
Type: 1
WasModified: 0
WasOrder2: 0
Width: 458
VWidth: 0
LBearingChange: 0
UnicodeEnc: 0
InstructionsLength: 0
SplineSet
86 1459 m 1
 374 1459 l 1
 374 0 l 1
 86 0 l 1
 86 1459 l 1
38 1848 m 1
 303 1848 l 1
 408 1529 l 1
 245 1529 l 1
 38 1848 l 1
EndSplineSet
EndUndoOperation
EndUndoes
Redoes
EndRedoes
EndUndoRedoHistory
Fore
SplineSet
38 1848 m 1
 303 1848 l 1
 408 1529 l 1
 245 1529 l 1
 38 1848 l 1
86 1459 m 1
 374 1459 l 1
 374 0 l 1
 86 0 l 1
 86 1459 l 1
EndSplineSet
EndChar

StartChar: J
Encoding: 74 74 19
Width: 1169
VWidth: 0
Flags: HW
PickledData: "(dp1
S'com.typemytype.robofont.layerData'
p2
(dp3
S'b'
(dp4
S'name'
p5
S'J'
sS'lib'
p6
(dp7
sS'unicodes'
p8
(tsS'width'
p9
I1169
sS'contours'
p10
(tsS'components'
p11
(tsS'anchors'
p12
(tsss."
LayerCount: 2
UndoRedoHistory
Layer: 1
Undoes
UndoOperation
Index: 0
Type: 1
WasModified: 0
WasOrder2: 0
Width: 1169
VWidth: 0
LBearingChange: 0
UnicodeEnc: 0
InstructionsLength: 0
SplineSet
150 225 m 1
 197 203 331 148 477 148 c 0
 668 148 741 248 741 435 c 2
 741 1281 l 1
 377 1281 l 1
 377 1446 l 1
 942 1446 l 1
 942 431 l 2
 942 157 808 -17 483 -17 c 0
 315 -17 160 36 95 70 c 1
 150 225 l 1
EndSplineSet
EndUndoOperation
UndoOperation
Index: 1
Type: 1
WasModified: 1
WasOrder2: 0
Width: 1169
VWidth: 0
LBearingChange: 0
UnicodeEnc: 0
InstructionsLength: 0
SplineSet
150 225 m 1
 95 70 l 1
 160 36 315 -17 483 -17 c 0
 808 -17 942 157 942 431 c 2
 942 1446 l 1
 377 1446 l 1
 377 1281 l 1
 741 1281 l 1
 741 435 l 2
 741 248 668 148 477 148 c 0
 331 148 197 203 150 225 c 1
EndSplineSet
EndUndoOperation
UndoOperation
Index: 2
Type: 1
WasModified: 0
WasOrder2: 0
Width: 1169
VWidth: 0
LBearingChange: 0
UnicodeEnc: 0
InstructionsLength: 0
SplineSet
150 225 m 1
 95 70 l 1
 160 36 315 -17 483 -17 c 0
 808 -17 942 157 942 431 c 2
 942 1446 l 1
 377 1446 l 1
 377 1281 l 1
 741 1281 l 1
 741 435 l 2
 741 248 668 148 477 148 c 0
 331 148 197 203 150 225 c 1
EndSplineSet
EndUndoOperation
EndUndoes
Redoes
EndRedoes
EndUndoRedoHistory
Fore
SplineSet
150 225 m 1
 197 203 331 148 477 148 c 0
 668 148 741 248 741 435 c 2
 741 1281 l 1
 377 1281 l 1
 377 1446 l 1
 942 1446 l 1
 942 431 l 2
 942 157 808 -17 483 -17 c 0
 315 -17 160 36 95 70 c 1
 150 225 l 1
EndSplineSet
EndChar

StartChar: K
Encoding: 75 75 20
Width: 1421
VWidth: 0
Flags: HW
PickledData: "(dp1
S'com.typemytype.robofont.layerData'
p2
(dp3
S'b'
(dp4
S'name'
p5
S'K'
sS'lib'
p6
(dp7
sS'unicodes'
p8
(tsS'width'
p9
I1421
sS'contours'
p10
(tsS'components'
p11
(tsS'anchors'
p12
(tsss."
LayerCount: 2
UndoRedoHistory
Layer: 1
Undoes
UndoOperation
Index: 0
Type: 1
WasModified: 0
WasOrder2: 0
Width: 1421
VWidth: 0
LBearingChange: 0
UnicodeEnc: 0
InstructionsLength: 0
SplineSet
231 1446 m 1
 432 1446 l 1
 432 657 l 1
 588 844 l 1
 1117 1446 l 1
 1335 1446 l 1
 791 798 l 1
 1364 0 l 1
 1141 0 l 1
 650 690 l 1
 432 468 l 1
 432 0 l 1
 231 0 l 1
 231 1446 l 1
EndSplineSet
EndUndoOperation
UndoOperation
Index: 1
Type: 1
WasModified: 1
WasOrder2: 0
Width: 1421
VWidth: 0
LBearingChange: 0
UnicodeEnc: 0
InstructionsLength: 0
SplineSet
231 1446 m 1
 432 1446 l 1
 432 657 l 1
 588 844 l 1
 1117 1446 l 1
 1335 1446 l 1
 791 798 l 1
 1364 0 l 1
 1141 0 l 1
 650 690 l 1
 432 468 l 1
 432 0 l 1
 231 0 l 1
 231 1446 l 1
EndSplineSet
EndUndoOperation
UndoOperation
Index: 2
Type: 1
WasModified: 0
WasOrder2: 0
Width: 1421
VWidth: 0
LBearingChange: 0
UnicodeEnc: 0
InstructionsLength: 0
SplineSet
231 1446 m 1
 432 1446 l 1
 432 657 l 1
 588 844 l 1
 1117 1446 l 1
 1335 1446 l 1
 791 798 l 1
 1364 0 l 1
 1141 0 l 1
 650 690 l 1
 432 468 l 1
 432 0 l 1
 231 0 l 1
 231 1446 l 1
EndSplineSet
EndUndoOperation
EndUndoes
Redoes
EndRedoes
EndUndoRedoHistory
Fore
SplineSet
231 1446 m 1
 432 1446 l 1
 432 657 l 1
 588 844 l 1
 1117 1446 l 1
 1335 1446 l 1
 791 798 l 1
 1364 0 l 1
 1141 0 l 1
 650 690 l 1
 432 468 l 1
 432 0 l 1
 231 0 l 1
 231 1446 l 1
EndSplineSet
EndChar

StartChar: L
Encoding: 76 76 21
Width: 1148
VWidth: 0
Flags: HW
PickledData: "(dp1
S'com.typemytype.robofont.layerData'
p2
(dp3
S'b'
(dp4
S'name'
p5
S'L'
sS'lib'
p6
(dp7
sS'unicodes'
p8
(tsS'width'
p9
I1148
sS'contours'
p10
(tsS'components'
p11
(tsS'anchors'
p12
(tsss."
LayerCount: 2
UndoRedoHistory
Layer: 1
Undoes
UndoOperation
Index: 0
Type: 1
WasModified: 0
WasOrder2: 0
Width: 1148
VWidth: 0
LBearingChange: 0
UnicodeEnc: 0
InstructionsLength: 0
SplineSet
231 1446 m 1
 432 1446 l 1
 432 155 l 1
 1080 155 l 1
 1080 0 l 1
 231 0 l 1
 231 1446 l 1
EndSplineSet
EndUndoOperation
UndoOperation
Index: 1
Type: 1
WasModified: 1
WasOrder2: 0
Width: 1148
VWidth: 0
LBearingChange: 0
UnicodeEnc: 0
InstructionsLength: 0
SplineSet
231 1446 m 1
 432 1446 l 1
 432 155 l 1
 1080 155 l 1
 1080 0 l 1
 231 0 l 1
 231 1446 l 1
EndSplineSet
EndUndoOperation
UndoOperation
Index: 2
Type: 1
WasModified: 0
WasOrder2: 0
Width: 1148
VWidth: 0
LBearingChange: 0
UnicodeEnc: 0
InstructionsLength: 0
SplineSet
231 1446 m 1
 432 1446 l 1
 432 155 l 1
 1080 155 l 1
 1080 0 l 1
 231 0 l 1
 231 1446 l 1
EndSplineSet
EndUndoOperation
EndUndoes
Redoes
EndRedoes
EndUndoRedoHistory
Fore
SplineSet
231 1446 m 1
 432 1446 l 1
 432 155 l 1
 1080 155 l 1
 1080 0 l 1
 231 0 l 1
 231 1446 l 1
EndSplineSet
EndChar

StartChar: Lslash
Encoding: 321 321 22
Width: 722
VWidth: 0
Flags: HW
PickledData: "(dp1
S'com.typemytype.robofont.layerData'
p2
(dp3
S'b'
(dp4
S'name'
p5
S'Lslash'
p6
sS'lib'
p7
(dp8
sS'unicodes'
p9
(tsS'width'
p10
I722
sS'contours'
p11
(tsS'components'
p12
(tsS'anchors'
p13
(tsss."
LayerCount: 2
UndoRedoHistory
Layer: 1
Undoes
UndoOperation
Index: 0
Type: 1
WasModified: 0
WasOrder2: 0
Width: 722
VWidth: 0
LBearingChange: 0
UnicodeEnc: 0
InstructionsLength: 0
SplineSet
82 1459 m 1
 370 1459 l 1
 370 956 l 1
 626 1031 l 1
 626 889 l 1
 370 814 l 1
 370 194 l 1
 700 194 l 1
 700 0 l 1
 82 0 l 1
 82 708 l 1
 11 679 l 1
 11 822 l 1
 82 850 l 1
 82 1459 l 1
EndSplineSet
EndUndoOperation
UndoOperation
Index: 1
Type: 1
WasModified: 1
WasOrder2: 0
Width: 722
VWidth: 0
LBearingChange: 0
UnicodeEnc: 0
InstructionsLength: 0
SplineSet
82 1459 m 1
 370 1459 l 1
 370 956 l 1
 626 1031 l 1
 626 889 l 1
 370 814 l 1
 370 194 l 1
 700 194 l 1
 700 0 l 1
 82 0 l 1
 82 708 l 1
 11 679 l 1
 11 822 l 1
 82 850 l 1
 82 1459 l 1
EndSplineSet
EndUndoOperation
UndoOperation
Index: 2
Type: 1
WasModified: 0
WasOrder2: 0
Width: 722
VWidth: 0
LBearingChange: 0
UnicodeEnc: 0
InstructionsLength: 0
SplineSet
82 1459 m 1
 370 1459 l 1
 370 956 l 1
 626 1031 l 1
 626 889 l 1
 370 814 l 1
 370 194 l 1
 700 194 l 1
 700 0 l 1
 82 0 l 1
 82 708 l 1
 11 679 l 1
 11 822 l 1
 82 850 l 1
 82 1459 l 1
EndSplineSet
EndUndoOperation
EndUndoes
Redoes
EndRedoes
EndUndoRedoHistory
Fore
SplineSet
82 1459 m 1
 370 1459 l 1
 370 956 l 1
 626 1031 l 1
 626 889 l 1
 370 814 l 1
 370 194 l 1
 700 194 l 1
 700 0 l 1
 82 0 l 1
 82 708 l 1
 11 679 l 1
 11 822 l 1
 82 850 l 1
 82 1459 l 1
EndSplineSet
EndChar

StartChar: M
Encoding: 77 77 23
Width: 1786
VWidth: 0
Flags: HW
PickledData: "(dp1
S'com.typemytype.robofont.layerData'
p2
(dp3
S'b'
(dp4
S'name'
p5
S'M'
sS'lib'
p6
(dp7
sS'unicodes'
p8
(tsS'width'
p9
I1786
sS'contours'
p10
(tsS'components'
p11
(tsS'anchors'
p12
(tsss."
LayerCount: 2
UndoRedoHistory
Layer: 1
Undoes
UndoOperation
Index: 0
Type: 1
WasModified: 0
WasOrder2: 0
Width: 1786
VWidth: 0
LBearingChange: 0
UnicodeEnc: 0
InstructionsLength: 0
SplineSet
231 0 m 1
 231 1446 l 1
 416 1446 l 1
 894 638 l 1
 1377 1446 l 1
 1555 1446 l 1
 1555 0 l 1
 1365 0 l 1
 1365 1121 l 1
 969 458 l 1
 820 458 l 1
 423 1117 l 1
 423 0 l 1
 231 0 l 1
EndSplineSet
EndUndoOperation
UndoOperation
Index: 1
Type: 1
WasModified: 1
WasOrder2: 0
Width: 1786
VWidth: 0
LBearingChange: 0
UnicodeEnc: 0
InstructionsLength: 0
SplineSet
231 0 m 1
 231 1446 l 1
 416 1446 l 1
 894 638 l 1
 1377 1446 l 1
 1555 1446 l 1
 1555 0 l 1
 1365 0 l 1
 1365 1121 l 1
 969 458 l 1
 820 458 l 1
 423 1117 l 1
 423 0 l 1
 231 0 l 1
EndSplineSet
EndUndoOperation
UndoOperation
Index: 2
Type: 1
WasModified: 0
WasOrder2: 0
Width: 1786
VWidth: 0
LBearingChange: 0
UnicodeEnc: 0
InstructionsLength: 0
SplineSet
231 0 m 1
 231 1446 l 1
 416 1446 l 1
 894 638 l 1
 1377 1446 l 1
 1555 1446 l 1
 1555 0 l 1
 1365 0 l 1
 1365 1121 l 1
 969 458 l 1
 820 458 l 1
 423 1117 l 1
 423 0 l 1
 231 0 l 1
EndSplineSet
EndUndoOperation
EndUndoes
Redoes
EndRedoes
EndUndoRedoHistory
Fore
SplineSet
231 0 m 1
 231 1446 l 1
 416 1446 l 1
 894 638 l 1
 1377 1446 l 1
 1555 1446 l 1
 1555 0 l 1
 1365 0 l 1
 1365 1121 l 1
 969 458 l 1
 820 458 l 1
 423 1117 l 1
 423 0 l 1
 231 0 l 1
EndSplineSet
EndChar

StartChar: N
Encoding: 78 78 24
Width: 1616
VWidth: 0
Flags: HW
PickledData: "(dp1
S'com.typemytype.robofont.layerData'
p2
(dp3
S'b'
(dp4
S'name'
p5
S'N'
sS'lib'
p6
(dp7
sS'unicodes'
p8
(tsS'width'
p9
I1616
sS'contours'
p10
(tsS'components'
p11
(tsS'anchors'
p12
(tsss."
LayerCount: 2
UndoRedoHistory
Layer: 1
Undoes
UndoOperation
Index: 0
Type: 1
WasModified: 0
WasOrder2: 0
Width: 1616
VWidth: 0
LBearingChange: 0
UnicodeEnc: 0
InstructionsLength: 0
SplineSet
231 0 m 1
 231 1446 l 1
 384 1446 l 1
 1210 281 l 1
 1210 1446 l 1
 1385 1446 l 1
 1385 0 l 1
 1206 0 l 1
 406 1115 l 1
 406 0 l 1
 231 0 l 1
EndSplineSet
EndUndoOperation
UndoOperation
Index: 1
Type: 1
WasModified: 1
WasOrder2: 0
Width: 1616
VWidth: 0
LBearingChange: 0
UnicodeEnc: 0
InstructionsLength: 0
SplineSet
231 0 m 1
 231 1446 l 1
 384 1446 l 1
 1210 281 l 1
 1210 1446 l 1
 1385 1446 l 1
 1385 0 l 1
 1206 0 l 1
 406 1115 l 1
 406 0 l 1
 231 0 l 1
EndSplineSet
EndUndoOperation
UndoOperation
Index: 2
Type: 1
WasModified: 0
WasOrder2: 0
Width: 1616
VWidth: 0
LBearingChange: 0
UnicodeEnc: 0
InstructionsLength: 0
SplineSet
231 0 m 1
 231 1446 l 1
 384 1446 l 1
 1210 281 l 1
 1210 1446 l 1
 1385 1446 l 1
 1385 0 l 1
 1206 0 l 1
 406 1115 l 1
 406 0 l 1
 231 0 l 1
EndSplineSet
EndUndoOperation
EndUndoes
Redoes
EndRedoes
EndUndoRedoHistory
Fore
SplineSet
231 0 m 1
 231 1446 l 1
 384 1446 l 1
 1210 281 l 1
 1210 1446 l 1
 1385 1446 l 1
 1385 0 l 1
 1206 0 l 1
 406 1115 l 1
 406 0 l 1
 231 0 l 1
EndSplineSet
EndChar

StartChar: O
Encoding: 79 79 25
Width: 1532
VWidth: 0
Flags: HW
PickledData: "(dp1
S'com.typemytype.robofont.layerData'
p2
(dp3
S'b'
(dp4
S'name'
p5
S'O'
sS'lib'
p6
(dp7
sS'unicodes'
p8
(tsS'width'
p9
I1532
sS'contours'
p10
(tsS'components'
p11
(tsS'anchors'
p12
(tsss."
LayerCount: 2
UndoRedoHistory
Layer: 1
Undoes
UndoOperation
Index: 0
Type: 1
WasModified: 0
WasOrder2: 0
Width: 1532
VWidth: 0
LBearingChange: 0
UnicodeEnc: 0
InstructionsLength: 0
SplineSet
775 126 m 0
 1033 126 1148 199 1148 455 c 2
 1148 992 l 2
 1148 1249 1031 1332 775 1332 c 0
 521 1332 385 1249 385 992 c 2
 385 455 l 2
 385 199 519 126 775 126 c 0
775 -24 m 0
 292 -24 183 185 183 486 c 2
 183 955 l 2
 183 1261 290 1483 775 1483 c 0
 1242 1483 1349 1248 1349 942 c 2
 1349 500 l 2
 1349 203 1240 -24 775 -24 c 0
EndSplineSet
EndUndoOperation
UndoOperation
Index: 1
Type: 1
WasModified: 1
WasOrder2: 0
Width: 1532
VWidth: 0
LBearingChange: 0
UnicodeEnc: 0
InstructionsLength: 0
SplineSet
775 126 m 0
 519 126 385 199 385 455 c 2
 385 992 l 2
 385 1249 521 1332 775 1332 c 0
 1031 1332 1148 1249 1148 992 c 2
 1148 455 l 2
 1148 199 1033 126 775 126 c 0
775 -24 m 0
 1240 -24 1349 203 1349 500 c 2
 1349 942 l 2
 1349 1248 1242 1483 775 1483 c 0
 290 1483 183 1261 183 955 c 2
 183 486 l 2
 183 185 292 -24 775 -24 c 0
EndSplineSet
EndUndoOperation
UndoOperation
Index: 2
Type: 1
WasModified: 0
WasOrder2: 0
Width: 1532
VWidth: 0
LBearingChange: 0
UnicodeEnc: 0
InstructionsLength: 0
SplineSet
775 -24 m 0
 1240 -24 1349 203 1349 500 c 2
 1349 942 l 2
 1349 1248 1242 1483 775 1483 c 0
 290 1483 183 1261 183 955 c 2
 183 486 l 2
 183 185 292 -24 775 -24 c 0
775 126 m 0
 519 126 385 199 385 455 c 2
 385 992 l 2
 385 1249 521 1332 775 1332 c 0
 1031 1332 1148 1249 1148 992 c 2
 1148 455 l 2
 1148 199 1033 126 775 126 c 0
EndSplineSet
EndUndoOperation
EndUndoes
Redoes
EndRedoes
EndUndoRedoHistory
Fore
SplineSet
775 126 m 0
 1033 126 1148 199 1148 455 c 2
 1148 992 l 2
 1148 1249 1031 1332 775 1332 c 0
 521 1332 385 1249 385 992 c 2
 385 455 l 2
 385 199 519 126 775 126 c 0
775 -24 m 0
 292 -24 183 185 183 486 c 2
 183 955 l 2
 183 1261 290 1483 775 1483 c 0
 1242 1483 1349 1248 1349 942 c 2
 1349 500 l 2
 1349 203 1240 -24 775 -24 c 0
EndSplineSet
EndChar

StartChar: OE
Encoding: 338 338 26
Width: 1505
VWidth: 0
Flags: HW
PickledData: "(dp1
S'com.typemytype.robofont.layerData'
p2
(dp3
S'b'
(dp4
S'name'
p5
S'OE'
p6
sS'lib'
p7
(dp8
sS'unicodes'
p9
(tsS'width'
p10
I1505
sS'contours'
p11
(tsS'components'
p12
(tsS'anchors'
p13
(tsss."
LayerCount: 2
UndoRedoHistory
Layer: 1
Undoes
UndoOperation
Index: 0
Type: 1
WasModified: 0
WasOrder2: 0
Width: 1505
VWidth: 0
LBearingChange: 0
UnicodeEnc: 0
InstructionsLength: 0
SplineSet
762 150 m 1
 762 1295 l 1
 508 1295 372 1212 372 955 c 2
 372 479 l 2
 372 223 506 150 762 150 c 1
762 0 m 2
 279 0 170 209 170 510 c 2
 170 918 l 2
 170 1224 277 1446 762 1446 c 2
 1377 1446 l 1
 1377 1296 l 1
 963 1296 l 1
 963 814 l 1
 1316 814 l 1
 1316 664 l 1
 963 664 l 1
 963 150 l 1
 1386 150 l 1
 1386 0 l 1
 762 0 l 2
EndSplineSet
EndUndoOperation
UndoOperation
Index: 1
Type: 1
WasModified: 1
WasOrder2: 0
Width: 1505
VWidth: 0
LBearingChange: 0
UnicodeEnc: 0
InstructionsLength: 0
SplineSet
762 150 m 1
 506 150 372 223 372 479 c 2
 372 955 l 2
 372 1212 508 1295 762 1295 c 1
 762 150 l 1
762 0 m 2
 1386 0 l 1
 1386 150 l 1
 963 150 l 1
 963 664 l 1
 1316 664 l 1
 1316 814 l 1
 963 814 l 1
 963 1296 l 1
 1377 1296 l 1
 1377 1446 l 1
 762 1446 l 2
 277 1446 170 1224 170 918 c 2
 170 510 l 2
 170 209 279 0 762 0 c 2
EndSplineSet
EndUndoOperation
UndoOperation
Index: 2
Type: 1
WasModified: 0
WasOrder2: 0
Width: 1505
VWidth: 0
LBearingChange: 0
UnicodeEnc: 0
InstructionsLength: 0
SplineSet
762 0 m 2
 1386 0 l 1
 1386 150 l 1
 963 150 l 1
 963 664 l 1
 1316 664 l 1
 1316 814 l 1
 963 814 l 1
 963 1296 l 1
 1377 1296 l 1
 1377 1446 l 1
 762 1446 l 2
 277 1446 170 1224 170 918 c 2
 170 510 l 2
 170 209 279 0 762 0 c 2
762 150 m 1
 506 150 372 223 372 479 c 2
 372 955 l 2
 372 1212 508 1295 762 1295 c 1
 762 150 l 1
EndSplineSet
EndUndoOperation
EndUndoes
Redoes
EndRedoes
EndUndoRedoHistory
Fore
SplineSet
762 150 m 1
 762 1295 l 1
 508 1295 372 1212 372 955 c 2
 372 479 l 2
 372 223 506 150 762 150 c 1
762 0 m 2
 279 0 170 209 170 510 c 2
 170 918 l 2
 170 1224 277 1446 762 1446 c 2
 1377 1446 l 1
 1377 1296 l 1
 963 1296 l 1
 963 814 l 1
 1316 814 l 1
 1316 664 l 1
 963 664 l 1
 963 150 l 1
 1386 150 l 1
 1386 0 l 1
 762 0 l 2
EndSplineSet
EndChar

StartChar: Oslash
Encoding: 216 216 27
Width: 1506
VWidth: 0
Flags: HW
PickledData: "(dp1
S'com.typemytype.robofont.layerData'
p2
(dp3
S'b'
(dp4
S'name'
p5
S'Oslash'
p6
sS'lib'
p7
(dp8
sS'unicodes'
p9
(tsS'width'
p10
I1506
sS'contours'
p11
(tsS'components'
p12
(tsS'anchors'
p13
(tsss."
LayerCount: 2
UndoRedoHistory
Layer: 1
Undoes
UndoOperation
Index: 0
Type: 1
WasModified: 0
WasOrder2: 0
Width: 1506
VWidth: 0
LBearingChange: 0
UnicodeEnc: 0
Refer: 25 79 N 1 0 0 1 0 0 2
InstructionsLength: 0
SplineSet
1054 1676 m 1
 1158 1638 l 1
 479 -195 l 1
 376 -157 l 1
 1054 1676 l 1
EndSplineSet
EndUndoOperation
UndoOperation
Index: 1
Type: 1
WasModified: 1
WasOrder2: 0
Width: 1506
VWidth: 0
LBearingChange: 0
UnicodeEnc: 0
Refer: 25 79 N 1 0 0 1 0 0 2
InstructionsLength: 0
SplineSet
1054 1676 m 1
 376 -157 l 1
 479 -195 l 1
 1158 1638 l 1
 1054 1676 l 1
EndSplineSet
EndUndoOperation
UndoOperation
Index: 2
Type: 1
WasModified: 0
WasOrder2: 0
Width: 1506
VWidth: 0
LBearingChange: 0
UnicodeEnc: 0
Refer: 25 79 N 1 0 0 1 0 0 2
InstructionsLength: 0
SplineSet
1054 1676 m 1
 376 -157 l 1
 479 -195 l 1
 1158 1638 l 1
 1054 1676 l 1
EndSplineSet
EndUndoOperation
EndUndoes
Redoes
EndRedoes
EndUndoRedoHistory
Fore
SplineSet
1054 1676 m 1
 1158 1638 l 1
 479 -195 l 1
 376 -157 l 1
 1054 1676 l 1
EndSplineSet
Refer: 25 79 N 1 0 0 1 0 0 2
EndChar

StartChar: P
Encoding: 80 80 28
Width: 1351
VWidth: 0
Flags: HW
PickledData: "(dp1
S'com.typemytype.robofont.layerData'
p2
(dp3
S'b'
(dp4
S'name'
p5
S'P'
sS'lib'
p6
(dp7
sS'unicodes'
p8
(tsS'width'
p9
I1351
sS'contours'
p10
(tsS'components'
p11
(tsS'anchors'
p12
(tsss."
LayerCount: 2
UndoRedoHistory
Layer: 1
Undoes
UndoOperation
Index: 0
Type: 1
WasModified: 0
WasOrder2: 0
Width: 1351
VWidth: 0
LBearingChange: 0
UnicodeEnc: 0
InstructionsLength: 0
SplineSet
433 682 m 1
 811 682 l 2
 986 682 1009 828 1010 935 c 1
 1010 1018 l 2
 1010 1118 995 1293 814 1293 c 2
 433 1293 l 1
 433 682 l 1
231 0 m 1
 231 1446 l 1
 808 1446 l 2
 1051 1446 1206 1320 1212 1024 c 1
 1212 957 l 2
 1212 645 1053 529 807 529 c 2
 433 529 l 1
 433 0 l 1
 231 0 l 1
EndSplineSet
EndUndoOperation
UndoOperation
Index: 1
Type: 1
WasModified: 1
WasOrder2: 0
Width: 1351
VWidth: 0
LBearingChange: 0
UnicodeEnc: 0
InstructionsLength: 0
SplineSet
433 682 m 1
 433 1293 l 1
 814 1293 l 2
 995 1293 1010 1118 1010 1018 c 2
 1010 935 l 1
 1009 828 986 682 811 682 c 2
 433 682 l 1
231 0 m 1
 433 0 l 1
 433 529 l 1
 807 529 l 2
 1053 529 1212 645 1212 957 c 2
 1212 1024 l 1
 1206 1320 1051 1446 808 1446 c 2
 231 1446 l 1
 231 0 l 1
EndSplineSet
EndUndoOperation
UndoOperation
Index: 2
Type: 1
WasModified: 0
WasOrder2: 0
Width: 1351
VWidth: 0
LBearingChange: 0
UnicodeEnc: 0
InstructionsLength: 0
SplineSet
231 0 m 1
 433 0 l 1
 433 529 l 1
 807 529 l 2
 1053 529 1212 645 1212 957 c 2
 1212 1024 l 1
 1206 1320 1051 1446 808 1446 c 2
 231 1446 l 1
 231 0 l 1
433 682 m 1
 433 1293 l 1
 814 1293 l 2
 995 1293 1010 1118 1010 1018 c 2
 1010 935 l 1
 1009 828 986 682 811 682 c 2
 433 682 l 1
EndSplineSet
EndUndoOperation
EndUndoes
Redoes
EndRedoes
EndUndoRedoHistory
Fore
SplineSet
433 682 m 1
 811 682 l 2
 986 682 1009 828 1010 935 c 1
 1010 1018 l 2
 1010 1118 995 1293 814 1293 c 2
 433 1293 l 1
 433 682 l 1
231 0 m 1
 231 1446 l 1
 808 1446 l 2
 1051 1446 1206 1320 1212 1024 c 1
 1212 957 l 2
 1212 645 1053 529 807 529 c 2
 433 529 l 1
 433 0 l 1
 231 0 l 1
EndSplineSet
EndChar

StartChar: Q
Encoding: 81 81 29
Width: 1532
VWidth: 0
Flags: HW
PickledData: "(dp1
S'com.typemytype.robofont.layerData'
p2
(dp3
S'b'
(dp4
S'name'
p5
S'Q'
sS'lib'
p6
(dp7
sS'unicodes'
p8
(tsS'width'
p9
I1532
sS'contours'
p10
(tsS'components'
p11
(tsS'anchors'
p12
(tsss."
LayerCount: 2
UndoRedoHistory
Layer: 1
Undoes
UndoOperation
Index: 0
Type: 1
WasModified: 0
WasOrder2: 0
Width: 1532
VWidth: 0
LBearingChange: 0
UnicodeEnc: 0
InstructionsLength: 0
SplineSet
775 126 m 0
 1033 126 1148 199 1148 455 c 2
 1148 992 l 2
 1148 1249 1031 1332 775 1332 c 0
 521 1332 385 1249 385 992 c 2
 385 455 l 2
 385 199 519 126 775 126 c 0
893.38623933 -18.4690752866 m 1
 1085 -308 l 1
 944 -384 l 1
 713.171448529 -22.7871202925 l 1
 282.584770429 -5.35984710607 183 198.293476083 183 486 c 2
 183 955 l 2
 183 1261 290 1483 775 1483 c 0
 1242 1483 1349 1248 1349 942 c 2
 1349 500 l 2
 1349 230.051419889 1258.95166351 17.9320466991 893.38623933 -18.4690752866 c 1
EndSplineSet
EndUndoOperation
UndoOperation
Index: 1
Type: 1
WasModified: 1
WasOrder2: 0
Width: 1532
VWidth: 0
LBearingChange: 0
UnicodeEnc: 0
InstructionsLength: 0
SplineSet
775 126 m 0
 519 126 385 199 385 455 c 2
 385 992 l 2
 385 1249 521 1332 775 1332 c 0
 1031 1332 1148 1249 1148 992 c 2
 1148 455 l 2
 1148 199 1033 126 775 126 c 0
893.38623933 -18.4690752866 m 1
 1258.95166351 17.9320466991 1349 230.051419889 1349 500 c 2
 1349 942 l 2
 1349 1248 1242 1483 775 1483 c 0
 290 1483 183 1261 183 955 c 2
 183 486 l 2
 183 198.293476083 282.584770429 -5.35984710607 713.171448529 -22.7871202925 c 1
 944 -384 l 1
 1085 -308 l 1
 893.38623933 -18.4690752866 l 1
EndSplineSet
EndUndoOperation
UndoOperation
Index: 2
Type: 1
WasModified: 0
WasOrder2: 0
Width: 1532
VWidth: 0
LBearingChange: 0
UnicodeEnc: 0
InstructionsLength: 0
SplineSet
705 -10 m 1
 944 -384 l 1
 1085 -308 l 1
 858 35 l 1
 705 -10 l 1
775 -24 m 0
 1240 -24 1349 203 1349 500 c 2
 1349 942 l 2
 1349 1248 1242 1483 775 1483 c 0
 290 1483 183 1261 183 955 c 2
 183 486 l 2
 183 185 292 -24 775 -24 c 0
775 126 m 0
 519 126 385 199 385 455 c 2
 385 992 l 2
 385 1249 521 1332 775 1332 c 0
 1031 1332 1148 1249 1148 992 c 2
 1148 455 l 2
 1148 199 1033 126 775 126 c 0
EndSplineSet
EndUndoOperation
EndUndoes
Redoes
EndRedoes
EndUndoRedoHistory
Fore
SplineSet
775 126 m 0
 1033 126 1148 199 1148 455 c 2
 1148 992 l 2
 1148 1249 1031 1332 775 1332 c 0
 521 1332 385 1249 385 992 c 2
 385 455 l 2
 385 199 519 126 775 126 c 0
893 -18 m 1
 1085 -308 l 1
 944 -384 l 1
 713 -23 l 1
 282 -6 183 198 183 486 c 2
 183 955 l 2
 183 1261 290 1483 775 1483 c 0
 1242 1483 1349 1248 1349 942 c 2
 1349 500 l 2
 1349 230 1259 18 893 -18 c 1
EndSplineSet
EndChar

StartChar: R
Encoding: 82 82 30
Width: 1476
VWidth: 0
Flags: HW
PickledData: "(dp1
S'com.typemytype.robofont.layerData'
p2
(dp3
S'b'
(dp4
S'name'
p5
S'R'
sS'lib'
p6
(dp7
sS'unicodes'
p8
(tsS'width'
p9
I1476
sS'contours'
p10
(tsS'components'
p11
(tsS'anchors'
p12
(tsss."
LayerCount: 2
UndoRedoHistory
Layer: 1
Undoes
UndoOperation
Index: 0
Type: 1
WasModified: 0
WasOrder2: 0
Width: 1476
VWidth: 0
LBearingChange: 0
UnicodeEnc: 0
InstructionsLength: 0
SplineSet
433 719 m 1
 867 719 l 2
 1042 719 1076 840 1077 947 c 1
 1077 1018 l 2
 1077 1118 1062 1293 881 1293 c 2
 433 1293 l 1
 433 719 l 1
231 0 m 1
 231 1446 l 1
 875 1446 l 2
 1118 1446 1273 1320 1279 1024 c 1
 1279 969 l 2
 1279 763.182701274 1205.0218475 653.537000803 1084.04975158 602.744311545 c 1
 1341 0 l 1
 1129 0 l 1
 897.361433245 566.623570985 l 1
 886.084012399 566.203281819 874.626893113 566 863 566 c 2
 433 566 l 1
 433 0 l 1
 231 0 l 1
EndSplineSet
EndUndoOperation
UndoOperation
Index: 1
Type: 1
WasModified: 1
WasOrder2: 0
Width: 1476
VWidth: 0
LBearingChange: 0
UnicodeEnc: 0
InstructionsLength: 0
SplineSet
433 719 m 1
 433 1293 l 1
 881 1293 l 2
 1062 1293 1077 1118 1077 1018 c 2
 1077 947 l 1
 1076 840 1042 719 867 719 c 2
 433 719 l 1
231 0 m 1
 433 0 l 1
 433 566 l 1
 863 566 l 2
 874.626893113 566 886.084012399 566.203281819 897.361433245 566.623570985 c 1
 1129 0 l 1
 1341 0 l 1
 1084.04975158 602.744311545 l 1
 1205.0218475 653.537000803 1279 763.182701274 1279 969 c 2
 1279 1024 l 1
 1273 1320 1118 1446 875 1446 c 2
 231 1446 l 1
 231 0 l 1
EndSplineSet
EndUndoOperation
UndoOperation
Index: 2
Type: 1
WasModified: 0
WasOrder2: 0
Width: 1476
VWidth: 0
LBearingChange: 0
UnicodeEnc: 0
InstructionsLength: 0
SplineSet
869 636 m 1
 1129 0 l 1
 1341 0 l 1
 1046 692 l 1
 869 636 l 1
231 0 m 1
 433 0 l 1
 433 566 l 1
 863 566 l 2
 1109 566 1279 657 1279 969 c 2
 1279 1024 l 1
 1273 1320 1118 1446 875 1446 c 2
 231 1446 l 1
 231 0 l 1
433 719 m 1
 433 1293 l 1
 881 1293 l 2
 1062 1293 1077 1118 1077 1018 c 2
 1077 947 l 1
 1076 840 1042 719 867 719 c 2
 433 719 l 1
EndSplineSet
EndUndoOperation
EndUndoes
Redoes
EndRedoes
EndUndoRedoHistory
Fore
SplineSet
433 719 m 1
 867 719 l 2
 1042 719 1076 840 1077 947 c 1
 1077 1018 l 2
 1077 1118 1062 1293 881 1293 c 2
 433 1293 l 1
 433 719 l 1
231 0 m 1
 231 1446 l 1
 875 1446 l 2
 1118 1446 1273 1320 1279 1024 c 1
 1279 969 l 2
 1279 763 1205 654 1084 603 c 5
 1341 0 l 5
 1129 0 l 5
 897 567 l 5
 886 567 875 566 863 566 c 2
 433 566 l 1
 433 0 l 1
 231 0 l 1
EndSplineSet
EndChar

StartChar: S
Encoding: 83 83 31
Width: 1303
VWidth: 0
Flags: HW
PickledData: "(dp1
S'com.typemytype.robofont.layerData'
p2
(dp3
S'b'
(dp4
S'name'
p5
S'S'
sS'lib'
p6
(dp7
sS'unicodes'
p8
(tsS'width'
p9
F1303.1645616351116
sS'contours'
p10
(tsS'components'
p11
(tsS'anchors'
p12
(tsss."
LayerCount: 2
UndoRedoHistory
Layer: 1
Undoes
UndoOperation
Index: 0
Type: 1
WasModified: 0
WasOrder2: 0
Width: 1303
VWidth: 0
LBearingChange: 0
UnicodeEnc: 0
InstructionsLength: 0
SplineSet
152 209 m 1
 239 338 l 1
 321 252 471 138 671 138 c 0
 855 138 970 196 983 352 c 0
 994 483 939 544 773 616 c 2
 487 740 l 2
 314 815 168 900 176 1118 c 0
 185 1374 410 1481 660 1481 c 0
 927 1481 1086 1371 1151 1284 c 1
 1061 1159 l 1
 986 1250 862 1322 675 1326 c 1
 476 1328 381 1246 372 1137 c 0
 364 1040 393 978 549 911 c 2
 850 780 l 2
 1022 706 1181 618 1175 380 c 0
 1169 124 969 -27 665 -23 c 1
 456 -18 257 72 152 209 c 1
EndSplineSet
EndUndoOperation
UndoOperation
Index: 1
Type: 1
WasModified: 1
WasOrder2: 0
Width: 1303
VWidth: 0
LBearingChange: 0
UnicodeEnc: 0
InstructionsLength: 0
SplineSet
152 209 m 1
 239 338 l 1
 321 252 471 138 671 138 c 0
 855 138 970 196 983 352 c 0
 994 483 939 544 773 616 c 2
 487 740 l 2
 314 815 168 900 176 1118 c 0
 185 1374 410 1481 660 1481 c 0
 927 1481 1086 1371 1151 1284 c 1
 1061 1159 l 1
 986 1250 862 1322 675 1326 c 1
 476 1328 381 1246 372 1137 c 0
 364 1040 393 978 549 911 c 2
 850 780 l 2
 1022 706 1181 618 1175 380 c 0
 1169 124 969 -27 665 -23 c 1
 456 -18 257 72 152 209 c 1
EndSplineSet
EndUndoOperation
UndoOperation
Index: 2
Type: 1
WasModified: 0
WasOrder2: 0
Width: 1303
VWidth: 0
LBearingChange: 0
UnicodeEnc: 0
InstructionsLength: 0
SplineSet
152 209 m 1
 239 338 l 1
 321 252 471 138 671 138 c 0
 855 138 970 196 983 352 c 0
 994 483 939 544 773 616 c 2
 487 740 l 2
 314 815 168 900 176 1118 c 0
 185 1374 410 1481 660 1481 c 0
 927 1481 1086 1371 1151 1284 c 1
 1061 1159 l 1
 986 1250 862 1322 675 1326 c 1
 476 1328 381 1246 372 1137 c 0
 364 1040 393 978 549 911 c 2
 850 780 l 2
 1022 706 1181 618 1175 380 c 0
 1169 124 969 -27 665 -23 c 1
 456 -18 257 72 152 209 c 1
EndSplineSet
EndUndoOperation
EndUndoes
Redoes
EndRedoes
EndUndoRedoHistory
Fore
SplineSet
152 209 m 1
 239 338 l 1
 321 252 471 138 671 138 c 0
 855 138 970 196 983 352 c 0
 994 483 939 544 773 616 c 2
 487 740 l 2
 314 815 168 900 176 1118 c 0
 185 1374 410 1481 660 1481 c 0
 927 1481 1086 1371 1151 1284 c 1
 1061 1159 l 1
 986 1250 862 1322 675 1326 c 1
 476 1328 381 1246 372 1137 c 0
 364 1040 393 978 549 911 c 2
 850 780 l 2
 1022 706 1181 618 1175 380 c 0
 1169 124 969 -27 665 -23 c 1
 456 -18 257 72 152 209 c 1
EndSplineSet
EndChar

StartChar: T
Encoding: 84 84 32
Width: 1203
VWidth: 0
Flags: HW
PickledData: "(dp1
S'com.typemytype.robofont.layerData'
p2
(dp3
S'b'
(dp4
S'name'
p5
S'T'
sS'lib'
p6
(dp7
sS'unicodes'
p8
(tsS'width'
p9
I1203
sS'contours'
p10
(tsS'components'
p11
(tsS'anchors'
p12
(tsss."
LayerCount: 2
UndoRedoHistory
Layer: 1
Undoes
UndoOperation
Index: 0
Type: 1
WasModified: 0
WasOrder2: 0
Width: 1203
VWidth: 0
LBearingChange: 0
UnicodeEnc: 0
InstructionsLength: 0
SplineSet
84 1446 m 1
 1119 1446 l 1
 1119 1281 l 1
 702 1281 l 1
 702 0 l 1
 501 0 l 1
 501 1281 l 1
 84 1281 l 1
 84 1446 l 1
EndSplineSet
EndUndoOperation
UndoOperation
Index: 1
Type: 1
WasModified: 1
WasOrder2: 0
Width: 1203
VWidth: 0
LBearingChange: 0
UnicodeEnc: 0
InstructionsLength: 0
SplineSet
84 1446 m 1
 1119 1446 l 1
 1119 1281 l 1
 702 1281 l 1
 702 0 l 1
 501 0 l 1
 501 1281 l 1
 84 1281 l 1
 84 1446 l 1
EndSplineSet
EndUndoOperation
UndoOperation
Index: 2
Type: 1
WasModified: 0
WasOrder2: 0
Width: 1203
VWidth: 0
LBearingChange: 0
UnicodeEnc: 0
InstructionsLength: 0
SplineSet
84 1446 m 1
 1119 1446 l 1
 1119 1281 l 1
 702 1281 l 1
 702 0 l 1
 501 0 l 1
 501 1281 l 1
 84 1281 l 1
 84 1446 l 1
EndSplineSet
EndUndoOperation
EndUndoes
Redoes
EndRedoes
EndUndoRedoHistory
Fore
SplineSet
84 1446 m 1
 1119 1446 l 1
 1119 1281 l 1
 702 1281 l 1
 702 0 l 1
 501 0 l 1
 501 1281 l 1
 84 1281 l 1
 84 1446 l 1
EndSplineSet
EndChar

StartChar: U
Encoding: 85 85 33
Width: 1526
VWidth: 0
Flags: HW
PickledData: "(dp1
S'com.typemytype.robofont.guides'
p2
((dp3
S'angle'
p4
I0
sS'name'
p5
NsS'magnetic'
p6
I5
sS'isGlobal'
p7
I00
sS'y'
I446
sS'x'
I594
s(dp8
g4
I0
sg5
Nsg6
I5
sg7
I00
sS'y'
I468
sS'x'
I914
stp9
sS'com.typemytype.robofont.layerData'
p10
(dp11
S'b'
(dp12
g5
S'U'
sS'lib'
p13
(dp14
sS'unicodes'
p15
(tsS'width'
p16
I1526
sS'contours'
p17
(tsS'components'
p18
(tsS'anchors'
p19
(tsss."
LayerCount: 2
UndoRedoHistory
Layer: 1
Undoes
UndoOperation
Index: 0
Type: 1
WasModified: 0
WasOrder2: 0
Width: 1526
VWidth: 0
LBearingChange: 0
UnicodeEnc: 0
InstructionsLength: 0
SplineSet
202 473 m 2
 202 1446 l 1
 404 1446 l 1
 404 452 l 2
 404 186 572 132 773 132 c 0
 976 132 1122 186 1122 452 c 2
 1122 1446 l 1
 1324 1446 l 1
 1324 473 l 2
 1324 205 1226 -24 773 -24 c 0
 300 -24 202 202 202 473 c 2
EndSplineSet
EndUndoOperation
UndoOperation
Index: 1
Type: 1
WasModified: 1
WasOrder2: 0
Width: 1526
VWidth: 0
LBearingChange: 0
UnicodeEnc: 0
InstructionsLength: 0
SplineSet
202 473 m 2
 202 1446 l 1
 404 1446 l 1
 404 452 l 2
 404 186 572 132 773 132 c 0
 976 132 1122 186 1122 452 c 2
 1122 1446 l 1
 1324 1446 l 1
 1324 473 l 2
 1324 205 1226 -24 773 -24 c 0
 300 -24 202 202 202 473 c 2
EndSplineSet
EndUndoOperation
UndoOperation
Index: 2
Type: 1
WasModified: 0
WasOrder2: 0
Width: 1526
VWidth: 0
LBearingChange: 0
UnicodeEnc: 0
InstructionsLength: 0
SplineSet
202 473 m 2
 202 1446 l 1
 404 1446 l 1
 404 452 l 2
 404 186 572 132 773 132 c 0
 976 132 1122 186 1122 452 c 2
 1122 1446 l 1
 1324 1446 l 1
 1324 473 l 2
 1324 205 1226 -24 773 -24 c 0
 300 -24 202 202 202 473 c 2
EndSplineSet
EndUndoOperation
EndUndoes
Redoes
EndRedoes
EndUndoRedoHistory
Fore
SplineSet
202 473 m 2
 202 1446 l 1
 404 1446 l 1
 404 452 l 2
 404 186 572 132 773 132 c 0
 976 132 1122 186 1122 452 c 2
 1122 1446 l 1
 1324 1446 l 1
 1324 473 l 2
 1324 205 1226 -24 773 -24 c 0
 300 -24 202 202 202 473 c 2
EndSplineSet
EndChar

StartChar: V
Encoding: 86 86 34
Width: 1389
VWidth: 0
Flags: HW
PickledData: "(dp1
S'com.typemytype.robofont.layerData'
p2
(dp3
S'b'
(dp4
S'name'
p5
S'V'
sS'lib'
p6
(dp7
sS'unicodes'
p8
(tsS'width'
p9
I1389
sS'contours'
p10
(tsS'components'
p11
(tsS'anchors'
p12
(tsss."
LayerCount: 2
UndoRedoHistory
Layer: 1
Undoes
UndoOperation
Index: 0
Type: 1
WasModified: 0
WasOrder2: 0
Width: 1389
VWidth: 0
LBearingChange: 0
UnicodeEnc: 0
InstructionsLength: 0
SplineSet
92 1446 m 1
 299 1446 l 1
 697 294 l 1
 1095 1446 l 1
 1304 1446 l 1
 784 0 l 1
 607 0 l 1
 92 1446 l 1
EndSplineSet
EndUndoOperation
UndoOperation
Index: 1
Type: 1
WasModified: 1
WasOrder2: 0
Width: 1389
VWidth: 0
LBearingChange: 0
UnicodeEnc: 0
InstructionsLength: 0
SplineSet
92 1446 m 1
 299 1446 l 1
 697 294 l 1
 1095 1446 l 1
 1304 1446 l 1
 784 0 l 1
 607 0 l 1
 92 1446 l 1
EndSplineSet
EndUndoOperation
UndoOperation
Index: 2
Type: 1
WasModified: 0
WasOrder2: 0
Width: 1389
VWidth: 0
LBearingChange: 0
UnicodeEnc: 0
InstructionsLength: 0
SplineSet
92 1446 m 1
 299 1446 l 1
 697 294 l 1
 1095 1446 l 1
 1304 1446 l 1
 784 0 l 1
 607 0 l 1
 92 1446 l 1
EndSplineSet
EndUndoOperation
EndUndoes
Redoes
EndRedoes
EndUndoRedoHistory
Fore
SplineSet
92 1446 m 1
 299 1446 l 1
 697 294 l 1
 1095 1446 l 1
 1304 1446 l 1
 784 0 l 1
 607 0 l 1
 92 1446 l 1
EndSplineSet
EndChar

StartChar: W
Encoding: 87 87 35
Width: 1956
VWidth: 0
Flags: HW
PickledData: "(dp1
S'com.typemytype.robofont.layerData'
p2
(dp3
S'b'
(dp4
S'name'
p5
S'W'
sS'lib'
p6
(dp7
sS'unicodes'
p8
(tsS'width'
p9
I1956
sS'contours'
p10
(tsS'components'
p11
(tsS'anchors'
p12
(tsss."
LayerCount: 2
UndoRedoHistory
Layer: 1
Undoes
UndoOperation
Index: 0
Type: 1
WasModified: 0
WasOrder2: 0
Width: 1956
VWidth: 0
LBearingChange: 0
UnicodeEnc: 0
InstructionsLength: 0
SplineSet
112 1446 m 1
 289 1446 l 1
 571 346 l 1
 863 1446 l 1
 911 1446 l 1
 1037 1446 l 1
 1078 1446 l 1
 1384 346 l 1
 1662 1446 l 1
 1845 1446 l 1
 1464 0 l 1
 1312 0 l 1
 974.474874372 1217.11055276 l 1
 642 0 l 1
 490 0 l 1
 112 1446 l 1
EndSplineSet
EndUndoOperation
UndoOperation
Index: 1
Type: 1
WasModified: 1
WasOrder2: 0
Width: 1956
VWidth: 0
LBearingChange: 0
UnicodeEnc: 0
InstructionsLength: 0
SplineSet
112 1446 m 1
 289 1446 l 1
 571 346 l 1
 863 1446 l 1
 911 1446 l 1
 1037 1446 l 1
 1078 1446 l 1
 1384 346 l 1
 1662 1446 l 1
 1845 1446 l 1
 1464 0 l 1
 1312 0 l 1
 974.474874372 1217.11055276 l 1
 642 0 l 1
 490 0 l 1
 112 1446 l 1
EndSplineSet
EndUndoOperation
UndoOperation
Index: 2
Type: 1
WasModified: 0
WasOrder2: 0
Width: 1956
VWidth: 0
LBearingChange: 0
UnicodeEnc: 0
InstructionsLength: 0
SplineSet
911 1446 m 1
 1078 1446 l 1
 1384 346 l 1
 1662 1446 l 1
 1845 1446 l 1
 1464 0 l 1
 1312 0 l 1
 911 1446 l 1
112 1446 m 1
 289 1446 l 1
 571 346 l 1
 863 1446 l 1
 1037 1446 l 1
 642 0 l 1
 490 0 l 1
 112 1446 l 1
EndSplineSet
EndUndoOperation
EndUndoes
Redoes
EndRedoes
EndUndoRedoHistory
Fore
SplineSet
112 1446 m 1
 289 1446 l 1
 571 346 l 1
 863 1446 l 1
 911 1446 l 1
 1037 1446 l 1
 1078 1446 l 1
 1384 346 l 1
 1662 1446 l 1
 1845 1446 l 1
 1464 0 l 1
 1312 0 l 1
 974 1217 l 1
 642 0 l 1
 490 0 l 1
 112 1446 l 1
EndSplineSet
EndChar

StartChar: X
Encoding: 88 88 36
Width: 1334
VWidth: 0
Flags: HW
PickledData: "(dp1
S'com.typemytype.robofont.layerData'
p2
(dp3
S'b'
(dp4
S'name'
p5
S'X'
sS'lib'
p6
(dp7
sS'unicodes'
p8
(tsS'width'
p9
I1334
sS'contours'
p10
(tsS'components'
p11
(tsS'anchors'
p12
(tsss."
LayerCount: 2
UndoRedoHistory
Layer: 1
Undoes
UndoOperation
Index: 0
Type: 1
WasModified: 0
WasOrder2: 0
Width: 1334
VWidth: 0
LBearingChange: 0
UnicodeEnc: 0
InstructionsLength: 0
SplineSet
774.246070461 734.364227642 m 1
 1243 0 l 1
 1025 0 l 1
 668.250273224 568.127868852 l 1
 306 0 l 1
 110 0 l 1
 565.729684909 731.393034826 l 1
 117 1446 l 1
 320 1446 l 1
 669.667214912 898.200657895 l 1
 1011 1446 l 1
 1228 1446 l 1
 774.246070461 734.364227642 l 1
EndSplineSet
EndUndoOperation
UndoOperation
Index: 1
Type: 1
WasModified: 1
WasOrder2: 0
Width: 1334
VWidth: 0
LBearingChange: 0
UnicodeEnc: 0
InstructionsLength: 0
SplineSet
774.246070461 734.364227642 m 1
 1243 0 l 1
 1025 0 l 1
 668.250273224 568.127868852 l 1
 306 0 l 1
 110 0 l 1
 565.729684909 731.393034826 l 1
 117 1446 l 1
 320 1446 l 1
 669.667214912 898.200657895 l 1
 1011 1446 l 1
 1228 1446 l 1
 774.246070461 734.364227642 l 1
EndSplineSet
EndUndoOperation
UndoOperation
Index: 2
Type: 1
WasModified: 0
WasOrder2: 0
Width: 1334
VWidth: 0
LBearingChange: 0
UnicodeEnc: 0
InstructionsLength: 0
SplineSet
1025 0 m 1
 117 1446 l 1
 320 1446 l 1
 1243 0 l 1
 1025 0 l 1
1228 1446 m 1
 306 0 l 1
 110 0 l 1
 1011 1446 l 1
 1228 1446 l 1
EndSplineSet
EndUndoOperation
EndUndoes
Redoes
EndRedoes
EndUndoRedoHistory
Fore
SplineSet
774 734 m 1
 1243 0 l 1
 1025 0 l 1
 668 568 l 1
 306 0 l 1
 110 0 l 1
 566 731 l 1
 117 1446 l 1
 320 1446 l 1
 670 898 l 1
 1011 1446 l 1
 1228 1446 l 1
 774 734 l 1
EndSplineSet
EndChar

StartChar: Y
Encoding: 89 89 37
Width: 1318
VWidth: 0
Flags: HW
PickledData: "(dp1
S'com.typemytype.robofont.layerData'
p2
(dp3
S'b'
(dp4
S'name'
p5
S'Y'
sS'lib'
p6
(dp7
sS'unicodes'
p8
(tsS'width'
p9
I1318
sS'contours'
p10
(tsS'components'
p11
(tsS'anchors'
p12
(tsss."
LayerCount: 2
UndoRedoHistory
Layer: 1
Undoes
UndoOperation
Index: 0
Type: 1
WasModified: 0
WasOrder2: 0
Width: 1318
VWidth: 0
LBearingChange: 0
UnicodeEnc: 0
InstructionsLength: 0
SplineSet
65 1446 m 1
 266 1446 l 1
 673 744 l 1
 1066 1446 l 1
 1261 1446 l 1
 773 568 l 1
 773 0 l 1
 572 0 l 1
 572 568 l 1
 65 1446 l 1
EndSplineSet
EndUndoOperation
UndoOperation
Index: 1
Type: 1
WasModified: 1
WasOrder2: 0
Width: 1318
VWidth: 0
LBearingChange: 0
UnicodeEnc: 0
InstructionsLength: 0
SplineSet
65 1446 m 1
 266 1446 l 1
 673 744 l 1
 1066 1446 l 1
 1261 1446 l 1
 773 568 l 1
 773 0 l 1
 572 0 l 1
 572 568 l 1
 65 1446 l 1
EndSplineSet
EndUndoOperation
UndoOperation
Index: 2
Type: 1
WasModified: 0
WasOrder2: 0
Width: 1318
VWidth: 0
LBearingChange: 0
UnicodeEnc: 0
InstructionsLength: 0
SplineSet
65 1446 m 1
 266 1446 l 1
 673 744 l 1
 1066 1446 l 1
 1261 1446 l 1
 773 568 l 1
 773 0 l 1
 572 0 l 1
 572 568 l 1
 65 1446 l 1
EndSplineSet
EndUndoOperation
EndUndoes
Redoes
EndRedoes
EndUndoRedoHistory
Fore
SplineSet
65 1446 m 1
 266 1446 l 1
 673 744 l 1
 1066 1446 l 1
 1261 1446 l 1
 773 568 l 1
 773 0 l 1
 572 0 l 1
 572 568 l 1
 65 1446 l 1
EndSplineSet
EndChar

StartChar: Yacute
Encoding: 221 221 38
Width: 1093
VWidth: 0
Flags: HW
PickledData: "(dp1
S'com.typemytype.robofont.layerData'
p2
(dp3
S'b'
(dp4
S'name'
p5
S'Yacute'
p6
sS'lib'
p7
(dp8
sS'unicodes'
p9
(tsS'width'
p10
I1093
sS'contours'
p11
(tsS'components'
p12
(tsS'anchors'
p13
(tsss."
LayerCount: 2
UndoRedoHistory
Layer: 1
Undoes
UndoOperation
Index: 0
Type: 1
WasModified: 0
WasOrder2: 0
Width: 1093
VWidth: 0
LBearingChange: 0
UnicodeEnc: 0
InstructionsLength: 0
SplineSet
474 1848 m 1
 739 1848 l 1
 531 1529 l 1
 370 1529 l 1
 474 1848 l 1
0 1459 m 1
 327 1459 l 1
 545 833 l 1
 620 1003 706 1289 781 1459 c 1
 1093 1459 l 1
 624 504 l 1
 624 0 l 1
 313 0 l 1
 313 504 l 1
 0 1459 l 1
EndSplineSet
EndUndoOperation
UndoOperation
Index: 1
Type: 1
WasModified: 1
WasOrder2: 0
Width: 1093
VWidth: 0
LBearingChange: 0
UnicodeEnc: 0
InstructionsLength: 0
SplineSet
474 1848 m 1
 739 1848 l 1
 531 1529 l 1
 370 1529 l 1
 474 1848 l 1
0 1459 m 1
 327 1459 l 1
 545 833 l 1
 620 1003 706 1289 781 1459 c 1
 1093 1459 l 1
 624 504 l 1
 624 0 l 1
 313 0 l 1
 313 504 l 1
 0 1459 l 1
EndSplineSet
EndUndoOperation
UndoOperation
Index: 2
Type: 1
WasModified: 0
WasOrder2: 0
Width: 1093
VWidth: 0
LBearingChange: 0
UnicodeEnc: 0
InstructionsLength: 0
SplineSet
0 1459 m 1
 327 1459 l 1
 545 833 l 1
 620 1003 706 1289 781 1459 c 1
 1093 1459 l 1
 624 504 l 1
 624 0 l 1
 313 0 l 1
 313 504 l 1
 0 1459 l 1
474 1848 m 1
 739 1848 l 1
 531 1529 l 1
 370 1529 l 1
 474 1848 l 1
EndSplineSet
EndUndoOperation
EndUndoes
Redoes
EndRedoes
EndUndoRedoHistory
Fore
SplineSet
474 1848 m 1
 739 1848 l 1
 531 1529 l 1
 370 1529 l 1
 474 1848 l 1
0 1459 m 1
 327 1459 l 1
 545 833 l 1
 620 1003 706 1289 781 1459 c 1
 1093 1459 l 1
 624 504 l 1
 624 0 l 1
 313 0 l 1
 313 504 l 1
 0 1459 l 1
EndSplineSet
EndChar

StartChar: Ydieresis
Encoding: 376 376 39
Width: 1093
VWidth: 0
Flags: HW
PickledData: "(dp1
S'com.typemytype.robofont.layerData'
p2
(dp3
S'b'
(dp4
S'name'
p5
S'Ydieresis'
p6
sS'lib'
p7
(dp8
sS'unicodes'
p9
(tsS'width'
p10
I1093
sS'contours'
p11
(tsS'components'
p12
(tsS'anchors'
p13
(tsss."
LayerCount: 2
UndoRedoHistory
Layer: 1
Undoes
UndoOperation
Index: 0
Type: 1
WasModified: 0
WasOrder2: 0
Width: 1093
VWidth: 0
LBearingChange: 0
UnicodeEnc: 0
InstructionsLength: 0
SplineSet
643 1596 m 1
 643 1826 l 1
 910 1826 l 1
 910 1596 l 1
 643 1596 l 1
184 1596 m 1
 184 1826 l 1
 450 1826 l 1
 450 1596 l 1
 184 1596 l 1
0 1459 m 1
 327 1459 l 1
 545 833 l 1
 620 1003 706 1289 781 1459 c 1
 1093 1459 l 1
 624 504 l 1
 624 0 l 1
 313 0 l 1
 313 504 l 1
 0 1459 l 1
EndSplineSet
EndUndoOperation
UndoOperation
Index: 1
Type: 1
WasModified: 1
WasOrder2: 0
Width: 1093
VWidth: 0
LBearingChange: 0
UnicodeEnc: 0
InstructionsLength: 0
SplineSet
643 1596 m 1
 643 1826 l 1
 910 1826 l 1
 910 1596 l 1
 643 1596 l 1
184 1596 m 1
 184 1826 l 1
 450 1826 l 1
 450 1596 l 1
 184 1596 l 1
0 1459 m 1
 327 1459 l 1
 545 833 l 1
 620 1003 706 1289 781 1459 c 1
 1093 1459 l 1
 624 504 l 1
 624 0 l 1
 313 0 l 1
 313 504 l 1
 0 1459 l 1
EndSplineSet
EndUndoOperation
UndoOperation
Index: 2
Type: 1
WasModified: 0
WasOrder2: 0
Width: 1093
VWidth: 0
LBearingChange: 0
UnicodeEnc: 0
InstructionsLength: 0
SplineSet
0 1459 m 1
 327 1459 l 1
 545 833 l 1
 620 1003 706 1289 781 1459 c 1
 1093 1459 l 1
 624 504 l 1
 624 0 l 1
 313 0 l 1
 313 504 l 1
 0 1459 l 1
184 1596 m 1
 184 1826 l 1
 450 1826 l 1
 450 1596 l 1
 184 1596 l 1
643 1596 m 1
 643 1826 l 1
 910 1826 l 1
 910 1596 l 1
 643 1596 l 1
EndSplineSet
EndUndoOperation
EndUndoes
Redoes
EndRedoes
EndUndoRedoHistory
Fore
SplineSet
643 1596 m 1
 643 1826 l 1
 910 1826 l 1
 910 1596 l 1
 643 1596 l 1
184 1596 m 1
 184 1826 l 1
 450 1826 l 1
 450 1596 l 1
 184 1596 l 1
0 1459 m 1
 327 1459 l 1
 545 833 l 1
 620 1003 706 1289 781 1459 c 1
 1093 1459 l 1
 624 504 l 1
 624 0 l 1
 313 0 l 1
 313 504 l 1
 0 1459 l 1
EndSplineSet
EndChar

StartChar: Z
Encoding: 90 90 40
Width: 1253
VWidth: 0
Flags: HW
PickledData: "(dp1
S'com.typemytype.robofont.layerData'
p2
(dp3
S'b'
(dp4
S'name'
p5
S'Z'
sS'lib'
p6
(dp7
sS'unicodes'
p8
(tsS'width'
p9
I1253
sS'contours'
p10
(tsS'components'
p11
(tsS'anchors'
p12
(tsss."
LayerCount: 2
UndoRedoHistory
Layer: 1
Undoes
UndoOperation
Index: 0
Type: 1
WasModified: 0
WasOrder2: 0
Width: 1253
VWidth: 0
LBearingChange: 0
UnicodeEnc: 0
InstructionsLength: 0
SplineSet
211 1446 m 1
 1083 1446 l 1
 1083 1295 l 1
 403 165 l 1
 1095 165 l 1
 1095 0 l 1
 181 0 l 1
 181 150 l 1
 862 1281 l 1
 211 1281 l 1
 211 1446 l 1
EndSplineSet
EndUndoOperation
UndoOperation
Index: 1
Type: 1
WasModified: 1
WasOrder2: 0
Width: 1253
VWidth: 0
LBearingChange: 0
UnicodeEnc: 0
InstructionsLength: 0
SplineSet
211 1446 m 1
 1083 1446 l 1
 1083 1295 l 1
 403 165 l 1
 1095 165 l 1
 1095 0 l 1
 181 0 l 1
 181 150 l 1
 862 1281 l 1
 211 1281 l 1
 211 1446 l 1
EndSplineSet
EndUndoOperation
UndoOperation
Index: 2
Type: 1
WasModified: 0
WasOrder2: 0
Width: 1253
VWidth: 0
LBearingChange: 0
UnicodeEnc: 0
InstructionsLength: 0
SplineSet
211 1446 m 1
 1083 1446 l 1
 1083 1295 l 1
 403 165 l 1
 1095 165 l 1
 1095 0 l 1
 181 0 l 1
 181 150 l 1
 862 1281 l 1
 211 1281 l 1
 211 1446 l 1
EndSplineSet
EndUndoOperation
EndUndoes
Redoes
EndRedoes
EndUndoRedoHistory
Fore
SplineSet
211 1446 m 1
 1083 1446 l 1
 1083 1295 l 1
 403 165 l 1
 1095 165 l 1
 1095 0 l 1
 181 0 l 1
 181 150 l 1
 862 1281 l 1
 211 1281 l 1
 211 1446 l 1
EndSplineSet
EndChar

StartChar: Zcaron
Encoding: 381 381 41
Width: 955
VWidth: 0
Flags: HW
PickledData: "(dp1
S'com.typemytype.robofont.layerData'
p2
(dp3
S'b'
(dp4
S'name'
p5
S'Zcaron'
p6
sS'lib'
p7
(dp8
sS'unicodes'
p9
(tsS'width'
p10
I955
sS'contours'
p11
(tsS'components'
p12
(tsS'anchors'
p13
(tsss."
LayerCount: 2
UndoRedoHistory
Layer: 1
Undoes
UndoOperation
Index: 0
Type: 1
WasModified: 0
WasOrder2: 0
Width: 955
VWidth: 0
LBearingChange: 0
UnicodeEnc: 0
InstructionsLength: 0
SplineSet
150 1819 m 1
 378 1819 l 1
 476 1676 l 1
 578 1819 l 1
 806 1819 l 1
 646 1524 l 1
 308 1524 l 1
 150 1819 l 1
105 1459 m 1
 888 1459 l 1
 888 1279 l 1
 402 195 l 1
 888 195 l 1
 888 0 l 1
 62 0 l 1
 62 180 l 1
 546 1265 l 1
 105 1265 l 1
 105 1459 l 1
EndSplineSet
EndUndoOperation
UndoOperation
Index: 1
Type: 1
WasModified: 1
WasOrder2: 0
Width: 955
VWidth: 0
LBearingChange: 0
UnicodeEnc: 0
InstructionsLength: 0
SplineSet
150 1819 m 1
 378 1819 l 1
 476 1676 l 1
 578 1819 l 1
 806 1819 l 1
 646 1524 l 1
 308 1524 l 1
 150 1819 l 1
105 1459 m 1
 888 1459 l 1
 888 1279 l 1
 402 195 l 1
 888 195 l 1
 888 0 l 1
 62 0 l 1
 62 180 l 1
 546 1265 l 1
 105 1265 l 1
 105 1459 l 1
EndSplineSet
EndUndoOperation
UndoOperation
Index: 2
Type: 1
WasModified: 0
WasOrder2: 0
Width: 955
VWidth: 0
LBearingChange: 0
UnicodeEnc: 0
InstructionsLength: 0
SplineSet
105 1459 m 1
 888 1459 l 1
 888 1279 l 1
 402 195 l 1
 888 195 l 1
 888 0 l 1
 62 0 l 1
 62 180 l 1
 546 1265 l 1
 105 1265 l 1
 105 1459 l 1
150 1819 m 1
 378 1819 l 1
 476 1676 l 1
 578 1819 l 1
 806 1819 l 1
 646 1524 l 1
 308 1524 l 1
 150 1819 l 1
EndSplineSet
EndUndoOperation
EndUndoes
Redoes
EndRedoes
EndUndoRedoHistory
Fore
SplineSet
150 1819 m 1
 378 1819 l 1
 476 1676 l 1
 578 1819 l 1
 806 1819 l 1
 646 1524 l 1
 308 1524 l 1
 150 1819 l 1
105 1459 m 1
 888 1459 l 1
 888 1279 l 1
 402 195 l 1
 888 195 l 1
 888 0 l 1
 62 0 l 1
 62 180 l 1
 546 1265 l 1
 105 1265 l 1
 105 1459 l 1
EndSplineSet
EndChar

StartChar: a
Encoding: 97 97 42
Width: 1169
VWidth: 0
Flags: HW
PickledData: "(dp1
S'com.typemytype.robofont.layerData'
p2
(dp3
S'b'
(dp4
S'name'
p5
S'a'
sS'lib'
p6
(dp7
sS'unicodes'
p8
(tsS'width'
p9
I1169
sS'contours'
p10
(tsS'components'
p11
(tsS'anchors'
p12
(tsss."
LayerCount: 2
UndoRedoHistory
Layer: 1
Undoes
UndoOperation
Index: 0
Type: 1
WasModified: 0
WasOrder2: 0
Width: 1169
VWidth: 0
LBearingChange: 0
UnicodeEnc: 0
InstructionsLength: 0
SplineSet
790 273 m 1
 790 576 l 1
 761 547 699 512 563 477 c 0
 347 421 318 368 324 266 c 0
 330 160 406 113 509 113 c 0
 622 113 760 175 790 273 c 1
1109 128 m 1
 1109 -8 l 1
 1095 -10 1046 -12 1029 -12 c 0
 888 -12 843 42 811 142 c 1
 764 70 675 -20 480 -20 c 0
 255 -20 142 120 142 283 c 0
 142 423 202 514 548 597 c 0
 668 626 790 647 790 753 c 0
 790 830 787 940 595 940 c 0
 382 940 364 830 364 745 c 2
 364 718 l 1
 183 718 l 1
 183 746 l 2
 183 955 323 1080 601 1080 c 0
 881 1080 978 917 978 699 c 2
 978 268 l 2
 978 165 998 128 1109 128 c 1
EndSplineSet
EndUndoOperation
UndoOperation
Index: 1
Type: 1
WasModified: 1
WasOrder2: 0
Width: 1169
VWidth: 0
LBearingChange: 0
UnicodeEnc: 0
InstructionsLength: 0
SplineSet
790 273 m 1
 760 175 622 113 509 113 c 0
 406 113 330 160 324 266 c 0
 318 368 347 421 563 477 c 0
 699 512 761 547 790 576 c 1
 790 273 l 1
1109 128 m 1
 998 128 978 165 978 268 c 2
 978 699 l 2
 978 917 881 1080 601 1080 c 0
 323 1080 183 955 183 746 c 2
 183 718 l 1
 364 718 l 1
 364 745 l 2
 364 830 382 940 595 940 c 0
 787 940 790 830 790 753 c 0
 790 647 668 626 548 597 c 0
 202 514 142 423 142 283 c 0
 142 120 255 -20 480 -20 c 0
 675 -20 764 70 811 142 c 1
 843 42 888 -12 1029 -12 c 0
 1046 -12 1095 -10 1109 -8 c 1
 1109 128 l 1
EndSplineSet
EndUndoOperation
UndoOperation
Index: 2
Type: 1
WasModified: 0
WasOrder2: 0
Width: 1169
VWidth: 0
LBearingChange: 0
UnicodeEnc: 0
InstructionsLength: 0
SplineSet
1109 128 m 1
 998 128 978 165 978 268 c 2
 978 699 l 2
 978 917 881 1080 601 1080 c 0
 323 1080 183 955 183 746 c 2
 183 718 l 1
 364 718 l 1
 364 745 l 2
 364 830 382 940 595 940 c 0
 787 940 790 830 790 753 c 0
 790 647 668 626 548 597 c 0
 202 514 142 423 142 283 c 0
 142 120 255 -20 480 -20 c 0
 675 -20 764 70 811 142 c 1
 843 42 888 -12 1029 -12 c 0
 1046 -12 1095 -10 1109 -8 c 1
 1109 128 l 1
790 273 m 1
 760 175 622 113 509 113 c 0
 406 113 330 160 324 266 c 0
 318 368 347 421 563 477 c 0
 699 512 761 547 790 576 c 1
 790 273 l 1
EndSplineSet
EndUndoOperation
EndUndoes
Redoes
EndRedoes
EndUndoRedoHistory
Fore
SplineSet
790 273 m 1
 790 576 l 1
 761 547 699 512 563 477 c 0
 347 421 318 368 324 266 c 0
 330 160 406 113 509 113 c 0
 622 113 760 175 790 273 c 1
1109 128 m 1
 1109 -8 l 1
 1095 -10 1046 -12 1029 -12 c 0
 888 -12 843 42 811 142 c 1
 764 70 675 -20 480 -20 c 0
 255 -20 142 120 142 283 c 0
 142 423 202 514 548 597 c 0
 668 626 790 647 790 753 c 0
 790 830 787 940 595 940 c 0
 382 940 364 830 364 745 c 2
 364 718 l 1
 183 718 l 1
 183 746 l 2
 183 955 323 1080 601 1080 c 0
 881 1080 978 917 978 699 c 2
 978 268 l 2
 978 165 998 128 1109 128 c 1
EndSplineSet
EndChar

StartChar: acute
Encoding: 180 180 43
Width: 616
VWidth: 0
Flags: HW
PickledData: "(dp1
S'com.typemytype.robofont.layerData'
p2
(dp3
S'b'
(dp4
S'name'
p5
S'acute'
p6
sS'lib'
p7
(dp8
sS'unicodes'
p9
(tsS'width'
p10
I616
sS'contours'
p11
(tsS'components'
p12
(tsS'anchors'
p13
(tsss."
LayerCount: 2
UndoRedoHistory
Layer: 1
Undoes
UndoOperation
Index: 0
Type: 1
WasModified: 0
WasOrder2: 0
Width: 616
VWidth: 0
LBearingChange: 0
UnicodeEnc: 0
InstructionsLength: 0
SplineSet
115 1496 m 1
 340 1496 l 1
 478 1155 l 1
 372 1155 l 1
 115 1496 l 1
EndSplineSet
EndUndoOperation
UndoOperation
Index: 1
Type: 1
WasModified: 1
WasOrder2: 0
Width: 616
VWidth: 0
LBearingChange: 0
UnicodeEnc: 0
InstructionsLength: 0
SplineSet
115 1496 m 1
 340 1496 l 1
 478 1155 l 1
 372 1155 l 1
 115 1496 l 1
EndSplineSet
EndUndoOperation
UndoOperation
Index: 2
Type: 1
WasModified: 0
WasOrder2: 0
Width: 616
VWidth: 0
LBearingChange: 0
UnicodeEnc: 0
InstructionsLength: 0
SplineSet
115 1496 m 1
 340 1496 l 1
 478 1155 l 1
 372 1155 l 1
 115 1496 l 1
EndSplineSet
EndUndoOperation
EndUndoes
Redoes
EndRedoes
EndUndoRedoHistory
Fore
SplineSet
115 1496 m 1
 340 1496 l 1
 478 1155 l 1
 372 1155 l 1
 115 1496 l 1
EndSplineSet
EndChar

StartChar: aring
Encoding: 229 229 44
Width: 1143
VWidth: 0
Flags: HW
PickledData: "(dp1
S'com.typemytype.robofont.layerData'
p2
(dp3
S'b'
(dp4
S'name'
p5
S'aring'
p6
sS'lib'
p7
(dp8
sS'unicodes'
p9
(tsS'width'
p10
I1143
sS'contours'
p11
(tsS'components'
p12
(tsS'anchors'
p13
(tsss."
LayerCount: 2
UndoRedoHistory
Layer: 1
Undoes
UndoOperation
Index: 0
Type: 1
WasModified: 0
WasOrder2: 0
Width: 1143
VWidth: 0
LBearingChange: 0
UnicodeEnc: 0
InstructionsLength: 0
SplineSet
545 1210 m 0
 445 1210 350 1265 350 1388 c 0
 350 1511 445 1566 545 1566 c 0
 645 1566 739 1511 739 1388 c 0
 739 1265 645 1210 545 1210 c 0
545 1275 m 0
 602 1275 653 1300 653 1387 c 0
 653 1474 603 1501 545 1501 c 0
 489 1501 436 1476 436 1389 c 0
 436 1301 488 1275 545 1275 c 0
761 279 m 1
 761 589 l 1
 732 559 670 524 534 488 c 0
 318 431 289 376 295 272 c 0
 301 164 377 116 480 116 c 0
 593 116 731 179 761 279 c 1
1080 131 m 1
 1080 -8 l 1
 1066 -10 1017 -12 1000 -12 c 0
 859 -12 814 43 782 145 c 1
 735 71 646 -20 451 -20 c 0
 226 -20 113 122 113 289 c 0
 113 432 173 526 519 611 c 0
 639 641 761 662 761 770 c 0
 761 849 758 961 566 961 c 0
 353 961 335 849 335 762 c 2
 335 711 l 1
 154 711 l 1
 154 763 l 2
 154 977 294 1104 572 1104 c 0
 852 1104 949 938 949 715 c 2
 949 274 l 2
 949 169 969 131 1080 131 c 1
EndSplineSet
EndUndoOperation
UndoOperation
Index: 1
Type: 1
WasModified: 1
WasOrder2: 0
Width: 1143
VWidth: 0
LBearingChange: 0
UnicodeEnc: 0
InstructionsLength: 0
SplineSet
545 1210 m 0
 645 1210 739 1265 739 1388 c 0
 739 1511 645 1566 545 1566 c 0
 445 1566 350 1511 350 1388 c 0
 350 1265 445 1210 545 1210 c 0
545 1275 m 0
 488 1275 436 1301 436 1389 c 0
 436 1476 489 1501 545 1501 c 0
 603 1501 653 1474 653 1387 c 0
 653 1300 602 1275 545 1275 c 0
761 279 m 1
 731 179 593 116 480 116 c 0
 377 116 301 164 295 272 c 0
 289 376 318 431 534 488 c 0
 670 524 732 559 761 589 c 1
 761 279 l 1
1080 131 m 1
 969 131 949 169 949 274 c 2
 949 715 l 2
 949 938 852 1104 572 1104 c 0
 294 1104 154 977 154 763 c 2
 154 711 l 1
 335 711 l 1
 335 762 l 2
 335 849 353 961 566 961 c 0
 758 961 761 849 761 770 c 0
 761 662 639 641 519 611 c 0
 173 526 113 432 113 289 c 0
 113 122 226 -20 451 -20 c 0
 646 -20 735 71 782 145 c 1
 814 43 859 -12 1000 -12 c 0
 1017 -12 1066 -10 1080 -8 c 1
 1080 131 l 1
EndSplineSet
EndUndoOperation
UndoOperation
Index: 2
Type: 1
WasModified: 0
WasOrder2: 0
Width: 1143
VWidth: 0
LBearingChange: 0
UnicodeEnc: 0
InstructionsLength: 0
SplineSet
1080 131 m 1
 969 131 949 169 949 274 c 2
 949 715 l 2
 949 938 852 1104 572 1104 c 0
 294 1104 154 977 154 763 c 2
 154 711 l 1
 335 711 l 1
 335 762 l 2
 335 849 353 961 566 961 c 0
 758 961 761 849 761 770 c 0
 761 662 639 641 519 611 c 0
 173 526 113 432 113 289 c 0
 113 122 226 -20 451 -20 c 0
 646 -20 735 71 782 145 c 1
 814 43 859 -12 1000 -12 c 0
 1017 -12 1066 -10 1080 -8 c 1
 1080 131 l 1
761 279 m 1
 731 179 593 116 480 116 c 0
 377 116 301 164 295 272 c 0
 289 376 318 431 534 488 c 0
 670 524 732 559 761 589 c 1
 761 279 l 1
545 1275 m 0
 488 1275 436 1301 436 1389 c 0
 436 1476 489 1501 545 1501 c 0
 603 1501 653 1474 653 1387 c 0
 653 1300 602 1275 545 1275 c 0
545 1210 m 0
 645 1210 739 1265 739 1388 c 0
 739 1511 645 1566 545 1566 c 0
 445 1566 350 1511 350 1388 c 0
 350 1265 445 1210 545 1210 c 0
EndSplineSet
EndUndoOperation
EndUndoes
Redoes
EndRedoes
EndUndoRedoHistory
Fore
SplineSet
545 1210 m 0
 445 1210 350 1265 350 1388 c 0
 350 1511 445 1566 545 1566 c 0
 645 1566 739 1511 739 1388 c 0
 739 1265 645 1210 545 1210 c 0
545 1275 m 0
 602 1275 653 1300 653 1387 c 0
 653 1474 603 1501 545 1501 c 0
 489 1501 436 1476 436 1389 c 0
 436 1301 488 1275 545 1275 c 0
761 279 m 1
 761 589 l 1
 732 559 670 524 534 488 c 0
 318 431 289 376 295 272 c 0
 301 164 377 116 480 116 c 0
 593 116 731 179 761 279 c 1
1080 131 m 1
 1080 -8 l 1
 1066 -10 1017 -12 1000 -12 c 0
 859 -12 814 43 782 145 c 1
 735 71 646 -20 451 -20 c 0
 226 -20 113 122 113 289 c 0
 113 432 173 526 519 611 c 0
 639 641 761 662 761 770 c 0
 761 849 758 961 566 961 c 0
 353 961 335 849 335 762 c 2
 335 711 l 1
 154 711 l 1
 154 763 l 2
 154 977 294 1104 572 1104 c 0
 852 1104 949 938 949 715 c 2
 949 274 l 2
 949 169 969 131 1080 131 c 1
EndSplineSet
EndChar

StartChar: asciicircum
Encoding: 94 94 45
Width: 1257
VWidth: 0
Flags: HW
PickledData: "(dp1
S'com.typemytype.robofont.layerData'
p2
(dp3
S'b'
(dp4
S'name'
p5
S'asciicircum'
p6
sS'lib'
p7
(dp8
sS'unicodes'
p9
(tsS'width'
p10
I1257
sS'contours'
p11
(tsS'components'
p12
(tsS'anchors'
p13
(tsss."
LayerCount: 2
UndoRedoHistory
Layer: 1
Undoes
UndoOperation
Index: 0
Type: 1
WasModified: 0
WasOrder2: 0
Width: 1257
VWidth: 0
LBearingChange: 0
UnicodeEnc: 0
InstructionsLength: 0
SplineSet
735 1283 m 1
 1103 626 l 1
 910 626 l 1
 628 1161 l 1
 348 626 l 1
 154 626 l 1
 513 1283 l 1
 735 1283 l 1
EndSplineSet
EndUndoOperation
UndoOperation
Index: 1
Type: 1
WasModified: 1
WasOrder2: 0
Width: 1257
VWidth: 0
LBearingChange: 0
UnicodeEnc: 0
InstructionsLength: 0
SplineSet
735 1283 m 1
 1103 626 l 1
 910 626 l 1
 628 1161 l 1
 348 626 l 1
 154 626 l 1
 513 1283 l 1
 735 1283 l 1
EndSplineSet
EndUndoOperation
UndoOperation
Index: 2
Type: 1
WasModified: 0
WasOrder2: 0
Width: 1257
VWidth: 0
LBearingChange: 0
UnicodeEnc: 0
InstructionsLength: 0
SplineSet
735 1283 m 1
 1103 626 l 1
 910 626 l 1
 628 1161 l 1
 348 626 l 1
 154 626 l 1
 513 1283 l 1
 735 1283 l 1
EndSplineSet
EndUndoOperation
EndUndoes
Redoes
EndRedoes
EndUndoRedoHistory
Fore
SplineSet
735 1283 m 1
 1103 626 l 1
 910 626 l 1
 628 1161 l 1
 348 626 l 1
 154 626 l 1
 513 1283 l 1
 735 1283 l 1
EndSplineSet
EndChar

StartChar: asterisk
Encoding: 42 42 46
Width: 1132
VWidth: 0
Flags: HW
PickledData: "(dp1
S'com.typemytype.robofont.layerData'
p2
(dp3
S'b'
(dp4
S'name'
p5
S'asterisk'
p6
sS'lib'
p7
(dp8
sS'unicodes'
p9
(tsS'width'
p10
I1132
sS'contours'
p11
(tsS'components'
p12
(tsS'anchors'
p13
(tsss."
LayerCount: 2
UndoRedoHistory
Layer: 1
Undoes
UndoOperation
Index: 0
Type: 1
WasModified: 0
WasOrder2: 0
Width: 1132
VWidth: 0
LBearingChange: 0
UnicodeEnc: 0
InstructionsLength: 0
SplineSet
477 1446 m 1
 655 1446 l 1
 625.030246587 1120.94344375 l 1
 898 1295 l 1
 979 1134 l 1
 688.417549168 1017.02193646 l 1
 968 875 l 1
 873 722 l 1
 626.220262476 911.887402825 l 1
 655 599 l 1
 477 599 l 1
 506.142286991 924.166570638 l 1
 233 750 l 1
 153 911 l 1
 442.695314668 1027.92073111 l 1
 163 1170 l 1
 258 1323 l 1
 505.132470574 1132.84118282 l 1
 477 1446 l 1
EndSplineSet
EndUndoOperation
UndoOperation
Index: 1
Type: 1
WasModified: 1
WasOrder2: 0
Width: 1132
VWidth: 0
LBearingChange: 0
UnicodeEnc: 0
InstructionsLength: 0
SplineSet
477 1446 m 1
 655 1446 l 1
 625.030246587 1120.94344375 l 1
 898 1295 l 1
 979 1134 l 1
 688.417549168 1017.02193646 l 1
 968 875 l 1
 873 722 l 1
 626.220262476 911.887402825 l 1
 655 599 l 1
 477 599 l 1
 506.142286991 924.166570638 l 1
 233 750 l 1
 153 911 l 1
 442.695314668 1027.92073111 l 1
 163 1170 l 1
 258 1323 l 1
 505.132470574 1132.84118282 l 1
 477 1446 l 1
EndSplineSet
EndUndoOperation
UndoOperation
Index: 2
Type: 1
WasModified: 0
WasOrder2: 0
Width: 1132
VWidth: 0
LBearingChange: 0
UnicodeEnc: 0
InstructionsLength: 0
SplineSet
898 1295 m 1
 979 1134 l 1
 589 977 l 1
 542 1068 l 1
 898 1295 l 1
233 750 m 1
 153 911 l 1
 542 1068 l 1
 589 977 l 1
 233 750 l 1
968 875 m 1
 873 722 l 1
 539 979 l 1
 592 1066 l 1
 968 875 l 1
163 1170 m 1
 258 1323 l 1
 592 1066 l 1
 539 979 l 1
 163 1170 l 1
655 599 m 1
 477 599 l 1
 515 1023 l 1
 616 1023 l 1
 655 599 l 1
477 1446 m 1
 655 1446 l 1
 616 1023 l 1
 515 1023 l 1
 477 1446 l 1
EndSplineSet
EndUndoOperation
EndUndoes
Redoes
EndRedoes
EndUndoRedoHistory
Fore
SplineSet
477 1446 m 1
 655 1446 l 1
 625 1121 l 1
 898 1295 l 1
 979 1134 l 1
 688 1017 l 1
 968 875 l 1
 873 722 l 1
 626 912 l 1
 655 599 l 1
 477 599 l 1
 506 924 l 1
 233 750 l 1
 153 911 l 1
 443 1028 l 1
 163 1170 l 1
 258 1323 l 1
 505 1133 l 1
 477 1446 l 1
EndSplineSet
EndChar

StartChar: b
Encoding: 98 98 47
Width: 1194
VWidth: 0
Flags: HW
PickledData: "(dp1
S'com.typemytype.robofont.layerData'
p2
(dp3
S'b'
(dp4
S'name'
p5
S'b'
sS'lib'
p6
(dp7
sS'unicodes'
p8
(tsS'width'
p9
I1194
sS'contours'
p10
(tsS'components'
p11
(tsS'anchors'
p12
(tsss."
LayerCount: 2
UndoRedoHistory
Layer: 1
Undoes
UndoOperation
Index: 0
Type: 1
WasModified: 0
WasOrder2: 0
Width: 1194
VWidth: 0
LBearingChange: 0
UnicodeEnc: 0
InstructionsLength: 0
SplineSet
316 0 m 1
 177 0 l 1
 177 1446 l 1
 365 1446 l 1
 365 1014.32042052 l 1
 432.942942051 1053.14179785 539.971608341 1084 639 1084 c 0
 910 1084 1044 940 1044 736 c 2
 1044 352 l 2
 1044 139 891 -16 615 -16 c 0
 489.01491091 -16 395.647100555 36.3001193523 339.957271852 70.8939677252 c 1
 316 0 l 1
365 873.64237443 m 1
 365 187.839641743 l 1
 420.347446018 156.764402892 497.664241381 125 587 125 c 0
 735 125 856 202 856 332 c 2
 856 750 l 2
 856 877 768 942 630 942 c 0
 542.190701528 942 435.105220811 905.807984356 365 873.64237443 c 1
EndSplineSet
EndUndoOperation
UndoOperation
Index: 1
Type: 1
WasModified: 1
WasOrder2: 0
Width: 1194
VWidth: 0
LBearingChange: 0
UnicodeEnc: 0
InstructionsLength: 0
SplineSet
316 0 m 1
 177 0 l 1
 177 1446 l 1
 365 1446 l 1
 365 1014.32042052 l 1
 432.942942051 1053.14179785 539.971608341 1084 639 1084 c 0
 910 1084 1044 940 1044 736 c 2
 1044 352 l 2
 1044 139 891 -16 615 -16 c 0
 489.01491091 -16 395.647100555 36.3001193523 339.957271852 70.8939677252 c 1
 316 0 l 1
365 873.64237443 m 1
 365 187.839641743 l 1
 420.347446018 156.764402892 497.664241381 125 587 125 c 0
 735 125 856 202 856 332 c 2
 856 750 l 2
 856 877 768 942 630 942 c 0
 542.190701528 942 435.105220811 905.807984356 365 873.64237443 c 1
EndSplineSet
EndUndoOperation
UndoOperation
Index: 2
Type: 1
WasModified: 0
WasOrder2: 0
Width: 1194
VWidth: 0
LBearingChange: 0
UnicodeEnc: 0
InstructionsLength: 0
SplineSet
297 97 m 1
 277 246 l 1
 295 236 420 125 587 125 c 0
 735 125 856 202 856 332 c 2
 856 750 l 2
 856 877 768 942 630 942 c 0
 490 942 301 850 291 829 c 1
 313 975 l 1
 363 1030 508 1084 639 1084 c 0
 910 1084 1044 940 1044 736 c 2
 1044 352 l 2
 1044 139 891 -16 615 -16 c 0
 447 -16 337 77 297 97 c 1
316 0 m 1
 177 0 l 1
 177 1446 l 1
 365 1446 l 1
 365 145 l 1
 316 0 l 1
EndSplineSet
EndUndoOperation
EndUndoes
Redoes
EndRedoes
EndUndoRedoHistory
Fore
SplineSet
316 0 m 1
 177 0 l 1
 177 1446 l 1
 365 1446 l 1
 365 1014 l 1
 433 1053 540 1084 639 1084 c 0
 910 1084 1044 940 1044 736 c 2
 1044 352 l 2
 1044 139 891 -16 615 -16 c 0
 489 -16 396 36 340 71 c 1
 316 0 l 1
365 874 m 1
 365 188 l 1
 420 157 498 125 587 125 c 0
 735 125 856 202 856 332 c 2
 856 750 l 2
 856 877 768 942 630 942 c 0
 542 942 435 906 365 874 c 1
EndSplineSet
EndChar

StartChar: backslash
Encoding: 92 92 48
Width: 979
VWidth: 0
Flags: HW
PickledData: "(dp1
S'com.typemytype.robofont.layerData'
p2
(dp3
S'b'
(dp4
S'name'
p5
S'backslash'
p6
sS'lib'
p7
(dp8
sS'unicodes'
p9
(tsS'width'
p10
I979
sS'contours'
p11
(tsS'components'
p12
(tsS'anchors'
p13
(tsss."
LayerCount: 2
UndoRedoHistory
Layer: 1
Undoes
UndoOperation
Index: 0
Type: 1
WasModified: 0
WasOrder2: 0
Width: 979
VWidth: 0
LBearingChange: 0
UnicodeEnc: 0
InstructionsLength: 0
SplineSet
665 1446 m 1
 858 1446 l 1
 320 0 l 1
 125 0 l 1
 665 1446 l 1
EndSplineSet
EndUndoOperation
UndoOperation
Index: 1
Type: 1
WasModified: 1
WasOrder2: 0
Width: 979
VWidth: 0
LBearingChange: 0
UnicodeEnc: 0
InstructionsLength: 0
SplineSet
665 1446 m 1
 858 1446 l 1
 320 0 l 1
 125 0 l 1
 665 1446 l 1
EndSplineSet
EndUndoOperation
UndoOperation
Index: 2
Type: 1
WasModified: 0
WasOrder2: 0
Width: 979
VWidth: 0
LBearingChange: 0
UnicodeEnc: 0
InstructionsLength: 0
SplineSet
665 1446 m 1
 858 1446 l 1
 320 0 l 1
 125 0 l 1
 665 1446 l 1
EndSplineSet
EndUndoOperation
EndUndoes
Redoes
EndRedoes
EndUndoRedoHistory
Fore
SplineSet
665 1446 m 1
 858 1446 l 1
 320 0 l 1
 125 0 l 1
 665 1446 l 1
EndSplineSet
EndChar

StartChar: bar
Encoding: 124 124 49
Width: 666
VWidth: 0
Flags: HW
PickledData: "(dp1
S'com.typemytype.robofont.layerData'
p2
(dp3
S'b'
(dp4
S'name'
p5
S'bar'
p6
sS'lib'
p7
(dp8
sS'unicodes'
p9
(tsS'width'
p10
I666
sS'contours'
p11
(tsS'components'
p12
(tsS'anchors'
p13
(tsss."
LayerCount: 2
UndoRedoHistory
Layer: 1
Undoes
UndoOperation
Index: 0
Type: 1
WasModified: 0
WasOrder2: 0
Width: 666
VWidth: 0
LBearingChange: 0
UnicodeEnc: 0
InstructionsLength: 0
SplineSet
432 1555 m 1
 432 -167 l 1
 254 -167 l 1
 254 1555 l 1
 432 1555 l 1
EndSplineSet
EndUndoOperation
UndoOperation
Index: 1
Type: 1
WasModified: 1
WasOrder2: 0
Width: 666
VWidth: 0
LBearingChange: 0
UnicodeEnc: 0
InstructionsLength: 0
SplineSet
432 1555 m 1
 432 -167 l 1
 254 -167 l 1
 254 1555 l 1
 432 1555 l 1
EndSplineSet
EndUndoOperation
UndoOperation
Index: 2
Type: 1
WasModified: 0
WasOrder2: 0
Width: 666
VWidth: 0
LBearingChange: 0
UnicodeEnc: 0
InstructionsLength: 0
SplineSet
432 1555 m 1
 432 -167 l 1
 254 -167 l 1
 254 1555 l 1
 432 1555 l 1
EndSplineSet
EndUndoOperation
EndUndoes
Redoes
EndRedoes
EndUndoRedoHistory
Fore
SplineSet
432 1555 m 1
 432 -167 l 1
 254 -167 l 1
 254 1555 l 1
 432 1555 l 1
EndSplineSet
EndChar

StartChar: bracketleft
Encoding: 91 91 50
Width: 827
VWidth: 0
Flags: HW
PickledData: "(dp1
S'com.typemytype.robofont.layerData'
p2
(dp3
S'b'
(dp4
S'name'
p5
S'bracketleft'
p6
sS'lib'
p7
(dp8
sS'unicodes'
p9
(tsS'width'
p10
I827
sS'contours'
p11
(tsS'components'
p12
(tsS'anchors'
p13
(tsss."
LayerCount: 2
UndoRedoHistory
Layer: 1
Undoes
UndoOperation
Index: 0
Type: 1
WasModified: 0
WasOrder2: 0
Width: 827
VWidth: 0
LBearingChange: 0
UnicodeEnc: 0
InstructionsLength: 0
SplineSet
455 58 m 1
 645 58 l 1
 645 -76 l 1
 224 -76 l 1
 224 1529 l 1
 645 1529 l 1
 645 1396 l 1
 455 1396 l 1
 455 58 l 1
EndSplineSet
EndUndoOperation
UndoOperation
Index: 1
Type: 1
WasModified: 1
WasOrder2: 0
Width: 827
VWidth: 0
LBearingChange: 0
UnicodeEnc: 0
InstructionsLength: 0
SplineSet
455 58 m 1
 645 58 l 1
 645 -76 l 1
 224 -76 l 1
 224 1529 l 1
 645 1529 l 1
 645 1396 l 1
 455 1396 l 1
 455 58 l 1
EndSplineSet
EndUndoOperation
UndoOperation
Index: 2
Type: 1
WasModified: 0
WasOrder2: 0
Width: 827
VWidth: 0
LBearingChange: 0
UnicodeEnc: 0
InstructionsLength: 0
SplineSet
455 58 m 1
 645 58 l 1
 645 -76 l 1
 224 -76 l 1
 224 1529 l 1
 645 1529 l 1
 645 1396 l 1
 455 1396 l 1
 455 58 l 1
EndSplineSet
EndUndoOperation
EndUndoes
Redoes
EndRedoes
EndUndoRedoHistory
Fore
SplineSet
455 58 m 1
 645 58 l 1
 645 -76 l 1
 224 -76 l 1
 224 1529 l 1
 645 1529 l 1
 645 1396 l 1
 455 1396 l 1
 455 58 l 1
EndSplineSet
EndChar

StartChar: bracketright
Encoding: 93 93 51
Width: 804
VWidth: 0
Flags: HW
PickledData: "(dp1
S'com.typemytype.robofont.layerData'
p2
(dp3
S'b'
(dp4
S'name'
p5
S'bracketright'
p6
sS'lib'
p7
(dp8
sS'unicodes'
p9
(tsS'width'
p10
I804
sS'contours'
p11
(tsS'components'
p12
(tsS'anchors'
p13
(tsss."
LayerCount: 2
UndoRedoHistory
Layer: 1
Undoes
UndoOperation
Index: 0
Type: 1
WasModified: 0
WasOrder2: 0
Width: 804
VWidth: 0
LBearingChange: 0
UnicodeEnc: 0
InstructionsLength: 0
SplineSet
182 1496 m 1
 580 1496 l 1
 580 -76 l 1
 182 -76 l 1
 182 38 l 1
 369 38 l 1
 369 1382 l 1
 182 1382 l 1
 182 1496 l 1
EndSplineSet
EndUndoOperation
UndoOperation
Index: 1
Type: 1
WasModified: 1
WasOrder2: 0
Width: 804
VWidth: 0
LBearingChange: 0
UnicodeEnc: 0
InstructionsLength: 0
SplineSet
182 1496 m 1
 580 1496 l 1
 580 -76 l 1
 182 -76 l 1
 182 38 l 1
 369 38 l 1
 369 1382 l 1
 182 1382 l 1
 182 1496 l 1
EndSplineSet
EndUndoOperation
UndoOperation
Index: 2
Type: 1
WasModified: 0
WasOrder2: 0
Width: 804
VWidth: 0
LBearingChange: 0
UnicodeEnc: 0
InstructionsLength: 0
SplineSet
182 1496 m 1
 580 1496 l 1
 580 -76 l 1
 182 -76 l 1
 182 38 l 1
 369 38 l 1
 369 1382 l 1
 182 1382 l 1
 182 1496 l 1
EndSplineSet
EndUndoOperation
EndUndoes
Redoes
EndRedoes
EndUndoRedoHistory
Fore
SplineSet
182 1496 m 1
 580 1496 l 1
 580 -76 l 1
 182 -76 l 1
 182 38 l 1
 369 38 l 1
 369 1382 l 1
 182 1382 l 1
 182 1496 l 1
EndSplineSet
EndChar

StartChar: breve
Encoding: 728 728 52
Width: 676
VWidth: 0
Flags: HW
PickledData: "(dp1
S'com.typemytype.robofont.layerData'
p2
(dp3
S'b'
(dp4
S'name'
p5
S'breve'
p6
sS'lib'
p7
(dp8
sS'unicodes'
p9
(tsS'width'
p10
I676
sS'contours'
p11
(tsS'components'
p12
(tsS'anchors'
p13
(tsss."
LayerCount: 2
UndoRedoHistory
Layer: 1
Undoes
UndoOperation
Index: 0
Type: 1
WasModified: 0
WasOrder2: 0
Width: 676
VWidth: 0
LBearingChange: 0
UnicodeEnc: 0
InstructionsLength: 0
SplineSet
121 1377 m 1
 256 1377 l 1
 257 1337 276 1281 327 1281 c 0
 379 1281 398 1336 398 1377 c 1
 534 1377 l 1
 534 1262 449 1185 327 1185 c 0
 206 1185 121 1262 121 1377 c 1
EndSplineSet
EndUndoOperation
UndoOperation
Index: 1
Type: 1
WasModified: 1
WasOrder2: 0
Width: 676
VWidth: 0
LBearingChange: 0
UnicodeEnc: 0
InstructionsLength: 0
SplineSet
121 1377 m 1
 256 1377 l 1
 257 1337 276 1281 327 1281 c 0
 379 1281 398 1336 398 1377 c 1
 534 1377 l 1
 534 1262 449 1185 327 1185 c 0
 206 1185 121 1262 121 1377 c 1
EndSplineSet
EndUndoOperation
UndoOperation
Index: 2
Type: 1
WasModified: 0
WasOrder2: 0
Width: 676
VWidth: 0
LBearingChange: 0
UnicodeEnc: 0
InstructionsLength: 0
SplineSet
121 1377 m 1
 256 1377 l 1
 257 1337 276 1281 327 1281 c 0
 379 1281 398 1336 398 1377 c 1
 534 1377 l 1
 534 1262 449 1185 327 1185 c 0
 206 1185 121 1262 121 1377 c 1
EndSplineSet
EndUndoOperation
EndUndoes
Redoes
EndRedoes
EndUndoRedoHistory
Fore
SplineSet
121 1377 m 1
 256 1377 l 1
 257 1337 276 1281 327 1281 c 0
 379 1281 398 1336 398 1377 c 1
 534 1377 l 1
 534 1262 449 1185 327 1185 c 0
 206 1185 121 1262 121 1377 c 1
EndSplineSet
EndChar

StartChar: brokenbar
Encoding: 166 166 53
Width: 674
VWidth: 0
Flags: HW
PickledData: "(dp1
S'com.typemytype.robofont.layerData'
p2
(dp3
S'b'
(dp4
S'name'
p5
S'brokenbar'
p6
sS'lib'
p7
(dp8
sS'unicodes'
p9
(tsS'width'
p10
I674
sS'contours'
p11
((dp12
S'points'
p13
((dp14
S'segmentType'
p15
S'line'
p16
sS'x'
F432
sS'smooth'
p17
I00
sS'y'
F1555
s(dp18
g15
S'line'
p19
sS'x'
F432
sg17
I00
sS'y'
F-167
s(dp20
g15
S'line'
p21
sS'x'
F254
sg17
I00
sS'y'
F-167
s(dp22
g15
S'line'
p23
sS'x'
F254
sg17
I00
sS'y'
F1555
stp24
stp25
sS'components'
p26
(tsS'anchors'
p27
(tsss."
LayerCount: 2
UndoRedoHistory
Layer: 1
Undoes
UndoOperation
Index: 0
Type: 1
WasModified: 0
WasOrder2: 0
Width: 674
VWidth: 0
LBearingChange: 0
UnicodeEnc: 0
InstructionsLength: 0
SplineSet
432 513 m 1
 432 -167 l 1
 254 -167 l 1
 254 513 l 1
 432 513 l 1
432 1555 m 1
 432 848 l 1
 254 848 l 1
 254 1555 l 1
 432 1555 l 1
EndSplineSet
EndUndoOperation
UndoOperation
Index: 1
Type: 1
WasModified: 1
WasOrder2: 0
Width: 674
VWidth: 0
LBearingChange: 0
UnicodeEnc: 0
InstructionsLength: 0
SplineSet
432 513 m 1
 432 -167 l 1
 254 -167 l 1
 254 513 l 1
 432 513 l 1
432 1555 m 1
 432 848 l 1
 254 848 l 1
 254 1555 l 1
 432 1555 l 1
EndSplineSet
EndUndoOperation
UndoOperation
Index: 2
Type: 1
WasModified: 0
WasOrder2: 0
Width: 674
VWidth: 0
LBearingChange: 0
UnicodeEnc: 0
InstructionsLength: 0
SplineSet
432 1555 m 1
 432 848 l 1
 254 848 l 1
 254 1555 l 1
 432 1555 l 1
432 513 m 1
 432 -167 l 1
 254 -167 l 1
 254 513 l 1
 432 513 l 1
EndSplineSet
EndUndoOperation
EndUndoes
Redoes
EndRedoes
EndUndoRedoHistory
Fore
SplineSet
432 513 m 1
 432 -167 l 1
 254 -167 l 1
 254 513 l 1
 432 513 l 1
432 1555 m 1
 432 848 l 1
 254 848 l 1
 254 1555 l 1
 432 1555 l 1
EndSplineSet
EndChar

StartChar: bullet
Encoding: 8226 8226 54
Width: 975
VWidth: 0
Flags: HW
PickledData: "(dp1
S'com.typemytype.robofont.layerData'
p2
(dp3
S'b'
(dp4
S'name'
p5
S'bullet'
p6
sS'lib'
p7
(dp8
sS'unicodes'
p9
(tsS'width'
p10
I975
sS'contours'
p11
(tsS'components'
p12
(tsS'anchors'
p13
(tsss."
LayerCount: 2
UndoRedoHistory
Layer: 1
Undoes
UndoOperation
Index: 0
Type: 1
WasModified: 0
WasOrder2: 0
Width: 975
VWidth: 0
LBearingChange: 0
UnicodeEnc: 0
InstructionsLength: 0
SplineSet
180 599 m 0
 180 795 262 901 487 901 c 0
 714 901 795 795 795 599 c 0
 795 405 713 298 486 298 c 0
 260 298 180 404 180 599 c 0
EndSplineSet
EndUndoOperation
UndoOperation
Index: 1
Type: 1
WasModified: 1
WasOrder2: 0
Width: 975
VWidth: 0
LBearingChange: 0
UnicodeEnc: 0
InstructionsLength: 0
SplineSet
180 599 m 0
 180 795 262 901 487 901 c 0
 714 901 795 795 795 599 c 0
 795 405 713 298 486 298 c 0
 260 298 180 404 180 599 c 0
EndSplineSet
EndUndoOperation
UndoOperation
Index: 2
Type: 1
WasModified: 0
WasOrder2: 0
Width: 975
VWidth: 0
LBearingChange: 0
UnicodeEnc: 0
InstructionsLength: 0
SplineSet
180 599 m 0
 180 795 262 901 487 901 c 0
 714 901 795 795 795 599 c 0
 795 405 713 298 486 298 c 0
 260 298 180 404 180 599 c 0
EndSplineSet
EndUndoOperation
EndUndoes
Redoes
EndRedoes
EndUndoRedoHistory
Fore
SplineSet
180 599 m 0
 180 795 262 901 487 901 c 0
 714 901 795 795 795 599 c 0
 795 405 713 298 486 298 c 0
 260 298 180 404 180 599 c 0
EndSplineSet
EndChar

StartChar: c
Encoding: 99 99 55
Width: 1130
VWidth: 0
Flags: HW
PickledData: "(dp1
S'com.typemytype.robofont.layerData'
p2
(dp3
S'b'
(dp4
S'name'
p5
S'c'
sS'lib'
p6
(dp7
sS'unicodes'
p8
(tsS'width'
p9
I1130
sS'contours'
p10
(tsS'components'
p11
(tsS'anchors'
p12
(tsss."
LayerCount: 2
UndoRedoHistory
Layer: 1
Undoes
UndoOperation
Index: 0
Type: 1
WasModified: 0
WasOrder2: 0
Width: 1130
VWidth: 0
LBearingChange: 0
UnicodeEnc: 0
InstructionsLength: 0
SplineSet
828 679 m 1
 828 774 l 2
 828 899 732 938 587 938 c 0
 441 938 337 888 337 757 c 2
 337 308 l 2
 337 166 440 121 587 121 c 0
 726 121 828 153 828 283 c 2
 828 356 l 1
 1010 356 l 1
 1010 289 l 2
 1010 94 916 -20 587 -20 c 0
 271 -20 150 118 150 314 c 2
 150 751 l 2
 150 951 324 1080 587 1080 c 0
 850 1080 1010 981 1010 768 c 2
 1010 679 l 1
 828 679 l 1
EndSplineSet
EndUndoOperation
UndoOperation
Index: 1
Type: 1
WasModified: 1
WasOrder2: 0
Width: 1130
VWidth: 0
LBearingChange: 0
UnicodeEnc: 0
InstructionsLength: 0
SplineSet
828 679 m 1
 828 774 l 2
 828 899 732 938 587 938 c 0
 441 938 337 888 337 757 c 2
 337 308 l 2
 337 166 440 121 587 121 c 0
 726 121 828 153 828 283 c 2
 828 356 l 1
 1010 356 l 1
 1010 289 l 2
 1010 94 916 -20 587 -20 c 0
 271 -20 150 118 150 314 c 2
 150 751 l 2
 150 951 324 1080 587 1080 c 0
 850 1080 1010 981 1010 768 c 2
 1010 679 l 1
 828 679 l 1
EndSplineSet
EndUndoOperation
UndoOperation
Index: 2
Type: 1
WasModified: 0
WasOrder2: 0
Width: 1130
VWidth: 0
LBearingChange: 0
UnicodeEnc: 0
InstructionsLength: 0
SplineSet
828 679 m 1
 828 774 l 2
 828 899 732 938 587 938 c 0
 441 938 337 888 337 757 c 2
 337 308 l 2
 337 166 440 121 587 121 c 0
 726 121 828 153 828 283 c 2
 828 356 l 1
 1010 356 l 1
 1010 289 l 2
 1010 94 916 -20 587 -20 c 0
 271 -20 150 118 150 314 c 2
 150 751 l 2
 150 951 324 1080 587 1080 c 0
 850 1080 1010 981 1010 768 c 2
 1010 679 l 1
 828 679 l 1
EndSplineSet
EndUndoOperation
EndUndoes
Redoes
EndRedoes
EndUndoRedoHistory
Fore
SplineSet
828 679 m 1
 828 774 l 2
 828 899 732 938 587 938 c 0
 441 938 337 888 337 757 c 2
 337 308 l 2
 337 166 440 121 587 121 c 0
 726 121 828 153 828 283 c 2
 828 356 l 1
 1010 356 l 1
 1010 289 l 2
 1010 94 916 -20 587 -20 c 0
 271 -20 150 118 150 314 c 2
 150 751 l 2
 150 951 324 1080 587 1080 c 0
 850 1080 1010 981 1010 768 c 2
 1010 679 l 1
 828 679 l 1
EndSplineSet
EndChar

StartChar: caron
Encoding: 711 711 56
Width: 901
VWidth: 0
Flags: HW
PickledData: "(dp1
S'com.typemytype.robofont.layerData'
p2
(dp3
S'b'
(dp4
S'name'
p5
S'caron'
p6
sS'lib'
p7
(dp8
sS'unicodes'
p9
(tsS'width'
p10
I901
sS'contours'
p11
(tsS'components'
p12
(tsS'anchors'
p13
(tsss."
LayerCount: 2
UndoRedoHistory
Layer: 1
Undoes
UndoOperation
Index: 0
Type: 1
WasModified: 0
WasOrder2: 0
Width: 901
VWidth: 0
LBearingChange: 0
UnicodeEnc: 0
InstructionsLength: 0
SplineSet
380 1416 m 1
 530 1416 l 1
 736 1150 l 1
 580 1150 l 1
 456 1324 l 1
 324 1150 l 1
 163 1150 l 1
 380 1416 l 1
EndSplineSet
EndUndoOperation
UndoOperation
Index: 1
Type: 1
WasModified: 1
WasOrder2: 0
Width: 901
VWidth: 0
LBearingChange: 0
UnicodeEnc: 0
InstructionsLength: 0
SplineSet
380 1416 m 1
 530 1416 l 1
 736 1150 l 1
 580 1150 l 1
 456 1324 l 1
 324 1150 l 1
 163 1150 l 1
 380 1416 l 1
EndSplineSet
EndUndoOperation
UndoOperation
Index: 2
Type: 1
WasModified: 0
WasOrder2: 0
Width: 901
VWidth: 0
LBearingChange: 0
UnicodeEnc: 0
InstructionsLength: 0
SplineSet
380 1416 m 1
 530 1416 l 1
 736 1150 l 1
 580 1150 l 1
 456 1324 l 1
 324 1150 l 1
 163 1150 l 1
 380 1416 l 1
EndSplineSet
EndUndoOperation
EndUndoes
Redoes
EndRedoes
EndUndoRedoHistory
Fore
SplineSet
380 1416 m 1
 530 1416 l 1
 736 1150 l 1
 580 1150 l 1
 456 1324 l 1
 324 1150 l 1
 163 1150 l 1
 380 1416 l 1
EndSplineSet
EndChar

StartChar: cedilla
Encoding: 184 184 58
Width: 579
VWidth: 0
Flags: HW
PickledData: "(dp1
S'com.typemytype.robofont.layerData'
p2
(dp3
S'b'
(dp4
S'name'
p5
S'cedilla'
p6
sS'lib'
p7
(dp8
sS'unicodes'
p9
(tsS'width'
p10
I579
sS'contours'
p11
(tsS'components'
p12
(tsS'anchors'
p13
(tsss."
LayerCount: 2
UndoRedoHistory
Layer: 1
Undoes
UndoOperation
Index: 0
Type: 1
WasModified: 0
WasOrder2: 0
Width: 579
VWidth: 0
LBearingChange: 0
UnicodeEnc: 0
InstructionsLength: 0
SplineSet
282 0 m 1
 288 -94 l 1
 435 -120 509 -214 509 -303 c 0
 509 -397 427 -486 262 -486 c 0
 234 -486 203 -484 169 -478 c 1
 169 -382 l 1
 195 -387 219 -389 240 -389 c 0
 338 -389 380 -342 380 -290 c 0
 380 -229 320 -161 220 -158 c 1
 220 0 l 1
 282 0 l 1
EndSplineSet
EndUndoOperation
UndoOperation
Index: 1
Type: 1
WasModified: 1
WasOrder2: 0
Width: 579
VWidth: 0
LBearingChange: 0
UnicodeEnc: 0
InstructionsLength: 0
SplineSet
282 0 m 1
 288 -94 l 1
 435 -120 509 -214 509 -303 c 0
 509 -397 427 -486 262 -486 c 0
 234 -486 203 -484 169 -478 c 1
 169 -382 l 1
 195 -387 219 -389 240 -389 c 0
 338 -389 380 -342 380 -290 c 0
 380 -229 320 -161 220 -158 c 1
 220 0 l 1
 282 0 l 1
EndSplineSet
EndUndoOperation
UndoOperation
Index: 2
Type: 1
WasModified: 0
WasOrder2: 0
Width: 579
VWidth: 0
LBearingChange: 0
UnicodeEnc: 0
InstructionsLength: 0
SplineSet
282 0 m 1
 288 -94 l 1
 435 -120 509 -214 509 -303 c 0
 509 -397 427 -486 262 -486 c 0
 234 -486 203 -484 169 -478 c 1
 169 -382 l 1
 195 -387 219 -389 240 -389 c 0
 338 -389 380 -342 380 -290 c 0
 380 -229 320 -161 220 -158 c 1
 220 0 l 1
 282 0 l 1
EndSplineSet
EndUndoOperation
EndUndoes
Redoes
EndRedoes
EndUndoRedoHistory
Fore
SplineSet
282 0 m 1
 288 -94 l 1
 435 -120 509 -214 509 -303 c 0
 509 -397 427 -486 262 -486 c 0
 234 -486 203 -484 169 -478 c 1
 169 -382 l 1
 195 -387 219 -389 240 -389 c 0
 338 -389 380 -342 380 -290 c 0
 380 -229 320 -161 220 -158 c 1
 220 0 l 1
 282 0 l 1
EndSplineSet
EndChar

StartChar: cent
Encoding: 162 162 59
Width: 1098
VWidth: 0
Flags: HW
PickledData: "(dp1
S'com.typemytype.robofont.layerData'
p2
(dp3
S'b'
(dp4
S'name'
p5
S'cent'
p6
sS'lib'
p7
(dp8
sS'unicodes'
p9
(tsS'width'
p10
I1098
sS'contours'
p11
(tsS'components'
p12
(tsS'anchors'
p13
(tsss."
LayerCount: 2
UndoRedoHistory
Layer: 1
Undoes
UndoOperation
Index: 0
Type: 1
WasModified: 0
WasOrder2: 0
Width: 1098
VWidth: 0
LBearingChange: 0
UnicodeEnc: 0
InstructionsLength: 0
SplineSet
809 694 m 1
 809 792 l 2
 809 920 710 959 565 959 c 0
 419 959 315 908 315 774 c 2
 315 315 l 2
 315 170 418 124 565 124 c 0
 704 124 809 156 809 289 c 2
 809 364 l 1
 991 364 l 1
 991 309 l 2
 991 125.337877511 908.376273376 0.449333753383 637 -17.7111273613 c 1
 637 -205 l 1
 500 -205 l 1
 500 -17.8550423413 l 1
 232.268429347 0.525580748747 128 135.341974955 128 321 c 2
 128 768 l 2
 128 955.598137628 273.71309116 1081.22633993 500 1101.20297647 c 1
 500 1275 l 1
 637 1275 l 1
 637 1100.91391838 l 1
 857.420756838 1081.28653164 991 968.347750621 991 771 c 2
 991 694 l 1
 809 694 l 1
EndSplineSet
EndUndoOperation
UndoOperation
Index: 1
Type: 1
WasModified: 1
WasOrder2: 0
Width: 1098
VWidth: 0
LBearingChange: 0
UnicodeEnc: 0
InstructionsLength: 0
SplineSet
809 694 m 1
 809 792 l 2
 809 920 710 959 565 959 c 0
 419 959 315 908 315 774 c 2
 315 315 l 2
 315 170 418 124 565 124 c 0
 704 124 809 156 809 289 c 2
 809 364 l 1
 991 364 l 1
 991 309 l 2
 991 125.337877511 908.376273376 0.449333753383 637 -17.7111273613 c 1
 637 -205 l 1
 500 -205 l 1
 500 -17.8550423413 l 1
 232.268429347 0.525580748747 128 135.341974955 128 321 c 2
 128 768 l 2
 128 955.598137628 273.71309116 1081.22633993 500 1101.20297647 c 1
 500 1275 l 1
 637 1275 l 1
 637 1100.91391838 l 1
 857.420756838 1081.28653164 991 968.347750621 991 771 c 2
 991 694 l 1
 809 694 l 1
EndSplineSet
EndUndoOperation
UndoOperation
Index: 2
Type: 1
WasModified: 0
WasOrder2: 0
Width: 1098
VWidth: 0
LBearingChange: 0
UnicodeEnc: 0
InstructionsLength: 0
SplineSet
637 2 m 1
 637 -205 l 1
 500 -205 l 1
 500 2 l 1
 637 2 l 1
500 1275 m 1
 637 1275 l 1
 637 1068 l 1
 500 1068 l 1
 500 1275 l 1
809 694 m 1
 809 792 l 2
 809 920 710 959 565 959 c 0
 419 959 315 908 315 774 c 2
 315 315 l 2
 315 170 418 124 565 124 c 0
 704 124 809 156 809 289 c 2
 809 364 l 1
 991 364 l 1
 991 309 l 2
 991 110 894 -20 565 -20 c 0
 249 -20 128 121 128 321 c 2
 128 768 l 2
 128 973 302 1104 565 1104 c 0
 828 1104 991 989 991 771 c 2
 991 694 l 1
 809 694 l 1
EndSplineSet
EndUndoOperation
EndUndoes
Redoes
EndRedoes
EndUndoRedoHistory
Fore
SplineSet
809 694 m 1
 809 792 l 2
 809 920 710 959 565 959 c 0
 419 959 315 908 315 774 c 2
 315 315 l 2
 315 170 418 124 565 124 c 0
 704 124 809 156 809 289 c 2
 809 364 l 1
 991 364 l 1
 991 309 l 2
 991 125 908 0 637 -18 c 1
 637 -205 l 1
 500 -205 l 1
 500 -18 l 1
 232 0 128 135 128 321 c 2
 128 768 l 2
 128 956 274 1081 500 1101 c 1
 500 1275 l 1
 637 1275 l 1
 637 1101 l 1
 857 1081 991 968 991 771 c 2
 991 694 l 1
 809 694 l 1
EndSplineSet
EndChar

StartChar: circumflex
Encoding: 710 710 60
Width: 901
VWidth: 0
Flags: HW
PickledData: "(dp1
S'com.typemytype.robofont.layerData'
p2
(dp3
S'b'
(dp4
S'name'
p5
S'circumflex'
p6
sS'lib'
p7
(dp8
sS'unicodes'
p9
(tsS'width'
p10
I901
sS'contours'
p11
(tsS'components'
p12
(tsS'anchors'
p13
(tsss."
LayerCount: 2
UndoRedoHistory
Layer: 1
Undoes
UndoOperation
Index: 0
Type: 1
WasModified: 0
WasOrder2: 0
Width: 901
VWidth: 0
LBearingChange: 0
UnicodeEnc: 0
InstructionsLength: 0
SplineSet
534 1780 m 1
 684 1780 l 1
 890 1514 l 1
 734 1514 l 1
 610 1688 l 1
 478 1514 l 1
 317 1514 l 1
 534 1780 l 1
EndSplineSet
EndUndoOperation
UndoOperation
Index: 1
Type: 1
WasModified: 1
WasOrder2: 0
Width: 901
VWidth: 0
LBearingChange: 0
UnicodeEnc: 0
InstructionsLength: 0
SplineSet
534 1780 m 1
 684 1780 l 1
 890 1514 l 1
 734 1514 l 1
 610 1688 l 1
 478 1514 l 1
 317 1514 l 1
 534 1780 l 1
EndSplineSet
EndUndoOperation
UndoOperation
Index: 2
Type: 1
WasModified: 0
WasOrder2: 0
Width: 901
VWidth: 0
LBearingChange: 0
UnicodeEnc: 0
InstructionsLength: 0
SplineSet
534 1780 m 1
 684 1780 l 1
 890 1514 l 1
 734 1514 l 1
 610 1688 l 1
 478 1514 l 1
 317 1514 l 1
 534 1780 l 1
EndSplineSet
EndUndoOperation
EndUndoes
Redoes
EndRedoes
EndUndoRedoHistory
Fore
SplineSet
534 1780 m 1
 684 1780 l 1
 890 1514 l 1
 734 1514 l 1
 610 1688 l 1
 478 1514 l 1
 317 1514 l 1
 534 1780 l 1
EndSplineSet
EndChar

StartChar: colon
Encoding: 58 58 61
Width: 567
VWidth: 0
Flags: HW
PickledData: "(dp1
S'com.typemytype.robofont.layerData'
p2
(dp3
S'b'
(dp4
S'name'
p5
S'colon'
p6
sS'lib'
p7
(dp8
sS'unicodes'
p9
(tsS'width'
p10
I567
sS'contours'
p11
(tsS'components'
p12
(tsS'anchors'
p13
(tsss."
LayerCount: 2
UndoRedoHistory
Layer: 1
Undoes
UndoOperation
Index: 0
Type: 1
WasModified: 0
WasOrder2: 0
Width: 567
VWidth: 0
LBearingChange: 0
UnicodeEnc: 0
InstructionsLength: 0
SplineSet
164 353 m 1
 415 353 l 1
 415 99 l 1
 164 99 l 1
 164 353 l 1
164 1023 m 1
 415 1023 l 1
 415 768 l 1
 164 768 l 1
 164 1023 l 1
EndSplineSet
EndUndoOperation
UndoOperation
Index: 1
Type: 1
WasModified: 1
WasOrder2: 0
Width: 567
VWidth: 0
LBearingChange: 0
UnicodeEnc: 0
InstructionsLength: 0
SplineSet
164 353 m 1
 415 353 l 1
 415 99 l 1
 164 99 l 1
 164 353 l 1
164 1023 m 1
 415 1023 l 1
 415 768 l 1
 164 768 l 1
 164 1023 l 1
EndSplineSet
EndUndoOperation
UndoOperation
Index: 2
Type: 1
WasModified: 0
WasOrder2: 0
Width: 567
VWidth: 0
LBearingChange: 0
UnicodeEnc: 0
InstructionsLength: 0
SplineSet
164 1023 m 1
 415 1023 l 1
 415 768 l 1
 164 768 l 1
 164 1023 l 1
164 353 m 1
 415 353 l 1
 415 99 l 1
 164 99 l 1
 164 353 l 1
EndSplineSet
EndUndoOperation
EndUndoes
Redoes
EndRedoes
EndUndoRedoHistory
Fore
SplineSet
164 353 m 1
 415 353 l 1
 415 99 l 1
 164 99 l 1
 164 353 l 1
164 1023 m 1
 415 1023 l 1
 415 768 l 1
 164 768 l 1
 164 1023 l 1
EndSplineSet
EndChar

StartChar: comma
Encoding: 44 44 62
Width: 495
VWidth: 0
Flags: HW
PickledData: "(dp1
S'com.typemytype.robofont.layerData'
p2
(dp3
S'b'
(dp4
S'name'
p5
S'comma'
p6
sS'lib'
p7
(dp8
sS'unicodes'
p9
(tsS'width'
p10
I495
sS'contours'
p11
(tsS'components'
p12
(tsS'anchors'
p13
(tsss."
LayerCount: 2
UndoRedoHistory
Layer: 1
Undoes
UndoOperation
Index: 0
Type: 1
WasModified: 0
WasOrder2: 0
Width: 495
VWidth: 0
LBearingChange: 0
UnicodeEnc: 0
InstructionsLength: 0
SplineSet
135 211 m 1
 369 211 l 1
 369 50 l 2
 369 -141 278 -284 220 -338 c 1
 139 -294 l 1
 186 -239 253 -132 253 0 c 1
 135 0 l 1
 135 211 l 1
EndSplineSet
EndUndoOperation
UndoOperation
Index: 1
Type: 1
WasModified: 1
WasOrder2: 0
Width: 495
VWidth: 0
LBearingChange: 0
UnicodeEnc: 0
InstructionsLength: 0
SplineSet
135 211 m 1
 135 0 l 1
 253 0 l 1
 253 -132 186 -239 139 -294 c 1
 220 -338 l 1
 278 -284 369 -141 369 50 c 2
 369 211 l 1
 135 211 l 1
EndSplineSet
EndUndoOperation
UndoOperation
Index: 2
Type: 1
WasModified: 0
WasOrder2: 0
Width: 495
VWidth: 0
LBearingChange: 0
UnicodeEnc: 0
InstructionsLength: 0
SplineSet
135 211 m 1
 135 0 l 1
 253 0 l 1
 253 -132 186 -239 139 -294 c 1
 220 -338 l 1
 278 -284 369 -141 369 50 c 2
 369 211 l 1
 135 211 l 1
EndSplineSet
EndUndoOperation
EndUndoes
Redoes
EndRedoes
EndUndoRedoHistory
Fore
SplineSet
135 211 m 1
 369 211 l 1
 369 50 l 2
 369 -141 278 -284 220 -338 c 1
 139 -294 l 1
 186 -239 253 -132 253 0 c 1
 135 0 l 1
 135 211 l 1
EndSplineSet
EndChar

StartChar: copyright
Encoding: 169 169 63
Width: 1865
VWidth: 0
Flags: HW
PickledData: "(dp1
S'com.typemytype.robofont.layerData'
p2
(dp3
S'b'
(dp4
S'name'
p5
S'copyright'
p6
sS'lib'
p7
(dp8
sS'unicodes'
p9
(tsS'width'
p10
I1865
sS'contours'
p11
(tsS'components'
p12
(tsS'anchors'
p13
(tsss."
LayerCount: 2
UndoRedoHistory
Layer: 1
Undoes
UndoOperation
Index: 0
Type: 1
WasModified: 0
WasOrder2: 0
Width: 1865
VWidth: 0
LBearingChange: 0
UnicodeEnc: 0
InstructionsLength: 0
SplineSet
1152 836 m 1
 1152 890 l 2
 1152 1042 1094 1091 942 1091 c 0
 791 1091 711 1042 711 890 c 2
 711 571 l 2
 711 419 791 376 943 376 c 0
 1096 376 1152 419 1152 571 c 2
 1152 632 l 1
 1268 632 l 1
 1268 598 l 2
 1268 422 1219 287 943 287 c 0
 656 287 591 411 591 590 c 2
 591 868 l 2
 591 1050 654 1182 942 1182 c 0
 1219 1182 1268 1043 1268 861 c 2
 1268 836 l 1
 1152 836 l 1
932 -14 m 0
 519 -14 176 303 176 722 c 0
 176 1139 519 1456 932 1456 c 0
 1348 1456 1689 1139 1689 722 c 0
 1689 303 1348 -14 932 -14 c 0
934 82 m 0
 1300 82 1583 357 1583 722 c 0
 1583 1086 1300 1361 934 1361 c 0
 570 1361 285 1086 285 722 c 0
 285 357 570 82 934 82 c 0
EndSplineSet
EndUndoOperation
UndoOperation
Index: 1
Type: 1
WasModified: 1
WasOrder2: 0
Width: 1865
VWidth: 0
LBearingChange: 0
UnicodeEnc: 0
InstructionsLength: 0
SplineSet
1152 836 m 1
 1268 836 l 1
 1268 861 l 2
 1268 1043 1219 1182 942 1182 c 0
 654 1182 591 1050 591 868 c 2
 591 590 l 2
 591 411 656 287 943 287 c 0
 1219 287 1268 422 1268 598 c 2
 1268 632 l 1
 1152 632 l 1
 1152 571 l 2
 1152 419 1096 376 943 376 c 0
 791 376 711 419 711 571 c 2
 711 890 l 2
 711 1042 791 1091 942 1091 c 0
 1094 1091 1152 1042 1152 890 c 2
 1152 836 l 1
932 -14 m 0
 1348 -14 1689 303 1689 722 c 0
 1689 1139 1348 1456 932 1456 c 0
 519 1456 176 1139 176 722 c 0
 176 303 519 -14 932 -14 c 0
934 82 m 0
 570 82 285 357 285 722 c 0
 285 1086 570 1361 934 1361 c 0
 1300 1361 1583 1086 1583 722 c 0
 1583 357 1300 82 934 82 c 0
EndSplineSet
EndUndoOperation
UndoOperation
Index: 2
Type: 1
WasModified: 0
WasOrder2: 0
Width: 1865
VWidth: 0
LBearingChange: 0
UnicodeEnc: 0
InstructionsLength: 0
SplineSet
934 82 m 0
 570 82 285 357 285 722 c 0
 285 1086 570 1361 934 1361 c 0
 1300 1361 1583 1086 1583 722 c 0
 1583 357 1300 82 934 82 c 0
932 -14 m 0
 1348 -14 1689 303 1689 722 c 0
 1689 1139 1348 1456 932 1456 c 0
 519 1456 176 1139 176 722 c 0
 176 303 519 -14 932 -14 c 0
1152 836 m 1
 1268 836 l 1
 1268 861 l 2
 1268 1043 1219 1182 942 1182 c 0
 654 1182 591 1050 591 868 c 2
 591 590 l 2
 591 411 656 287 943 287 c 0
 1219 287 1268 422 1268 598 c 2
 1268 632 l 1
 1152 632 l 1
 1152 571 l 2
 1152 419 1096 376 943 376 c 0
 791 376 711 419 711 571 c 2
 711 890 l 2
 711 1042 791 1091 942 1091 c 0
 1094 1091 1152 1042 1152 890 c 2
 1152 836 l 1
EndSplineSet
EndUndoOperation
EndUndoes
Redoes
EndRedoes
EndUndoRedoHistory
Fore
SplineSet
1152 836 m 1
 1152 890 l 2
 1152 1042 1094 1091 942 1091 c 0
 791 1091 711 1042 711 890 c 2
 711 571 l 2
 711 419 791 376 943 376 c 0
 1096 376 1152 419 1152 571 c 2
 1152 632 l 1
 1268 632 l 1
 1268 598 l 2
 1268 422 1219 287 943 287 c 0
 656 287 591 411 591 590 c 2
 591 868 l 2
 591 1050 654 1182 942 1182 c 0
 1219 1182 1268 1043 1268 861 c 2
 1268 836 l 1
 1152 836 l 1
932 -14 m 0
 519 -14 176 303 176 722 c 0
 176 1139 519 1456 932 1456 c 0
 1348 1456 1689 1139 1689 722 c 0
 1689 303 1348 -14 932 -14 c 0
934 82 m 0
 1300 82 1583 357 1583 722 c 0
 1583 1086 1300 1361 934 1361 c 0
 570 1361 285 1086 285 722 c 0
 285 357 570 82 934 82 c 0
EndSplineSet
EndChar

StartChar: d
Encoding: 100 100 64
Width: 1192
VWidth: 0
Flags: HW
PickledData: "(dp1
S'com.typemytype.robofont.layerData'
p2
(dp3
S'b'
(dp4
S'name'
p5
S'd'
sS'lib'
p6
(dp7
sS'unicodes'
p8
(tsS'width'
p9
I1192
sS'contours'
p10
(tsS'components'
p11
(tsS'anchors'
p12
(tsss."
LayerCount: 2
UndoRedoHistory
Layer: 1
Undoes
UndoOperation
Index: 0
Type: 1
WasModified: 0
WasOrder2: 0
Width: 1192
VWidth: 0
LBearingChange: 0
UnicodeEnc: 0
InstructionsLength: 0
SplineSet
827 1446 m 1
 1015 1446 l 1
 1015 0 l 1
 887 0 l 1
 855.731218873 60.9741231979 l 1
 793.961671825 16.7081935196 678.635679757 -16 570 -16 c 0
 265 -16 150 124 150 328 c 2
 150 735 l 2
 150 948 295 1084 603 1084 c 0
 669.880755249 1084 760.537933355 1067.89339097 827 1043.75458957 c 1
 827 1446 l 1
827 188.718512533 m 1
 827 895.912775036 l 1
 771.448703222 923.243132528 693.094002044 943 605 943 c 0
 457 943 338 886 338 756 c 2
 338 314 l 2
 338 187 444 126 582 126 c 0
 689.072293474 126 783.861219773 162.265179278 827 188.718512533 c 1
EndSplineSet
EndUndoOperation
UndoOperation
Index: 1
Type: 1
WasModified: 1
WasOrder2: 0
Width: 1192
VWidth: 0
LBearingChange: 0
UnicodeEnc: 0
InstructionsLength: 0
SplineSet
827 1446 m 1
 1015 1446 l 1
 1015 0 l 1
 887 0 l 1
 855.731218873 60.9741231979 l 1
 793.961671825 16.7081935196 678.635679757 -16 570 -16 c 0
 265 -16 150 124 150 328 c 2
 150 735 l 2
 150 948 295 1084 603 1084 c 0
 669.880755249 1084 760.537933355 1067.89339097 827 1043.75458957 c 1
 827 1446 l 1
827 188.718512533 m 1
 827 895.912775036 l 1
 771.448703222 923.243132528 693.094002044 943 605 943 c 0
 457 943 338 886 338 756 c 2
 338 314 l 2
 338 187 444 126 582 126 c 0
 689.072293474 126 783.861219773 162.265179278 827 188.718512533 c 1
EndSplineSet
EndUndoOperation
UndoOperation
Index: 2
Type: 1
WasModified: 0
WasOrder2: 0
Width: 1192
VWidth: 0
LBearingChange: 0
UnicodeEnc: 0
InstructionsLength: 0
SplineSet
911 992 m 1
 905 951 924 811 912 813 c 1
 904 872 772 943 605 943 c 0
 457 943 338 886 338 756 c 2
 338 314 l 2
 338 187 444 126 582 126 c 0
 722 126 841 188 851 209 c 1
 881 83 l 1
 831 28 696 -16 570 -16 c 0
 265 -16 150 124 150 328 c 2
 150 735 l 2
 150 948 295 1084 603 1084 c 0
 711 1084 881 1042 911 992 c 1
827 1446 m 1
 1015 1446 l 1
 1015 0 l 1
 887 0 l 1
 827 117 l 1
 827 1446 l 1
EndSplineSet
EndUndoOperation
EndUndoes
Redoes
EndRedoes
EndUndoRedoHistory
Fore
SplineSet
827 1446 m 1
 1015 1446 l 1
 1015 0 l 1
 887 0 l 1
 856 61 l 1
 794 17 679 -16 570 -16 c 0
 265 -16 150 124 150 328 c 2
 150 735 l 2
 150 948 295 1084 603 1084 c 0
 670 1084 761 1068 827 1044 c 1
 827 1446 l 1
827 189 m 1
 827 896 l 1
 771 923 693 943 605 943 c 0
 457 943 338 886 338 756 c 2
 338 314 l 2
 338 187 444 126 582 126 c 0
 689 126 784 163 827 189 c 1
EndSplineSet
EndChar

StartChar: dagger
Encoding: 8224 8224 65
Width: 890
VWidth: 0
Flags: HW
PickledData: "(dp1
S'com.typemytype.robofont.layerData'
p2
(dp3
S'b'
(dp4
S'name'
p5
S'dagger'
p6
sS'lib'
p7
(dp8
sS'unicodes'
p9
(tsS'width'
p10
I890
sS'contours'
p11
(tsS'components'
p12
(tsS'anchors'
p13
(tsss."
LayerCount: 2
UndoRedoHistory
Layer: 1
Undoes
UndoOperation
Index: 0
Type: 1
WasModified: 0
WasOrder2: 0
Width: 890
VWidth: 0
LBearingChange: 0
UnicodeEnc: 0
InstructionsLength: 0
SplineSet
348 1446 m 1
 536 1446 l 1
 536 1060 l 1
 802 1060 l 1
 802 931 l 1
 536 931 l 1
 536 0 l 1
 348 0 l 1
 348 931 l 1
 88 931 l 1
 88 1060 l 1
 348 1060 l 1
 348 1446 l 1
EndSplineSet
EndUndoOperation
UndoOperation
Index: 1
Type: 1
WasModified: 1
WasOrder2: 0
Width: 890
VWidth: 0
LBearingChange: 0
UnicodeEnc: 0
InstructionsLength: 0
SplineSet
348 1446 m 1
 536 1446 l 1
 536 1060 l 1
 802 1060 l 1
 802 931 l 1
 536 931 l 1
 536 0 l 1
 348 0 l 1
 348 931 l 1
 88 931 l 1
 88 1060 l 1
 348 1060 l 1
 348 1446 l 1
EndSplineSet
EndUndoOperation
UndoOperation
Index: 2
Type: 1
WasModified: 0
WasOrder2: 0
Width: 890
VWidth: 0
LBearingChange: 0
UnicodeEnc: 0
InstructionsLength: 0
SplineSet
348 1446 m 1
 536 1446 l 1
 536 1060 l 1
 802 1060 l 1
 802 931 l 1
 536 931 l 1
 536 0 l 1
 348 0 l 1
 348 931 l 1
 88 931 l 1
 88 1060 l 1
 348 1060 l 1
 348 1446 l 1
EndSplineSet
EndUndoOperation
EndUndoes
Redoes
EndRedoes
EndUndoRedoHistory
Fore
SplineSet
348 1446 m 1
 536 1446 l 1
 536 1060 l 1
 802 1060 l 1
 802 931 l 1
 536 931 l 1
 536 0 l 1
 348 0 l 1
 348 931 l 1
 88 931 l 1
 88 1060 l 1
 348 1060 l 1
 348 1446 l 1
EndSplineSet
EndChar

StartChar: daggerdbl
Encoding: 8225 8225 66
Width: 938
VWidth: 0
Flags: HW
PickledData: "(dp1
S'com.typemytype.robofont.layerData'
p2
(dp3
S'b'
(dp4
S'name'
p5
S'daggerdbl'
p6
sS'lib'
p7
(dp8
sS'unicodes'
p9
(tsS'width'
p10
I938
sS'contours'
p11
(tsS'components'
p12
(tsS'anchors'
p13
(tsss."
LayerCount: 2
UndoRedoHistory
Layer: 1
Undoes
UndoOperation
Index: 0
Type: 1
WasModified: 0
WasOrder2: 0
Width: 938
VWidth: 0
LBearingChange: 0
UnicodeEnc: 0
InstructionsLength: 0
SplineSet
372 0 m 1
 372 409 l 1
 112 409 l 1
 112 538 l 1
 372 538 l 1
 372 931 l 1
 112 931 l 1
 112 1060 l 1
 372 1060 l 1
 372 1446 l 1
 560 1446 l 1
 560 1060 l 1
 826 1060 l 1
 826 931 l 1
 560 931 l 1
 560 538 l 1
 826 538 l 1
 826 409 l 1
 560 409 l 1
 560 0 l 1
 372 0 l 1
EndSplineSet
EndUndoOperation
UndoOperation
Index: 1
Type: 1
WasModified: 1
WasOrder2: 0
Width: 938
VWidth: 0
LBearingChange: 0
UnicodeEnc: 0
InstructionsLength: 0
SplineSet
372 0 m 1
 560 0 l 1
 560 409 l 1
 826 409 l 1
 826 538 l 1
 560 538 l 1
 560 931 l 1
 826 931 l 1
 826 1060 l 1
 560 1060 l 1
 560 1446 l 1
 372 1446 l 1
 372 1060 l 1
 112 1060 l 1
 112 931 l 1
 372 931 l 1
 372 538 l 1
 112 538 l 1
 112 409 l 1
 372 409 l 1
 372 0 l 1
EndSplineSet
EndUndoOperation
UndoOperation
Index: 2
Type: 1
WasModified: 0
WasOrder2: 0
Width: 938
VWidth: 0
LBearingChange: 0
UnicodeEnc: 0
InstructionsLength: 0
SplineSet
372 0 m 1
 560 0 l 1
 560 409 l 1
 826 409 l 1
 826 538 l 1
 560 538 l 1
 560 931 l 1
 826 931 l 1
 826 1060 l 1
 560 1060 l 1
 560 1446 l 1
 372 1446 l 1
 372 1060 l 1
 112 1060 l 1
 112 931 l 1
 372 931 l 1
 372 538 l 1
 112 538 l 1
 112 409 l 1
 372 409 l 1
 372 0 l 1
EndSplineSet
EndUndoOperation
EndUndoes
Redoes
EndRedoes
EndUndoRedoHistory
Fore
SplineSet
372 0 m 1
 372 409 l 1
 112 409 l 1
 112 538 l 1
 372 538 l 1
 372 931 l 1
 112 931 l 1
 112 1060 l 1
 372 1060 l 1
 372 1446 l 1
 560 1446 l 1
 560 1060 l 1
 826 1060 l 1
 826 931 l 1
 560 931 l 1
 560 538 l 1
 826 538 l 1
 826 409 l 1
 560 409 l 1
 560 0 l 1
 372 0 l 1
EndSplineSet
EndChar

StartChar: degree
Encoding: 176 176 67
Width: 1036
VWidth: 0
Flags: HW
PickledData: "(dp1
S'com.typemytype.robofont.guides'
p2
((dp3
S'angle'
p4
F90
sS'name'
p5
NsS'magnetic'
p6
I5
sS'isGlobal'
p7
I00
sS'y'
I1204
sS'x'
I513
stp8
sS'com.typemytype.robofont.layerData'
p9
(dp10
S'b'
(dp11
g5
S'degree'
p12
sS'lib'
p13
(dp14
sS'unicodes'
p15
(tsS'width'
p16
I1036
sS'contours'
p17
(tsS'components'
p18
(tsS'anchors'
p19
(tsss."
LayerCount: 2
UndoRedoHistory
Layer: 1
Undoes
UndoOperation
Index: 0
Type: 1
WasModified: 0
WasOrder2: 0
Width: 1036
VWidth: 0
LBearingChange: 0
UnicodeEnc: 0
InstructionsLength: 0
SplineSet
490 1360 m 0
 318 1360 265 1222 265 1123 c 0
 265 1024 317 885 490 885 c 0
 665 885 717 1024 717 1122 c 0
 717 1221 666 1360 490 1360 c 0
866 1123 m 0
 866 916 773 799 489 799 c 0
 270 799 160 950 160 1122 c 0
 160 1295 270 1445 490 1445 c 0
 770 1445 866 1330 866 1123 c 0
EndSplineSet
EndUndoOperation
UndoOperation
Index: 1
Type: 1
WasModified: 1
WasOrder2: 0
Width: 1036
VWidth: 0
LBearingChange: 0
UnicodeEnc: 0
InstructionsLength: 0
SplineSet
490 1360 m 0
 318 1360 265 1222 265 1123 c 0
 265 1024 317 885 490 885 c 0
 665 885 717 1024 717 1122 c 0
 717 1221 666 1360 490 1360 c 0
866 1123 m 0
 866 916 773 799 489 799 c 0
 270 799 160 950 160 1122 c 0
 160 1295 270 1445 490 1445 c 0
 770 1445 866 1330 866 1123 c 0
EndSplineSet
EndUndoOperation
UndoOperation
Index: 2
Type: 1
WasModified: 0
WasOrder2: 0
Width: 1036
VWidth: 0
LBearingChange: 0
UnicodeEnc: 0
InstructionsLength: 0
SplineSet
866 1123 m 0
 866 916 773 799 489 799 c 0
 270 799 160 950 160 1122 c 0
 160 1295 270 1445 490 1445 c 0
 770 1445 866 1330 866 1123 c 0
490 1360 m 0
 318 1360 265 1222 265 1123 c 0
 265 1024 317 885 490 885 c 0
 665 885 717 1024 717 1122 c 0
 717 1221 666 1360 490 1360 c 0
EndSplineSet
EndUndoOperation
EndUndoes
Redoes
EndRedoes
EndUndoRedoHistory
Fore
SplineSet
490 1360 m 0
 318 1360 265 1222 265 1123 c 0
 265 1024 317 885 490 885 c 0
 665 885 717 1024 717 1122 c 0
 717 1221 666 1360 490 1360 c 0
866 1123 m 0
 866 916 773 799 489 799 c 0
 270 799 160 950 160 1122 c 0
 160 1295 270 1445 490 1445 c 0
 770 1445 866 1330 866 1123 c 0
EndSplineSet
EndChar

StartChar: dieresis
Encoding: 168 168 68
Width: 956
VWidth: 0
Flags: HW
PickledData: "(dp1
S'com.typemytype.robofont.layerData'
p2
(dp3
S'b'
(dp4
S'name'
p5
S'dieresis'
p6
sS'lib'
p7
(dp8
sS'unicodes'
p9
(tsS'width'
p10
I956
sS'contours'
p11
(tsS'components'
p12
(tsS'anchors'
p13
(tsss."
LayerCount: 2
UndoRedoHistory
Layer: 1
Undoes
UndoOperation
Index: 0
Type: 1
WasModified: 0
WasOrder2: 0
Width: 956
VWidth: 0
LBearingChange: 0
UnicodeEnc: 0
InstructionsLength: 0
SplineSet
117 1265 m 1
 117 1446 l 1
 323 1446 l 1
 323 1265 l 1
 117 1265 l 1
620 1265 m 1
 620 1446 l 1
 826 1446 l 1
 826 1265 l 1
 620 1265 l 1
EndSplineSet
EndUndoOperation
UndoOperation
Index: 1
Type: 1
WasModified: 1
WasOrder2: 0
Width: 956
VWidth: 0
LBearingChange: 0
UnicodeEnc: 0
InstructionsLength: 0
SplineSet
117 1265 m 1
 117 1446 l 1
 323 1446 l 1
 323 1265 l 1
 117 1265 l 1
620 1265 m 1
 620 1446 l 1
 826 1446 l 1
 826 1265 l 1
 620 1265 l 1
EndSplineSet
EndUndoOperation
UndoOperation
Index: 2
Type: 1
WasModified: 0
WasOrder2: 0
Width: 956
VWidth: 0
LBearingChange: 0
UnicodeEnc: 0
InstructionsLength: 0
SplineSet
620 1265 m 1
 620 1446 l 1
 826 1446 l 1
 826 1265 l 1
 620 1265 l 1
117 1265 m 1
 117 1446 l 1
 323 1446 l 1
 323 1265 l 1
 117 1265 l 1
EndSplineSet
EndUndoOperation
EndUndoes
Redoes
EndRedoes
EndUndoRedoHistory
Fore
SplineSet
117 1265 m 1
 117 1446 l 1
 323 1446 l 1
 323 1265 l 1
 117 1265 l 1
620 1265 m 1
 620 1446 l 1
 826 1446 l 1
 826 1265 l 1
 620 1265 l 1
EndSplineSet
EndChar

StartChar: divide
Encoding: 247 247 69
Width: 1073
VWidth: 0
Flags: HW
PickledData: "(dp1
S'com.typemytype.robofont.layerData'
p2
(dp3
S'b'
(dp4
S'name'
p5
S'divide'
p6
sS'lib'
p7
(dp8
sS'unicodes'
p9
(tsS'width'
p10
I1073
sS'contours'
p11
(tsS'components'
p12
(tsS'anchors'
p13
(tsss."
LayerCount: 2
UndoRedoHistory
Layer: 1
Undoes
UndoOperation
Index: 0
Type: 1
WasModified: 0
WasOrder2: 0
Width: 1073
VWidth: 0
LBearingChange: 0
UnicodeEnc: 0
InstructionsLength: 0
SplineSet
949 609 m 1
 949 472 l 1
 124 472 l 1
 124 609 l 1
 949 609 l 1
648 996 m 1
 648 787 l 1
 431 787 l 1
 431 996 l 1
 648 996 l 1
648 299 m 1
 648 90 l 1
 431 90 l 1
 431 299 l 1
 648 299 l 1
EndSplineSet
EndUndoOperation
UndoOperation
Index: 1
Type: 1
WasModified: 1
WasOrder2: 0
Width: 1073
VWidth: 0
LBearingChange: 0
UnicodeEnc: 0
InstructionsLength: 0
SplineSet
949 609 m 1
 949 472 l 1
 124 472 l 1
 124 609 l 1
 949 609 l 1
648 996 m 1
 648 787 l 1
 431 787 l 1
 431 996 l 1
 648 996 l 1
648 299 m 1
 648 90 l 1
 431 90 l 1
 431 299 l 1
 648 299 l 1
EndSplineSet
EndUndoOperation
UndoOperation
Index: 2
Type: 1
WasModified: 0
WasOrder2: 0
Width: 1073
VWidth: 0
LBearingChange: 0
UnicodeEnc: 0
InstructionsLength: 0
SplineSet
648 299 m 1
 648 90 l 1
 431 90 l 1
 431 299 l 1
 648 299 l 1
648 996 m 1
 648 787 l 1
 431 787 l 1
 431 996 l 1
 648 996 l 1
949 609 m 1
 949 472 l 1
 124 472 l 1
 124 609 l 1
 949 609 l 1
EndSplineSet
EndUndoOperation
EndUndoes
Redoes
EndRedoes
EndUndoRedoHistory
Fore
SplineSet
949 609 m 1
 949 472 l 1
 124 472 l 1
 124 609 l 1
 949 609 l 1
648 996 m 1
 648 787 l 1
 431 787 l 1
 431 996 l 1
 648 996 l 1
648 299 m 1
 648 90 l 1
 431 90 l 1
 431 299 l 1
 648 299 l 1
EndSplineSet
EndChar

StartChar: dotaccent
Encoding: 729 729 70
Width: 575
VWidth: 0
Flags: HW
PickledData: "(dp1
S'com.typemytype.robofont.layerData'
p2
(dp3
S'b'
(dp4
S'name'
p5
S'dotaccent'
p6
sS'lib'
p7
(dp8
sS'unicodes'
p9
(tsS'width'
p10
I575
sS'contours'
p11
(tsS'components'
p12
(tsS'anchors'
p13
(tsss."
LayerCount: 2
UndoRedoHistory
Layer: 1
Undoes
UndoOperation
Index: 0
Type: 1
WasModified: 0
WasOrder2: 0
Width: 575
VWidth: 0
LBearingChange: 0
UnicodeEnc: 0
InstructionsLength: 0
SplineSet
173 1462 m 1
 427 1462 l 1
 427 1221 l 1
 173 1221 l 1
 173 1462 l 1
EndSplineSet
EndUndoOperation
UndoOperation
Index: 1
Type: 1
WasModified: 1
WasOrder2: 0
Width: 575
VWidth: 0
LBearingChange: 0
UnicodeEnc: 0
InstructionsLength: 0
SplineSet
173 1462 m 1
 427 1462 l 1
 427 1221 l 1
 173 1221 l 1
 173 1462 l 1
EndSplineSet
EndUndoOperation
UndoOperation
Index: 2
Type: 1
WasModified: 0
WasOrder2: 0
Width: 575
VWidth: 0
LBearingChange: 0
UnicodeEnc: 0
InstructionsLength: 0
SplineSet
173 1462 m 1
 427 1462 l 1
 427 1221 l 1
 173 1221 l 1
 173 1462 l 1
EndSplineSet
EndUndoOperation
EndUndoes
Redoes
EndRedoes
EndUndoRedoHistory
Fore
SplineSet
173 1462 m 1
 427 1462 l 1
 427 1221 l 1
 173 1221 l 1
 173 1462 l 1
EndSplineSet
EndChar

StartChar: dotlessi
Encoding: 305 305 71
Width: 419
VWidth: 0
Flags: HW
PickledData: "(dp1
S'com.typemytype.robofont.layerData'
p2
(dp3
S'b'
(dp4
S'name'
p5
S'dotlessi'
p6
sS'lib'
p7
(dp8
sS'unicodes'
p9
(tsS'width'
p10
I419
sS'contours'
p11
(tsS'components'
p12
(tsS'anchors'
p13
(tsss."
LayerCount: 2
UndoRedoHistory
Layer: 1
Undoes
UndoOperation
Index: 0
Type: 1
WasModified: 0
WasOrder2: 0
Width: 419
VWidth: 0
LBearingChange: 0
UnicodeEnc: 0
InstructionsLength: 0
SplineSet
96 1084 m 1
 359 1084 l 1
 359 0 l 1
 96 0 l 1
 96 1084 l 1
EndSplineSet
EndUndoOperation
UndoOperation
Index: 1
Type: 1
WasModified: 1
WasOrder2: 0
Width: 419
VWidth: 0
LBearingChange: 0
UnicodeEnc: 0
InstructionsLength: 0
SplineSet
96 1084 m 1
 359 1084 l 1
 359 0 l 1
 96 0 l 1
 96 1084 l 1
EndSplineSet
EndUndoOperation
UndoOperation
Index: 2
Type: 1
WasModified: 0
WasOrder2: 0
Width: 419
VWidth: 0
LBearingChange: 0
UnicodeEnc: 0
InstructionsLength: 0
SplineSet
96 1084 m 1
 359 1084 l 1
 359 0 l 1
 96 0 l 1
 96 1084 l 1
EndSplineSet
EndUndoOperation
EndUndoes
Redoes
EndRedoes
EndUndoRedoHistory
Fore
SplineSet
96 1084 m 1
 359 1084 l 1
 359 0 l 1
 96 0 l 1
 96 1084 l 1
EndSplineSet
EndChar

StartChar: e
Encoding: 101 101 72
Width: 1138
VWidth: 0
Flags: HW
PickledData: "(dp1
S'com.typemytype.robofont.layerData'
p2
(dp3
S'b'
(dp4
S'name'
p5
S'e'
sS'lib'
p6
(dp7
sS'unicodes'
p8
(tsS'width'
p9
I1138
sS'contours'
p10
(tsS'components'
p11
(tsS'anchors'
p12
(tsss."
LayerCount: 2
UndoRedoHistory
Layer: 1
Undoes
UndoOperation
Index: 0
Type: 1
WasModified: 0
WasOrder2: 0
Width: 1138
VWidth: 0
LBearingChange: 0
UnicodeEnc: 0
InstructionsLength: 0
SplineSet
338 633 m 1
 811 633 l 1
 811 778 l 2
 811 906 727 938 582 938 c 0
 432 938 338 891 338 760 c 2
 338 633 l 1
582 -20 m 0
 266 -20 150 122 150 326 c 2
 150 743 l 2
 150 943 303 1080 582 1080 c 0
 858 1080 993 959 993 758 c 2
 993 506 l 1
 338 506 l 1
 338 310 l 2
 338 179 418 121 582 121 c 0
 721 121 811 152 811 282 c 2
 811 336 l 1
 993 336 l 1
 993 297 l 2
 993 102 911 -20 582 -20 c 0
EndSplineSet
EndUndoOperation
UndoOperation
Index: 1
Type: 1
WasModified: 1
WasOrder2: 0
Width: 1138
VWidth: 0
LBearingChange: 0
UnicodeEnc: 0
InstructionsLength: 0
SplineSet
338 633 m 1
 811 633 l 1
 811 778 l 2
 811 906 727 938 582 938 c 0
 432 938 338 891 338 760 c 2
 338 633 l 1
582 -20 m 0
 266 -20 150 122 150 326 c 2
 150 743 l 2
 150 943 303 1080 582 1080 c 0
 858 1080 993 959 993 758 c 2
 993 506 l 1
 338 506 l 1
 338 310 l 2
 338 179 418 121 582 121 c 0
 721 121 811 152 811 282 c 2
 811 336 l 1
 993 336 l 1
 993 297 l 2
 993 102 911 -20 582 -20 c 0
EndSplineSet
EndUndoOperation
UndoOperation
Index: 2
Type: 1
WasModified: 0
WasOrder2: 0
Width: 1138
VWidth: 0
LBearingChange: 0
UnicodeEnc: 0
InstructionsLength: 0
SplineSet
582 -20 m 0
 266 -20 150 122 150 326 c 2
 150 743 l 2
 150 943 303 1080 582 1080 c 0
 858 1080 993 959 993 758 c 2
 993 506 l 1
 338 506 l 1
 338 310 l 2
 338 179 418 121 582 121 c 0
 721 121 811 152 811 282 c 2
 811 336 l 1
 993 336 l 1
 993 297 l 2
 993 102 911 -20 582 -20 c 0
338 633 m 1
 811 633 l 1
 811 778 l 2
 811 906 727 938 582 938 c 0
 432 938 338 891 338 760 c 2
 338 633 l 1
EndSplineSet
EndUndoOperation
EndUndoes
Redoes
EndRedoes
EndUndoRedoHistory
Fore
SplineSet
338 633 m 1
 811 633 l 1
 811 778 l 2
 811 906 727 938 582 938 c 0
 432 938 338 891 338 760 c 2
 338 633 l 1
582 -20 m 0
 266 -20 150 122 150 326 c 2
 150 743 l 2
 150 943 303 1080 582 1080 c 0
 858 1080 993 959 993 758 c 2
 993 506 l 1
 338 506 l 1
 338 310 l 2
 338 179 418 121 582 121 c 0
 721 121 811 152 811 282 c 2
 811 336 l 1
 993 336 l 1
 993 297 l 2
 993 102 911 -20 582 -20 c 0
EndSplineSet
EndChar

StartChar: eight
Encoding: 56 56 73
Width: 1303
VWidth: 0
Flags: HW
PickledData: "(dp1
."
LayerCount: 2
UndoRedoHistory
Layer: 0
Undoes
UndoOperation
Index: 0
Type: 1
WasModified: 1
WasOrder2: 0
Width: 1303
VWidth: 0
LBearingChange: 0
UnicodeEnc: 0
InstructionsLength: 0
SplineSet
973.870889935 372.412663979 m 0
 973.870889935 199.631065568 841.231477659 138 653 138 c 0
 461.663882598 138 329.126495868 199.533583949 329.126495868 372.471145153 c 0
 329.126495868 529.71902509 488.874724288 601.236355597 651.5 680.0078125 c 1
 813.843066185 601.373021573 973.870889935 529.605613069 973.870889935 372.412663979 c 0
361.379993851 1122.10651842 m 0
 361.379993851 1244.92748195 452 1326 653 1326 c 1
 852 1326 941.621211075 1244.75919059 941.621211075 1122.0787479 c 0
 941.621211075 992.105585217 797.488788907 916.188258471 651.5 845.618164062 c 1
 505.739038834 916.077954062 361.379993851 992.136939693 361.379993851 1122.10651842 c 0
1165.13183594 368.36328125 m 4
 1165.13183594 581.546875 996.442710382 703.236001928 838.491210938 773.236328125 c 1
 989.243485456 841.979983612 1137.24609375 936.49609375 1137.24609375 1122.7109375 c 0
 1137.24609375 1389.31152344 905.440203019 1481 653 1481 c 0
 397.530997879 1481 165.75390625 1389.35546875 165.75390625 1122.7109375 c 0
 165.75390625 936.49609375 313.756514539 841.979983614 464.508789062 773.236328125 c 1
 306.557289613 703.236001926 137.868164062 581.546875 137.868164062 368.36328125 c 4
 137.868164062 104.208984375 334 -23 648 -23 c 0
 958 -23 1165.13183594 104.138671875 1165.13183594 368.36328125 c 4
EndSplineSet
EndUndoOperation
UndoOperation
Index: 1
Type: 1
WasModified: 1
WasOrder2: 0
Width: 1303
VWidth: 0
LBearingChange: 0
UnicodeEnc: 0
InstructionsLength: 0
SplineSet
973.870889935 372.412663979 m 0
 973.870889935 199.631065568 841.231477659 138 653 138 c 0
 461.663882598 138 329.126495868 199.533583949 329.126495868 372.471145153 c 0
 329.126495868 529.71902509 488.874724288 601.236355597 651.5 680.0078125 c 1
 813.843066185 601.373021573 973.870889935 529.605613069 973.870889935 372.412663979 c 0
361.379993851 1122.10651842 m 0
 361.379993851 1244.92748195 452 1326 653 1326 c 1
 852 1326 941.621211075 1244.75919059 941.621211075 1122.0787479 c 0
 941.621211075 992.105585217 797.488788907 916.188258471 651.5 845.618164062 c 1
 505.739038834 916.077954062 361.379993851 992.136939693 361.379993851 1122.10651842 c 0
1165.13183594 369.36328125 m 4
 1165.13183594 582.546875 996.442710382 703.236001928 838.491210938 773.236328125 c 1
 989.243485456 841.979983612 1137.24609375 936.49609375 1137.24609375 1122.7109375 c 0
 1137.24609375 1389.31152344 905.440203019 1481 653 1481 c 0
 397.530997879 1481 165.75390625 1389.35546875 165.75390625 1122.7109375 c 0
 165.75390625 936.49609375 313.756514539 841.979983614 464.508789062 773.236328125 c 1
 306.557289613 703.236001926 137.868164062 582.546875 137.868164062 369.36328125 c 4
 137.868164062 105.208984375 334 -23 648 -23 c 0
 958 -23 1165.13183594 105.138671875 1165.13183594 369.36328125 c 4
EndSplineSet
EndUndoOperation
UndoOperation
Index: 2
Type: 1
WasModified: 1
WasOrder2: 0
Width: 1303
VWidth: 0
LBearingChange: 0
UnicodeEnc: 0
InstructionsLength: 0
SplineSet
973.870889935 372.412663979 m 0
 973.870889935 199.631065568 841.231477659 138 653 138 c 0
 461.663882598 138 329.126495868 199.533583949 329.126495868 372.471145153 c 0
 329.126495868 529.71902509 488.874724288 601.236355597 651.5 680.0078125 c 1
 813.843066185 601.373021573 973.870889935 529.605613069 973.870889935 372.412663979 c 0
361.379993851 1122.10651842 m 0
 361.379993851 1244.92748195 452 1326 653 1326 c 1
 852 1326 941.621211075 1244.75919059 941.621211075 1122.0787479 c 0
 941.621211075 992.105585217 797.488788907 916.188258471 651.5 845.618164062 c 1
 505.739038834 916.077954062 361.379993851 992.136939693 361.379993851 1122.10651842 c 0
1165.13183594 370.36328125 m 4
 1165.13183594 583.546875 996.442710382 703.236001928 838.491210938 773.236328125 c 1
 989.243485456 841.979983612 1137.24609375 936.49609375 1137.24609375 1122.7109375 c 0
 1137.24609375 1389.31152344 905.440203019 1481 653 1481 c 0
 397.530997879 1481 165.75390625 1389.35546875 165.75390625 1122.7109375 c 0
 165.75390625 936.49609375 313.756514539 841.979983614 464.508789062 773.236328125 c 1
 306.557289613 703.236001926 137.868164062 583.546875 137.868164062 370.36328125 c 4
 137.868164062 106.208984375 334 -23 648 -23 c 0
 958 -23 1165.13183594 106.138671875 1165.13183594 370.36328125 c 4
EndSplineSet
EndUndoOperation
UndoOperation
Index: 3
Type: 1
WasModified: 1
WasOrder2: 0
Width: 1303
VWidth: 0
LBearingChange: 0
UnicodeEnc: 0
InstructionsLength: 0
SplineSet
973.870889935 372.412663979 m 0
 973.870889935 199.631065568 841.231477659 138 653 138 c 0
 461.663882598 138 329.126495868 199.533583949 329.126495868 372.471145153 c 0
 329.126495868 529.71902509 488.874724288 601.236355597 651.5 680.0078125 c 1
 813.843066185 601.373021573 973.870889935 529.605613069 973.870889935 372.412663979 c 0
361.379993851 1122.10651842 m 0
 361.379993851 1244.92748195 452 1326 653 1326 c 1
 852 1326 941.621211075 1244.75919059 941.621211075 1122.0787479 c 0
 941.621211075 992.105585217 797.488788907 916.188258471 651.5 845.618164062 c 1
 505.739038834 916.077954062 361.379993851 992.136939693 361.379993851 1122.10651842 c 0
1165.13183594 371.36328125 m 4
 1165.13183594 584.546875 996.442710382 703.236001928 838.491210938 773.236328125 c 1
 989.243485456 841.979983612 1137.24609375 936.49609375 1137.24609375 1122.7109375 c 0
 1137.24609375 1389.31152344 905.440203019 1481 653 1481 c 0
 397.530997879 1481 165.75390625 1389.35546875 165.75390625 1122.7109375 c 0
 165.75390625 936.49609375 313.756514539 841.979983614 464.508789062 773.236328125 c 1
 306.557289613 703.236001926 137.868164062 584.546875 137.868164062 371.36328125 c 4
 137.868164062 107.208984375 334 -23 648 -23 c 0
 958 -23 1165.13183594 107.138671875 1165.13183594 371.36328125 c 4
EndSplineSet
EndUndoOperation
UndoOperation
Index: 4
Type: 1
WasModified: 1
WasOrder2: 0
Width: 1303
VWidth: 0
LBearingChange: 0
UnicodeEnc: 0
InstructionsLength: 0
SplineSet
973.870889935 372.412663979 m 0
 973.870889935 199.631065568 841.231477659 138 653 138 c 0
 461.663882598 138 329.126495868 199.533583949 329.126495868 372.471145153 c 0
 329.126495868 529.71902509 488.874724288 601.236355597 651.5 680.0078125 c 1
 813.843066185 601.373021573 973.870889935 529.605613069 973.870889935 372.412663979 c 0
361.379993851 1122.10651842 m 0
 361.379993851 1244.92748195 452 1326 653 1326 c 1
 852 1326 941.621211075 1244.75919059 941.621211075 1122.0787479 c 0
 941.621211075 992.105585217 797.488788907 916.188258471 651.5 845.618164062 c 1
 505.739038834 916.077954062 361.379993851 992.136939693 361.379993851 1122.10651842 c 0
1165.13183594 372.36328125 m 4
 1165.13183594 585.546875 996.442710382 703.236001928 838.491210938 773.236328125 c 1
 989.243485456 841.979983612 1137.24609375 936.49609375 1137.24609375 1122.7109375 c 0
 1137.24609375 1389.31152344 905.440203019 1481 653 1481 c 0
 397.530997879 1481 165.75390625 1389.35546875 165.75390625 1122.7109375 c 0
 165.75390625 936.49609375 313.756514539 841.979983614 464.508789062 773.236328125 c 1
 306.557289613 703.236001926 137.868164062 585.546875 137.868164062 372.36328125 c 4
 137.868164062 108.208984375 334 -23 648 -23 c 0
 958 -23 1165.13183594 108.138671875 1165.13183594 372.36328125 c 4
EndSplineSet
EndUndoOperation
UndoOperation
Index: 5
Type: 1
WasModified: 1
WasOrder2: 0
Width: 1303
VWidth: 0
LBearingChange: 0
UnicodeEnc: 0
InstructionsLength: 0
SplineSet
973.870889935 372.412663979 m 0
 973.870889935 199.631065568 841.231477659 138 653 138 c 0
 461.663882598 138 329.126495868 199.533583949 329.126495868 372.471145153 c 0
 329.126495868 529.71902509 488.874724288 601.236355597 651.5 680.0078125 c 1
 813.843066185 601.373021573 973.870889935 529.605613069 973.870889935 372.412663979 c 0
361.379993851 1122.10651842 m 0
 361.379993851 1244.92748195 452 1326 653 1326 c 1
 852 1326 941.621211075 1244.75919059 941.621211075 1122.0787479 c 0
 941.621211075 992.105585217 797.488788907 916.188258471 651.5 845.618164062 c 1
 505.739038834 916.077954062 361.379993851 992.136939693 361.379993851 1122.10651842 c 0
1165.13183594 373.36328125 m 4
 1165.13183594 586.546875 996.442710382 703.236001928 838.491210938 773.236328125 c 1
 989.243485456 841.979983612 1137.24609375 936.49609375 1137.24609375 1122.7109375 c 0
 1137.24609375 1389.31152344 905.440203019 1481 653 1481 c 0
 397.530997879 1481 165.75390625 1389.35546875 165.75390625 1122.7109375 c 0
 165.75390625 936.49609375 313.756514539 841.979983614 464.508789062 773.236328125 c 1
 306.557289613 703.236001926 137.868164062 586.546875 137.868164062 373.36328125 c 4
 137.868164062 109.208984375 334 -23 648 -23 c 0
 958 -23 1165.13183594 109.138671875 1165.13183594 373.36328125 c 4
EndSplineSet
EndUndoOperation
UndoOperation
Index: 6
Type: 1
WasModified: 1
WasOrder2: 0
Width: 1303
VWidth: 0
LBearingChange: 0
UnicodeEnc: 0
InstructionsLength: 0
SplineSet
973.870889935 372.412663979 m 0
 973.870889935 199.631065568 841.231477659 138 653 138 c 0
 461.663882598 138 329.126495868 199.533583949 329.126495868 372.471145153 c 0
 329.126495868 529.71902509 488.874724288 601.236355597 651.5 680.0078125 c 1
 813.843066185 601.373021573 973.870889935 529.605613069 973.870889935 372.412663979 c 0
361.379993851 1122.10651842 m 0
 361.379993851 1244.92748195 452 1326 653 1326 c 1
 852 1326 941.621211075 1244.75919059 941.621211075 1122.0787479 c 0
 941.621211075 992.105585217 797.488788907 916.188258471 651.5 845.618164062 c 1
 505.739038834 916.077954062 361.379993851 992.136939693 361.379993851 1122.10651842 c 0
1165.13183594 374.36328125 m 4
 1165.13183594 587.546875 996.442710382 703.236001928 838.491210938 773.236328125 c 1
 989.243485456 841.979983612 1137.24609375 936.49609375 1137.24609375 1122.7109375 c 0
 1137.24609375 1389.31152344 905.440203019 1481 653 1481 c 0
 397.530997879 1481 165.75390625 1389.35546875 165.75390625 1122.7109375 c 0
 165.75390625 936.49609375 313.756514539 841.979983614 464.508789062 773.236328125 c 1
 306.557289613 703.236001926 137.868164062 587.546875 137.868164062 374.36328125 c 4
 137.868164062 110.208984375 334 -23 648 -23 c 0
 958 -23 1165.13183594 110.138671875 1165.13183594 374.36328125 c 4
EndSplineSet
EndUndoOperation
UndoOperation
Index: 7
Type: 1
WasModified: 1
WasOrder2: 0
Width: 1303
VWidth: 0
LBearingChange: 0
UnicodeEnc: 0
InstructionsLength: 0
SplineSet
973.870889935 372.412663979 m 0
 973.870889935 199.631065568 841.231477659 138 653 138 c 0
 461.663882598 138 329.126495868 199.533583949 329.126495868 372.471145153 c 0
 329.126495868 529.71902509 488.874724288 601.236355597 651.5 680.0078125 c 1
 813.843066185 601.373021573 973.870889935 529.605613069 973.870889935 372.412663979 c 0
361.379993851 1122.10651842 m 0
 361.379993851 1244.92748195 452 1326 653 1326 c 1
 852 1326 941.621211075 1244.75919059 941.621211075 1122.0787479 c 0
 941.621211075 992.105585217 797.488788907 916.188258471 651.5 845.618164062 c 1
 505.739038834 916.077954062 361.379993851 992.136939693 361.379993851 1122.10651842 c 0
1165.13183594 375.36328125 m 4
 1165.13183594 588.546875 996.442710382 703.236001928 838.491210938 773.236328125 c 1
 989.243485456 841.979983612 1137.24609375 936.49609375 1137.24609375 1122.7109375 c 0
 1137.24609375 1389.31152344 905.440203019 1481 653 1481 c 0
 397.530997879 1481 165.75390625 1389.35546875 165.75390625 1122.7109375 c 0
 165.75390625 936.49609375 313.756514539 841.979983614 464.508789062 773.236328125 c 1
 306.557289613 703.236001926 137.868164062 588.546875 137.868164062 375.36328125 c 4
 137.868164062 111.208984375 334 -23 648 -23 c 0
 958 -23 1165.13183594 111.138671875 1165.13183594 375.36328125 c 4
EndSplineSet
EndUndoOperation
UndoOperation
Index: 8
Type: 1
WasModified: 1
WasOrder2: 0
Width: 1303
VWidth: 0
LBearingChange: 0
UnicodeEnc: 0
InstructionsLength: 0
SplineSet
973.870889935 372.412663979 m 0
 973.870889935 199.631065568 841.231477659 138 653 138 c 0
 461.663882598 138 329.126495868 199.533583949 329.126495868 372.471145153 c 0
 329.126495868 529.71902509 488.874724288 601.236355597 651.5 680.0078125 c 1
 813.843066185 601.373021573 973.870889935 529.605613069 973.870889935 372.412663979 c 0
361.379993851 1122.10651842 m 0
 361.379993851 1244.92748195 452 1326 653 1326 c 1
 852 1326 941.621211075 1244.75919059 941.621211075 1122.0787479 c 0
 941.621211075 992.105585217 797.488788907 916.188258471 651.5 845.618164062 c 1
 505.739038834 916.077954062 361.379993851 992.136939693 361.379993851 1122.10651842 c 0
1165.13183594 376.36328125 m 4
 1165.13183594 589.546875 996.442710382 703.236001928 838.491210938 773.236328125 c 1
 989.243485456 841.979983612 1137.24609375 936.49609375 1137.24609375 1122.7109375 c 0
 1137.24609375 1389.31152344 905.440203019 1481 653 1481 c 0
 397.530997879 1481 165.75390625 1389.35546875 165.75390625 1122.7109375 c 0
 165.75390625 936.49609375 313.756514539 841.979983614 464.508789062 773.236328125 c 1
 306.557289613 703.236001926 137.868164062 589.546875 137.868164062 376.36328125 c 4
 137.868164062 112.208984375 334 -23 648 -23 c 0
 958 -23 1165.13183594 112.138671875 1165.13183594 376.36328125 c 4
EndSplineSet
EndUndoOperation
UndoOperation
Index: 9
Type: 1
WasModified: 1
WasOrder2: 0
Width: 1303
VWidth: 0
LBearingChange: 0
UnicodeEnc: 0
InstructionsLength: 0
SplineSet
973.870889935 372.412663979 m 0
 973.870889935 199.631065568 841.231477659 138 653 138 c 0
 461.663882598 138 329.126495868 199.533583949 329.126495868 372.471145153 c 0
 329.126495868 529.71902509 488.874724288 601.236355597 651.5 680.0078125 c 1
 813.843066185 601.373021573 973.870889935 529.605613069 973.870889935 372.412663979 c 0
361.379993851 1122.10651842 m 0
 361.379993851 1244.92748195 452 1326 653 1326 c 1
 852 1326 941.621211075 1244.75919059 941.621211075 1122.0787479 c 0
 941.621211075 992.105585217 797.488788907 916.188258471 651.5 845.618164062 c 1
 505.739038834 916.077954062 361.379993851 992.136939693 361.379993851 1122.10651842 c 0
1165.13183594 377.36328125 m 4
 1165.13183594 590.546875 996.442710382 703.236001928 838.491210938 773.236328125 c 1
 989.243485456 841.979983612 1137.24609375 936.49609375 1137.24609375 1122.7109375 c 0
 1137.24609375 1389.31152344 905.440203019 1481 653 1481 c 0
 397.530997879 1481 165.75390625 1389.35546875 165.75390625 1122.7109375 c 0
 165.75390625 936.49609375 313.756514539 841.979983614 464.508789062 773.236328125 c 1
 306.557289613 703.236001926 137.868164062 590.546875 137.868164062 377.36328125 c 4
 137.868164062 113.208984375 334 -23 648 -23 c 0
 958 -23 1165.13183594 113.138671875 1165.13183594 377.36328125 c 4
EndSplineSet
EndUndoOperation
UndoOperation
Index: 10
Type: 1
WasModified: 1
WasOrder2: 0
Width: 1303
VWidth: 0
LBearingChange: 0
UnicodeEnc: 0
InstructionsLength: 0
SplineSet
973.870889935 372.412663979 m 0
 973.870889935 199.631065568 841.231477659 138 653 138 c 0
 461.663882598 138 329.126495868 199.533583949 329.126495868 372.471145153 c 0
 329.126495868 529.71902509 488.874724288 601.236355597 651.5 680.0078125 c 1
 813.843066185 601.373021573 973.870889935 529.605613069 973.870889935 372.412663979 c 0
361.379993851 1122.10651842 m 0
 361.379993851 1244.92748195 452 1326 653 1326 c 1
 852 1326 941.621211075 1244.75919059 941.621211075 1122.0787479 c 0
 941.621211075 992.105585217 797.488788907 916.188258471 651.5 845.618164062 c 1
 505.739038834 916.077954062 361.379993851 992.136939693 361.379993851 1122.10651842 c 0
1165.13183594 378.36328125 m 4
 1165.13183594 591.546875 996.442710382 703.236001928 838.491210938 773.236328125 c 1
 989.243485456 841.979983612 1137.24609375 936.49609375 1137.24609375 1122.7109375 c 0
 1137.24609375 1389.31152344 905.440203019 1481 653 1481 c 0
 397.530997879 1481 165.75390625 1389.35546875 165.75390625 1122.7109375 c 0
 165.75390625 936.49609375 313.756514539 841.979983614 464.508789062 773.236328125 c 1
 306.557289613 703.236001926 137.868164062 591.546875 137.868164062 378.36328125 c 4
 137.868164062 114.208984375 334 -23 648 -23 c 0
 958 -23 1165.13183594 114.138671875 1165.13183594 378.36328125 c 4
EndSplineSet
EndUndoOperation
UndoOperation
Index: 11
Type: 1
WasModified: 1
WasOrder2: 0
Width: 1303
VWidth: 0
LBearingChange: 0
UnicodeEnc: 0
InstructionsLength: 0
SplineSet
973.870889935 372.412663979 m 0
 973.870889935 199.631065568 841.231477659 138 653 138 c 0
 461.663882598 138 329.126495868 199.533583949 329.126495868 372.471145153 c 0
 329.126495868 529.71902509 488.874724288 601.236355597 651.5 680.0078125 c 1
 813.843066185 601.373021573 973.870889935 529.605613069 973.870889935 372.412663979 c 0
361.379993851 1122.10651842 m 0
 361.379993851 1244.92748195 452 1326 653 1326 c 1
 852 1326 941.621211075 1244.75919059 941.621211075 1122.0787479 c 0
 941.621211075 992.105585217 797.488788907 916.188258471 651.5 845.618164062 c 1
 505.739038834 916.077954062 361.379993851 992.136939693 361.379993851 1122.10651842 c 0
1165.13183594 379.36328125 m 4
 1165.13183594 592.546875 996.442710382 703.236001928 838.491210938 773.236328125 c 1
 989.243485456 841.979983612 1137.24609375 936.49609375 1137.24609375 1122.7109375 c 0
 1137.24609375 1389.31152344 905.440203019 1481 653 1481 c 0
 397.530997879 1481 165.75390625 1389.35546875 165.75390625 1122.7109375 c 0
 165.75390625 936.49609375 313.756514539 841.979983614 464.508789062 773.236328125 c 1
 306.557289613 703.236001926 137.868164062 592.546875 137.868164062 379.36328125 c 4
 137.868164062 115.208984375 334 -23 648 -23 c 0
 958 -23 1165.13183594 115.138671875 1165.13183594 379.36328125 c 4
EndSplineSet
EndUndoOperation
EndUndoes
Redoes
EndRedoes
EndUndoRedoHistory
Back
SplineSet
652 1326 m 5
 851 1328 946 1246 955 1137 c 4
 963 1040 934 978 778 911 c 6
 477 780 l 6
 305 706 146 618 152 380 c 4
 158 124 358 -27 662 -23 c 5
656 138 m 4
 472 138 357 196 344 352 c 4
 333 483 388 544 554 616 c 6
 840 740 l 6
 1013 815 1159 900 1151 1118 c 4
 1142 1374 917 1481 667 1481 c 4
EndSplineSet
UndoRedoHistory
Layer: 1
Undoes
UndoOperation
Index: 0
Type: 1
WasModified: 1
WasOrder2: 0
Width: 1303
VWidth: 0
LBearingChange: 0
UnicodeEnc: 0
InstructionsLength: 0
SplineSet
652 1326 m 1
 851 1328 946 1246 955 1137 c 0
 963 1040 934 978 778 911 c 2
 477 780 l 2
 305 706 146 618 152 380 c 0
 158 124 358 -27 662 -23 c 1
 871 -18 1070 72 1175 209 c 5
 1088 338 l 5
 1006 252 856 138 656 138 c 0
 472 138 357 196 344 352 c 0
 333 483 388 544 554 616 c 2
 840 740 l 2
 1013 815 1159 900 1151 1118 c 0
 1142 1374 917 1481 667 1481 c 0
EndSplineSet
EndUndoOperation
UndoOperation
Index: 1
Type: 1
WasModified: 1
WasOrder2: 0
Width: 1303
VWidth: 0
LBearingChange: 0
UnicodeEnc: 0
InstructionsLength: 0
SplineSet
1175 209 m 1
 1088 338 l 1
 1006 252 856 138 656 138 c 0
 472 138 357 196 344 352 c 0
 333 483 388 544 554 616 c 2
 840 740 l 2
 1013 815 1159 900 1151 1118 c 0
 1142 1374 917 1481 667 1481 c 0
 400 1481 241 1371 176 1284 c 5
 266 1159 l 5
 341 1250 465 1322 652 1326 c 1
 851 1328 946 1246 955 1137 c 0
 963 1040 934 978 778 911 c 2
 477 780 l 2
 305 706 146 618 152 380 c 0
 158 124 358 -27 662 -23 c 1
 871 -18 1070 72 1175 209 c 1
EndSplineSet
EndUndoOperation
UndoOperation
Index: 2
Type: 1
WasModified: 1
WasOrder2: 0
Width: 1303
VWidth: 0
LBearingChange: 0
UnicodeEnc: 0
InstructionsLength: 0
EndUndoOperation
EndUndoes
Redoes
EndRedoes
EndUndoRedoHistory
Fore
SplineSet
973.870889935 372.412663979 m 0
 973.870889935 199.631065568 841.231477659 138 653 138 c 0
 461.663882598 138 329.126495868 199.533583949 329.126495868 372.471145153 c 0
 329.126495868 529.71902509 488.874724288 601.236355597 651.5 680.0078125 c 1
 813.843066185 601.373021573 973.870889935 529.605613069 973.870889935 372.412663979 c 0
361.379993851 1122.10651842 m 0
 361.379993851 1244.92748195 452 1326 653 1326 c 1
 852 1326 941.621211075 1244.75919059 941.621211075 1122.0787479 c 0
 941.621211075 992.105585217 797.488788907 916.188258471 651.5 845.618164062 c 1
 505.739038834 916.077954062 361.379993851 992.136939693 361.379993851 1122.10651842 c 0
1165.13183594 367.36328125 m 4
 1165.13183594 580.546875 996.442710382 703.236001928 838.491210938 773.236328125 c 1
 989.243485456 841.979983612 1137.24609375 936.49609375 1137.24609375 1122.7109375 c 0
 1137.24609375 1389.31152344 905.440203019 1481 653 1481 c 0
 397.530997879 1481 165.75390625 1389.35546875 165.75390625 1122.7109375 c 0
 165.75390625 936.49609375 313.756514539 841.979983614 464.508789062 773.236328125 c 1
 306.557289613 703.236001926 137.868164062 580.546875 137.868164062 367.36328125 c 4
 137.868164062 103.208984375 334 -23 648 -23 c 0
 958 -23 1165.13183594 103.138671875 1165.13183594 367.36328125 c 4
EndSplineSet
EndChar

StartChar: ellipsis
Encoding: 8230 8230 74
Width: 1427
VWidth: 0
Flags: HW
PickledData: "(dp1
S'com.typemytype.robofont.layerData'
p2
(dp3
S'b'
(dp4
S'name'
p5
S'ellipsis'
p6
sS'lib'
p7
(dp8
sS'unicodes'
p9
(tsS'width'
p10
I1427
sS'contours'
p11
(tsS'components'
p12
(tsS'anchors'
p13
(tsss."
LayerCount: 2
UndoRedoHistory
Layer: 1
Undoes
UndoOperation
Index: 0
Type: 1
WasModified: 0
WasOrder2: 0
Width: 1427
VWidth: 0
LBearingChange: 0
UnicodeEnc: 0
InstructionsLength: 0
SplineSet
1776 255 m 1
 2029 255 l 1
 2029 0 l 1
 1776 0 l 1
 1776 255 l 1
944 255 m 1
 1197 255 l 1
 1197 0 l 1
 944 0 l 1
 944 255 l 1
112 255 m 1
 365 255 l 1
 365 0 l 1
 112 0 l 1
 112 255 l 1
EndSplineSet
EndUndoOperation
UndoOperation
Index: 1
Type: 1
WasModified: 1
WasOrder2: 0
Width: 1427
VWidth: 0
LBearingChange: 0
UnicodeEnc: 0
InstructionsLength: 0
SplineSet
1776 255 m 1
 2029 255 l 1
 2029 0 l 1
 1776 0 l 1
 1776 255 l 1
944 255 m 1
 1197 255 l 1
 1197 0 l 1
 944 0 l 1
 944 255 l 1
112 255 m 1
 365 255 l 1
 365 0 l 1
 112 0 l 1
 112 255 l 1
EndSplineSet
EndUndoOperation
UndoOperation
Index: 2
Type: 1
WasModified: 0
WasOrder2: 0
Width: 1427
VWidth: 0
LBearingChange: 0
UnicodeEnc: 0
InstructionsLength: 0
SplineSet
112 255 m 1
 365 255 l 1
 365 0 l 1
 112 0 l 1
 112 255 l 1
944 255 m 1
 1197 255 l 1
 1197 0 l 1
 944 0 l 1
 944 255 l 1
1776 255 m 1
 2029 255 l 1
 2029 0 l 1
 1776 0 l 1
 1776 255 l 1
EndSplineSet
EndUndoOperation
EndUndoes
Redoes
EndRedoes
EndUndoRedoHistory
Fore
SplineSet
1776 255 m 1
 2029 255 l 1
 2029 0 l 1
 1776 0 l 1
 1776 255 l 1
944 255 m 1
 1197 255 l 1
 1197 0 l 1
 944 0 l 1
 944 255 l 1
112 255 m 1
 365 255 l 1
 365 0 l 1
 112 0 l 1
 112 255 l 1
EndSplineSet
EndChar

StartChar: emdash
Encoding: 8212 8212 75
Width: 1101
VWidth: 0
Flags: HW
PickledData: "(dp1
S'com.typemytype.robofont.layerData'
p2
(dp3
S'b'
(dp4
S'name'
p5
S'emdash'
p6
sS'lib'
p7
(dp8
sS'unicodes'
p9
(tsS'width'
p10
I1101
sS'contours'
p11
(tsS'components'
p12
(tsS'anchors'
p13
(tsss."
LayerCount: 2
UndoRedoHistory
Layer: 1
Undoes
UndoOperation
Index: 0
Type: 1
WasModified: 0
WasOrder2: 0
Width: 1101
VWidth: 0
LBearingChange: 0
UnicodeEnc: 0
InstructionsLength: 0
SplineSet
2 548 m 1
 1098 548 l 1
 1098 402 l 1
 2 402 l 1
 2 548 l 1
EndSplineSet
EndUndoOperation
UndoOperation
Index: 1
Type: 1
WasModified: 1
WasOrder2: 0
Width: 1101
VWidth: 0
LBearingChange: 0
UnicodeEnc: 0
InstructionsLength: 0
SplineSet
2 548 m 1
 1098 548 l 1
 1098 402 l 1
 2 402 l 1
 2 548 l 1
EndSplineSet
EndUndoOperation
UndoOperation
Index: 2
Type: 1
WasModified: 0
WasOrder2: 0
Width: 1101
VWidth: 0
LBearingChange: 0
UnicodeEnc: 0
InstructionsLength: 0
SplineSet
2 548 m 1
 1098 548 l 1
 1098 402 l 1
 2 402 l 1
 2 548 l 1
EndSplineSet
EndUndoOperation
EndUndoes
Redoes
EndRedoes
EndUndoRedoHistory
Fore
SplineSet
2 548 m 1
 1098 548 l 1
 1098 402 l 1
 2 402 l 1
 2 548 l 1
EndSplineSet
EndChar

StartChar: endash
Encoding: 8211 8211 76
Width: 539
VWidth: 0
Flags: HW
PickledData: "(dp1
S'com.typemytype.robofont.layerData'
p2
(dp3
S'b'
(dp4
S'name'
p5
S'endash'
p6
sS'lib'
p7
(dp8
sS'unicodes'
p9
(tsS'width'
p10
I539
sS'contours'
p11
(tsS'components'
p12
(tsS'anchors'
p13
(tsss."
LayerCount: 2
UndoRedoHistory
Layer: 1
Undoes
UndoOperation
Index: 0
Type: 1
WasModified: 0
WasOrder2: 0
Width: 539
VWidth: 0
LBearingChange: 0
UnicodeEnc: 0
InstructionsLength: 0
SplineSet
2 732 m 1
 535 732 l 1
 535 606 l 1
 2 606 l 1
 2 732 l 1
EndSplineSet
EndUndoOperation
UndoOperation
Index: 1
Type: 1
WasModified: 1
WasOrder2: 0
Width: 539
VWidth: 0
LBearingChange: 0
UnicodeEnc: 0
InstructionsLength: 0
SplineSet
2 732 m 1
 535 732 l 1
 535 606 l 1
 2 606 l 1
 2 732 l 1
EndSplineSet
EndUndoOperation
UndoOperation
Index: 2
Type: 1
WasModified: 0
WasOrder2: 0
Width: 539
VWidth: 0
LBearingChange: 0
UnicodeEnc: 0
InstructionsLength: 0
SplineSet
2 732 m 1
 535 732 l 1
 535 606 l 1
 2 606 l 1
 2 732 l 1
EndSplineSet
EndUndoOperation
EndUndoes
Redoes
EndRedoes
EndUndoRedoHistory
Fore
SplineSet
2 732 m 1
 535 732 l 1
 535 606 l 1
 2 606 l 1
 2 732 l 1
EndSplineSet
EndChar

StartChar: equal
Encoding: 61 61 77
Width: 1217
VWidth: 0
Flags: HW
PickledData: "(dp1
S'com.typemytype.robofont.layerData'
p2
(dp3
S'b'
(dp4
S'name'
p5
S'equal'
p6
sS'lib'
p7
(dp8
sS'unicodes'
p9
(tsS'width'
p10
I1217
sS'contours'
p11
(tsS'components'
p12
(tsS'anchors'
p13
(tsss."
LayerCount: 2
UndoRedoHistory
Layer: 1
Undoes
UndoOperation
Index: 0
Type: 1
WasModified: 0
WasOrder2: 0
Width: 1217
VWidth: 0
LBearingChange: 0
UnicodeEnc: 0
InstructionsLength: 0
SplineSet
207 953 m 1
 1010 953 l 1
 1010 805 l 1
 207 805 l 1
 207 953 l 1
207 615 m 1
 1010 615 l 1
 1010 467 l 1
 207 467 l 1
 207 615 l 1
EndSplineSet
EndUndoOperation
UndoOperation
Index: 1
Type: 1
WasModified: 1
WasOrder2: 0
Width: 1217
VWidth: 0
LBearingChange: 0
UnicodeEnc: 0
InstructionsLength: 0
SplineSet
207 953 m 1
 1010 953 l 1
 1010 805 l 1
 207 805 l 1
 207 953 l 1
207 615 m 1
 1010 615 l 1
 1010 467 l 1
 207 467 l 1
 207 615 l 1
EndSplineSet
EndUndoOperation
UndoOperation
Index: 2
Type: 1
WasModified: 0
WasOrder2: 0
Width: 1217
VWidth: 0
LBearingChange: 0
UnicodeEnc: 0
InstructionsLength: 0
SplineSet
207 615 m 1
 1010 615 l 1
 1010 467 l 1
 207 467 l 1
 207 615 l 1
207 953 m 1
 1010 953 l 1
 1010 805 l 1
 207 805 l 1
 207 953 l 1
EndSplineSet
EndUndoOperation
EndUndoes
Redoes
EndRedoes
EndUndoRedoHistory
Fore
SplineSet
207 953 m 1
 1010 953 l 1
 1010 805 l 1
 207 805 l 1
 207 953 l 1
207 615 m 1
 1010 615 l 1
 1010 467 l 1
 207 467 l 1
 207 615 l 1
EndSplineSet
EndChar

StartChar: eth
Encoding: 240 240 78
Width: 841
VWidth: 0
Flags: HW
PickledData: "(dp1
S'com.typemytype.robofont.layerData'
p2
(dp3
S'b'
(dp4
S'name'
p5
S'eth'
p6
sS'lib'
p7
(dp8
sS'unicodes'
p9
(tsS'width'
p10
I841
sS'contours'
p11
(tsS'components'
p12
(tsS'anchors'
p13
(tsss."
LayerCount: 2
UndoRedoHistory
Layer: 1
Undoes
UndoOperation
Index: 0
Type: 1
WasModified: 0
WasOrder2: 0
Width: 841
VWidth: 0
LBearingChange: 0
UnicodeEnc: 0
InstructionsLength: 0
SplineSet
501 753 m 2
 501 787 461 805 416 805 c 0
 371 805 331 787 331 748 c 2
 331 254 l 2
 331 219 336 178 411 178 c 0
 490 178 501 218 501 254 c 2
 501 753 l 2
168 1309 m 1
 232 1483 l 1
 452 1483 589 1418 653 1341 c 1
 766 1393 l 1
 818 1285 l 1
 711 1236 l 1
 745 1150 765 1056 765 948 c 2
 765 251 l 2
 765 83 623 -20 411 -20 c 0
 204 -20 68 83 68 251 c 2
 68 768 l 2
 68 918 178 1002 296 1002 c 0
 353 1002 433 989 498 963 c 1
 496 1027 489 1083 472 1129 c 1
 286 1074 l 1
 235 1182 l 1
 386 1237 l 1
 326 1269 257 1309 168 1309 c 1
EndSplineSet
EndUndoOperation
UndoOperation
Index: 1
Type: 1
WasModified: 1
WasOrder2: 0
Width: 841
VWidth: 0
LBearingChange: 0
UnicodeEnc: 0
InstructionsLength: 0
SplineSet
501 753 m 2
 501 787 461 805 416 805 c 0
 371 805 331 787 331 748 c 2
 331 254 l 2
 331 219 336 178 411 178 c 0
 490 178 501 218 501 254 c 2
 501 753 l 2
168 1309 m 1
 232 1483 l 1
 452 1483 589 1418 653 1341 c 1
 766 1393 l 1
 818 1285 l 1
 711 1236 l 1
 745 1150 765 1056 765 948 c 2
 765 251 l 2
 765 83 623 -20 411 -20 c 0
 204 -20 68 83 68 251 c 2
 68 768 l 2
 68 918 178 1002 296 1002 c 0
 353 1002 433 989 498 963 c 1
 496 1027 489 1083 472 1129 c 1
 286 1074 l 1
 235 1182 l 1
 386 1237 l 1
 326 1269 257 1309 168 1309 c 1
EndSplineSet
EndUndoOperation
UndoOperation
Index: 2
Type: 1
WasModified: 0
WasOrder2: 0
Width: 841
VWidth: 0
LBearingChange: 0
UnicodeEnc: 0
InstructionsLength: 0
SplineSet
168 1309 m 1
 232 1483 l 1
 452 1483 589 1418 653 1341 c 1
 766 1393 l 1
 818 1285 l 1
 711 1236 l 1
 745 1150 765 1056 765 948 c 2
 765 251 l 2
 765 83 623 -20 411 -20 c 0
 204 -20 68 83 68 251 c 2
 68 768 l 2
 68 918 178 1002 296 1002 c 0
 353 1002 433 989 498 963 c 1
 496 1027 489 1083 472 1129 c 1
 286 1074 l 1
 235 1182 l 1
 386 1237 l 1
 326 1269 257 1309 168 1309 c 1
501 753 m 2
 501 787 461 805 416 805 c 0
 371 805 331 787 331 748 c 2
 331 254 l 2
 331 219 336 178 411 178 c 0
 490 178 501 218 501 254 c 2
 501 753 l 2
EndSplineSet
EndUndoOperation
EndUndoes
Redoes
EndRedoes
EndUndoRedoHistory
Fore
SplineSet
501 753 m 2
 501 787 461 805 416 805 c 0
 371 805 331 787 331 748 c 2
 331 254 l 2
 331 219 336 178 411 178 c 0
 490 178 501 218 501 254 c 2
 501 753 l 2
168 1309 m 1
 232 1483 l 1
 452 1483 589 1418 653 1341 c 1
 766 1393 l 1
 818 1285 l 1
 711 1236 l 1
 745 1150 765 1056 765 948 c 2
 765 251 l 2
 765 83 623 -20 411 -20 c 0
 204 -20 68 83 68 251 c 2
 68 768 l 2
 68 918 178 1002 296 1002 c 0
 353 1002 433 989 498 963 c 1
 496 1027 489 1083 472 1129 c 1
 286 1074 l 1
 235 1182 l 1
 386 1237 l 1
 326 1269 257 1309 168 1309 c 1
EndSplineSet
EndChar

StartChar: exclam
Encoding: 33 33 79
Width: 680
VWidth: 0
Flags: HW
PickledData: "(dp1
S'com.typemytype.robofont.layerData'
p2
(dp3
S'b'
(dp4
S'name'
p5
S'exclam'
p6
sS'lib'
p7
(dp8
sS'unicodes'
p9
(tsS'width'
p10
I680
sS'contours'
p11
(tsS'components'
p12
(tsS'anchors'
p13
(tsss."
LayerCount: 2
UndoRedoHistory
Layer: 1
Undoes
UndoOperation
Index: 0
Type: 1
WasModified: 0
WasOrder2: 0
Width: 680
VWidth: 0
LBearingChange: 0
UnicodeEnc: 0
InstructionsLength: 0
SplineSet
249 1446 m 1
 451 1446 l 1
 451 1060 372 371 372 371 c 1
 316 371 l 1
 316 371 249 1060 249 1446 c 1
242 206 m 1
 447 206 l 1
 447 0 l 1
 242 0 l 1
 242 206 l 1
EndSplineSet
EndUndoOperation
UndoOperation
Index: 1
Type: 1
WasModified: 1
WasOrder2: 0
Width: 680
VWidth: 0
LBearingChange: 0
UnicodeEnc: 0
InstructionsLength: 0
SplineSet
249 1446 m 1
 451 1446 l 1
 451 1060 372 371 372 371 c 1
 316 371 l 1
 316 371 249 1060 249 1446 c 1
242 206 m 1
 447 206 l 1
 447 0 l 1
 242 0 l 1
 242 206 l 1
EndSplineSet
EndUndoOperation
UndoOperation
Index: 2
Type: 1
WasModified: 0
WasOrder2: 0
Width: 680
VWidth: 0
LBearingChange: 0
UnicodeEnc: 0
InstructionsLength: 0
SplineSet
242 206 m 1
 447 206 l 1
 447 0 l 1
 242 0 l 1
 242 206 l 1
249 1446 m 1
 451 1446 l 1
 451 1060 372 371 372 371 c 1
 316 371 l 1
 316 371 249 1060 249 1446 c 1
EndSplineSet
EndUndoOperation
EndUndoes
Redoes
EndRedoes
EndUndoRedoHistory
Fore
SplineSet
249 1446 m 1
 451 1446 l 1
 451 1060 372 371 372 371 c 1
 316 371 l 1
 316 371 249 1060 249 1446 c 1
242 206 m 1
 447 206 l 1
 447 0 l 1
 242 0 l 1
 242 206 l 1
EndSplineSet
EndChar

StartChar: exclamdown
Encoding: 161 161 80
Width: 468
VWidth: 0
Flags: HW
PickledData: "(dp1
S'com.typemytype.robofont.layerData'
p2
(dp3
S'b'
(dp4
S'name'
p5
S'exclamdown'
p6
sS'lib'
p7
(dp8
sS'unicodes'
p9
(tsS'width'
p10
I468
sS'contours'
p11
(tsS'components'
p12
(tsS'anchors'
p13
(tsss."
LayerCount: 2
UndoRedoHistory
Layer: 1
Undoes
UndoOperation
Index: 0
Type: 1
WasModified: 0
WasOrder2: 0
Width: 468
VWidth: 0
LBearingChange: 0
UnicodeEnc: 0
InstructionsLength: 0
SplineSet
347 -362 m 1
 145 -362 l 1
 214 713 l 1
 290 713 l 1
 347 -362 l 1
349 878 m 1
 144 878 l 1
 144 1084 l 1
 349 1084 l 1
 349 878 l 1
EndSplineSet
EndUndoOperation
UndoOperation
Index: 1
Type: 1
WasModified: 1
WasOrder2: 0
Width: 468
VWidth: 0
LBearingChange: 0
UnicodeEnc: 0
InstructionsLength: 0
SplineSet
347 -362 m 1
 145 -362 l 1
 214 713 l 1
 290 713 l 1
 347 -362 l 1
349 878 m 1
 144 878 l 1
 144 1084 l 1
 349 1084 l 1
 349 878 l 1
EndSplineSet
EndUndoOperation
UndoOperation
Index: 2
Type: 1
WasModified: 0
WasOrder2: 0
Width: 468
VWidth: 0
LBearingChange: 0
UnicodeEnc: 0
InstructionsLength: 0
SplineSet
349 878 m 1
 144 878 l 1
 144 1084 l 1
 349 1084 l 1
 349 878 l 1
347 -362 m 1
 145 -362 l 1
 214 713 l 1
 290 713 l 1
 347 -362 l 1
EndSplineSet
EndUndoOperation
EndUndoes
Redoes
EndRedoes
EndUndoRedoHistory
Fore
SplineSet
347 -362 m 1
 145 -362 l 1
 214 713 l 1
 290 713 l 1
 347 -362 l 1
349 878 m 1
 144 878 l 1
 144 1084 l 1
 349 1084 l 1
 349 878 l 1
EndSplineSet
EndChar

StartChar: f
Encoding: 102 102 81
Width: 789
VWidth: 0
Flags: HW
PickledData: "(dp1
S'com.typemytype.robofont.layerData'
p2
(dp3
S'b'
(dp4
S'name'
p5
S'f'
sS'lib'
p6
(dp7
sS'unicodes'
p8
(tsS'width'
p9
I789
sS'contours'
p10
(tsS'components'
p11
(tsS'anchors'
p12
(tsss."
LayerCount: 2
UndoRedoHistory
Layer: 1
Undoes
UndoOperation
Index: 0
Type: 1
WasModified: 0
WasOrder2: 0
Width: 789
VWidth: 0
LBearingChange: 0
UnicodeEnc: 0
InstructionsLength: 0
SplineSet
576 1434 m 2
 695 1434 l 1
 695 1301 l 1
 611 1301 l 2
 476 1301 470 1244 470 1168 c 2
 470 1060 l 1
 697 1060 l 1
 697 943 l 1
 470 943 l 1
 470 0 l 1
 282 0 l 1
 282 943 l 1
 105 943 l 1
 105 1060 l 1
 282 1060 l 1
 282 1137 l 2
 282 1335 358 1434 576 1434 c 2
EndSplineSet
EndUndoOperation
UndoOperation
Index: 1
Type: 1
WasModified: 1
WasOrder2: 0
Width: 789
VWidth: 0
LBearingChange: 0
UnicodeEnc: 0
InstructionsLength: 0
SplineSet
576 1434 m 2
 695 1434 l 1
 695 1301 l 1
 611 1301 l 2
 476 1301 470 1244 470 1168 c 2
 470 1060 l 1
 697 1060 l 1
 697 943 l 1
 470 943 l 1
 470 0 l 1
 282 0 l 1
 282 943 l 1
 105 943 l 1
 105 1060 l 1
 282 1060 l 1
 282 1137 l 2
 282 1335 358 1434 576 1434 c 2
EndSplineSet
EndUndoOperation
UndoOperation
Index: 2
Type: 1
WasModified: 0
WasOrder2: 0
Width: 789
VWidth: 0
LBearingChange: 0
UnicodeEnc: 0
InstructionsLength: 0
SplineSet
576 1434 m 2
 695 1434 l 1
 695 1301 l 1
 611 1301 l 2
 476 1301 470 1244 470 1168 c 2
 470 1060 l 1
 697 1060 l 1
 697 943 l 1
 470 943 l 1
 470 0 l 1
 282 0 l 1
 282 943 l 1
 105 943 l 1
 105 1060 l 1
 282 1060 l 1
 282 1137 l 2
 282 1335 358 1434 576 1434 c 2
EndSplineSet
EndUndoOperation
EndUndoes
Redoes
EndRedoes
EndUndoRedoHistory
Fore
SplineSet
576 1434 m 2
 695 1434 l 1
 695 1301 l 1
 611 1301 l 2
 476 1301 470 1244 470 1168 c 2
 470 1060 l 1
 697 1060 l 1
 697 943 l 1
 470 943 l 1
 470 0 l 1
 282 0 l 1
 282 943 l 1
 105 943 l 1
 105 1060 l 1
 282 1060 l 1
 282 1137 l 2
 282 1335 358 1434 576 1434 c 2
EndSplineSet
EndChar

StartChar: fi
Encoding: 64257 64257 82
Width: 1248
VWidth: 0
Flags: HW
PickledData: "(dp1
S'com.typemytype.robofont.layerData'
p2
(dp3
S'b'
(dp4
S'name'
p5
S'fi'
p6
sS'lib'
p7
(dp8
sS'unicodes'
p9
(tsS'width'
p10
I1248
sS'contours'
p11
(tsS'components'
p12
(tsS'anchors'
p13
(tsss."
LayerCount: 2
UndoRedoHistory
Layer: 1
Undoes
UndoOperation
Index: 0
Type: 1
WasModified: 0
WasOrder2: 0
Width: 1248
VWidth: 0
LBearingChange: 0
UnicodeEnc: 0
Refer: 93 105 N 1 0 0 1 671 0 2
InstructionsLength: 0
SplineSet
557 1446 m 2
 663 1446 l 1
 663 1313 l 1
 592 1313 l 2
 457 1313 451 1256 451 1180 c 2
 451 1060 l 1
 935 1060 l 1
 935 943 l 1
 451 943 l 1
 451 0 l 1
 263 0 l 1
 263 943 l 1
 101 943 l 1
 101 1060 l 1
 263 1060 l 1
 263 1149 l 2
 263 1347 339 1446 557 1446 c 2
EndSplineSet
EndUndoOperation
UndoOperation
Index: 1
Type: 1
WasModified: 1
WasOrder2: 0
Width: 1248
VWidth: 0
LBearingChange: 0
UnicodeEnc: 0
Refer: 93 105 N 1 0 0 1 671 0 2
InstructionsLength: 0
SplineSet
557 1446 m 2
 663 1446 l 1
 663 1313 l 1
 592 1313 l 2
 457 1313 451 1256 451 1180 c 2
 451 1060 l 1
 935 1060 l 1
 935 943 l 1
 451 943 l 1
 451 0 l 1
 263 0 l 1
 263 943 l 1
 101 943 l 1
 101 1060 l 1
 263 1060 l 1
 263 1149 l 2
 263 1347 339 1446 557 1446 c 2
EndSplineSet
EndUndoOperation
UndoOperation
Index: 2
Type: 1
WasModified: 0
WasOrder2: 0
Width: 1248
VWidth: 0
LBearingChange: 0
UnicodeEnc: 0
Refer: 93 105 N 1 0 0 1 671 0 2
InstructionsLength: 0
SplineSet
557 1446 m 2
 663 1446 l 1
 663 1313 l 1
 592 1313 l 2
 457 1313 451 1256 451 1180 c 2
 451 1060 l 1
 935 1060 l 1
 935 943 l 1
 451 943 l 1
 451 0 l 1
 263 0 l 1
 263 943 l 1
 101 943 l 1
 101 1060 l 1
 263 1060 l 1
 263 1149 l 2
 263 1347 339 1446 557 1446 c 2
EndSplineSet
EndUndoOperation
EndUndoes
Redoes
EndRedoes
EndUndoRedoHistory
Fore
SplineSet
557 1446 m 2
 663 1446 l 1
 663 1313 l 1
 592 1313 l 2
 457 1313 451 1256 451 1180 c 2
 451 1060 l 1
 935 1060 l 1
 935 943 l 1
 451 943 l 1
 451 0 l 1
 263 0 l 1
 263 943 l 1
 101 943 l 1
 101 1060 l 1
 263 1060 l 1
 263 1149 l 2
 263 1347 339 1446 557 1446 c 2
EndSplineSet
Refer: 93 105 N 1 0 0 1 671 0 2
EndChar

StartChar: fl
Encoding: 64258 64258 84
Width: 1377
VWidth: 0
Flags: HW
PickledData: "(dp1
S'com.typemytype.robofont.layerData'
p2
(dp3
S'b'
(dp4
S'name'
p5
S'fl'
p6
sS'lib'
p7
(dp8
sS'unicodes'
p9
(tsS'width'
p10
I1377
sS'contours'
p11
(tsS'components'
p12
(tsS'anchors'
p13
(tsss."
LayerCount: 2
UndoRedoHistory
Layer: 1
Undoes
UndoOperation
Index: 0
Type: 1
WasModified: 0
WasOrder2: 0
Width: 1377
VWidth: 0
LBearingChange: 0
UnicodeEnc: 0
InstructionsLength: 0
SplineSet
1086 1446 m 1
 1086 360 l 2
 1086 217 1104 145 1291 145 c 2
 1320 145 l 1
 1320 0 l 1
 1248 0 l 2
 1016 0 898 83 898 362 c 2
 898 1313 l 1
 622 1313 l 2
 488 1313 451 1224 451 1148 c 2
 451 1060 l 1
 666 1060 l 1
 666 943 l 1
 451 943 l 1
 451 0 l 1
 263 0 l 1
 263 943 l 1
 101 943 l 1
 101 1060 l 1
 263 1060 l 1
 263 1258 369 1446 587 1446 c 2
 1086 1446 l 1
EndSplineSet
EndUndoOperation
UndoOperation
Index: 1
Type: 1
WasModified: 1
WasOrder2: 0
Width: 1377
VWidth: 0
LBearingChange: 0
UnicodeEnc: 0
InstructionsLength: 0
SplineSet
1086 1446 m 1
 587 1446 l 2
 369 1446 263 1258 263 1060 c 1
 101 1060 l 1
 101 943 l 1
 263 943 l 1
 263 0 l 1
 451 0 l 1
 451 943 l 1
 666 943 l 1
 666 1060 l 1
 451 1060 l 1
 451 1148 l 2
 451 1224 488 1313 622 1313 c 2
 898 1313 l 1
 898 362 l 2
 898 83 1016 0 1248 0 c 2
 1320 0 l 1
 1320 145 l 1
 1291 145 l 2
 1104 145 1086 217 1086 360 c 2
 1086 1446 l 1
EndSplineSet
EndUndoOperation
UndoOperation
Index: 2
Type: 1
WasModified: 0
WasOrder2: 0
Width: 1377
VWidth: 0
LBearingChange: 0
UnicodeEnc: 0
InstructionsLength: 0
SplineSet
1086 1446 m 1
 587 1446 l 2
 369 1446 263 1258 263 1060 c 1
 101 1060 l 1
 101 943 l 1
 263 943 l 1
 263 0 l 1
 451 0 l 1
 451 943 l 1
 666 943 l 1
 666 1060 l 1
 451 1060 l 1
 451 1148 l 2
 451 1224 488 1313 622 1313 c 2
 898 1313 l 1
 898 362 l 2
 898 83 1016 0 1248 0 c 2
 1320 0 l 1
 1320 145 l 1
 1291 145 l 2
 1104 145 1086 217 1086 360 c 2
 1086 1446 l 1
EndSplineSet
EndUndoOperation
EndUndoes
Redoes
EndRedoes
EndUndoRedoHistory
Fore
SplineSet
1086 1446 m 1
 1086 360 l 2
 1086 217 1104 145 1291 145 c 2
 1320 145 l 1
 1320 0 l 1
 1248 0 l 2
 1016 0 898 83 898 362 c 2
 898 1313 l 1
 622 1313 l 2
 488 1313 451 1224 451 1148 c 2
 451 1060 l 1
 666 1060 l 1
 666 943 l 1
 451 943 l 1
 451 0 l 1
 263 0 l 1
 263 943 l 1
 101 943 l 1
 101 1060 l 1
 263 1060 l 1
 263 1258 369 1446 587 1446 c 2
 1086 1446 l 1
EndSplineSet
EndChar

StartChar: florin
Encoding: 402 402 85
Width: 890
VWidth: 0
Flags: HW
PickledData: "(dp1
S'com.typemytype.robofont.layerData'
p2
(dp3
S'b'
(dp4
S'name'
p5
S'florin'
p6
sS'lib'
p7
(dp8
sS'unicodes'
p9
(tsS'width'
p10
I890
sS'contours'
p11
(tsS'components'
p12
(tsS'anchors'
p13
(tsss."
LayerCount: 2
UndoRedoHistory
Layer: 1
Undoes
UndoOperation
Index: 0
Type: 1
WasModified: 0
WasOrder2: 0
Width: 890
VWidth: 0
LBearingChange: 0
UnicodeEnc: 0
InstructionsLength: 0
SplineSet
710 1334 m 1
 695 1335 681 1336 668 1336 c 0
 521 1336 521 1247 521 1177 c 2
 521 858 l 1
 650 858 l 1
 650 727 l 1
 521 727 l 1
 521 91 l 2
 521 -81 494 -191 253 -191 c 0
 220 -191 190 -189 141 -183 c 1
 141 -59 l 1
 164 -61 184 -62 201 -62 c 0
 333 -62 333 -1 333 63 c 2
 333 727 l 1
 216 727 l 1
 216 858 l 1
 333 858 l 1
 333 1155 l 2
 333 1321 353 1466 560 1466 c 0
 594 1466 654 1464 710 1458 c 1
 710 1334 l 1
EndSplineSet
EndUndoOperation
UndoOperation
Index: 1
Type: 1
WasModified: 1
WasOrder2: 0
Width: 890
VWidth: 0
LBearingChange: 0
UnicodeEnc: 0
InstructionsLength: 0
SplineSet
710 1334 m 1
 695 1335 681 1336 668 1336 c 0
 521 1336 521 1247 521 1177 c 2
 521 858 l 1
 650 858 l 1
 650 727 l 1
 521 727 l 1
 521 91 l 2
 521 -81 494 -191 253 -191 c 0
 220 -191 190 -189 141 -183 c 1
 141 -59 l 1
 164 -61 184 -62 201 -62 c 0
 333 -62 333 -1 333 63 c 2
 333 727 l 1
 216 727 l 1
 216 858 l 1
 333 858 l 1
 333 1155 l 2
 333 1321 353 1466 560 1466 c 0
 594 1466 654 1464 710 1458 c 1
 710 1334 l 1
EndSplineSet
EndUndoOperation
UndoOperation
Index: 2
Type: 1
WasModified: 0
WasOrder2: 0
Width: 890
VWidth: 0
LBearingChange: 0
UnicodeEnc: 0
InstructionsLength: 0
SplineSet
710 1334 m 1
 695 1335 681 1336 668 1336 c 0
 521 1336 521 1247 521 1177 c 2
 521 858 l 1
 650 858 l 1
 650 727 l 1
 521 727 l 1
 521 91 l 2
 521 -81 494 -191 253 -191 c 0
 220 -191 190 -189 141 -183 c 1
 141 -59 l 1
 164 -61 184 -62 201 -62 c 0
 333 -62 333 -1 333 63 c 2
 333 727 l 1
 216 727 l 1
 216 858 l 1
 333 858 l 1
 333 1155 l 2
 333 1321 353 1466 560 1466 c 0
 594 1466 654 1464 710 1458 c 1
 710 1334 l 1
EndSplineSet
EndUndoOperation
EndUndoes
Redoes
EndRedoes
EndUndoRedoHistory
Fore
SplineSet
710 1334 m 1
 695 1335 681 1336 668 1336 c 0
 521 1336 521 1247 521 1177 c 2
 521 858 l 1
 650 858 l 1
 650 727 l 1
 521 727 l 1
 521 91 l 2
 521 -81 494 -191 253 -191 c 0
 220 -191 190 -189 141 -183 c 1
 141 -59 l 1
 164 -61 184 -62 201 -62 c 0
 333 -62 333 -1 333 63 c 2
 333 727 l 1
 216 727 l 1
 216 858 l 1
 333 858 l 1
 333 1155 l 2
 333 1321 353 1466 560 1466 c 0
 594 1466 654 1464 710 1458 c 1
 710 1334 l 1
EndSplineSet
EndChar

StartChar: fraction
Encoding: 8260 8260 86
Width: 979
VWidth: 0
Flags: HW
PickledData: "(dp1
S'com.typemytype.robofont.layerData'
p2
(dp3
S'b'
(dp4
S'name'
p5
S'fraction'
p6
sS'lib'
p7
(dp8
sS'unicodes'
p9
(tsS'width'
p10
I979
sS'contours'
p11
(tsS'components'
p12
(tsS'anchors'
p13
(tsss."
LayerCount: 2
UndoRedoHistory
Layer: 1
Undoes
UndoOperation
Index: 0
Type: 1
WasModified: 0
WasOrder2: 0
Width: 979
VWidth: 0
LBearingChange: 0
UnicodeEnc: 0
InstructionsLength: 0
SplineSet
665 1446 m 1
 858 1446 l 1
 320 0 l 1
 125 0 l 1
 665 1446 l 1
EndSplineSet
EndUndoOperation
UndoOperation
Index: 1
Type: 1
WasModified: 1
WasOrder2: 0
Width: 979
VWidth: 0
LBearingChange: 0
UnicodeEnc: 0
InstructionsLength: 0
SplineSet
665 1446 m 1
 858 1446 l 1
 320 0 l 1
 125 0 l 1
 665 1446 l 1
EndSplineSet
EndUndoOperation
UndoOperation
Index: 2
Type: 1
WasModified: 0
WasOrder2: 0
Width: 979
VWidth: 0
LBearingChange: 0
UnicodeEnc: 0
InstructionsLength: 0
SplineSet
665 1446 m 1
 858 1446 l 1
 320 0 l 1
 125 0 l 1
 665 1446 l 1
EndSplineSet
EndUndoOperation
EndUndoes
Redoes
EndRedoes
EndUndoRedoHistory
Fore
SplineSet
665 1446 m 1
 858 1446 l 1
 320 0 l 1
 125 0 l 1
 665 1446 l 1
EndSplineSet
EndChar

StartChar: g
Encoding: 103 103 87
Width: 1186
VWidth: 0
Flags: HW
PickledData: "(dp1
S'com.typemytype.robofont.layerData'
p2
(dp3
S'b'
(dp4
S'name'
p5
S'g'
sS'lib'
p6
(dp7
sS'unicodes'
p8
(tsS'width'
p9
I1186
sS'contours'
p10
(tsS'components'
p11
(tsS'anchors'
p12
(tsss."
LayerCount: 2
UndoRedoHistory
Layer: 1
Undoes
UndoOperation
Index: 0
Type: 1
WasModified: 0
WasOrder2: 0
Width: 1186
VWidth: 0
LBearingChange: 0
UnicodeEnc: 0
InstructionsLength: 0
SplineSet
1017 30 m 2
 1017 -188 890 -350 610 -350 c 0
 467 -350 350 -335 252 -282 c 1
 304 -143 l 1
 343 -169 471 -210 604 -210 c 0
 796 -210 829 -100 829 -23 c 2
 829 110 l 1
 769 54 656 25 583 25 c 0
 312 25 150 142 150 362 c 2
 150 728 l 2
 150 941 281 1076 557 1076 c 0
 665 1076 799 1025 829 975 c 1
 829 1060 l 1
 1017 1060 l 1
 1017 30 l 2
585 935 m 0
 437 935 338 878 338 748 c 2
 338 333 l 2
 338 206 444 167 582 167 c 0
 722 167 799 225 829 249 c 1
 829 810 l 2
 829 869 752 935 585 935 c 0
EndSplineSet
EndUndoOperation
UndoOperation
Index: 1
Type: 1
WasModified: 1
WasOrder2: 0
Width: 1186
VWidth: 0
LBearingChange: 0
UnicodeEnc: 0
InstructionsLength: 0
SplineSet
1017 30 m 2
 1017 1060 l 1
 829 1060 l 1
 829 975 l 1
 799 1025 665 1076 557 1076 c 0
 281 1076 150 941 150 728 c 2
 150 362 l 2
 150 142 312 25 583 25 c 0
 656 25 769 54 829 110 c 1
 829 -23 l 2
 829 -100 796 -210 604 -210 c 0
 471 -210 343 -169 304 -143 c 1
 252 -282 l 1
 350 -335 467 -350 610 -350 c 0
 890 -350 1017 -188 1017 30 c 2
585 935 m 0
 752 935 829 869 829 810 c 2
 829 249 l 1
 799 225 722 167 582 167 c 0
 444 167 338 206 338 333 c 2
 338 748 l 2
 338 878 437 935 585 935 c 0
EndSplineSet
EndUndoOperation
UndoOperation
Index: 2
Type: 1
WasModified: 0
WasOrder2: 0
Width: 1186
VWidth: 0
LBearingChange: 0
UnicodeEnc: 0
InstructionsLength: 0
SplineSet
585 935 m 0
 752 935 829 869 829 810 c 2
 829 249 l 1
 799 225 722 167 582 167 c 0
 444 167 338 206 338 333 c 2
 338 748 l 2
 338 878 437 935 585 935 c 0
1017 30 m 2
 1017 1060 l 1
 829 1060 l 1
 829 975 l 1
 799 1025 665 1076 557 1076 c 0
 281 1076 150 941 150 728 c 2
 150 362 l 2
 150 142 312 25 583 25 c 0
 656 25 769 54 829 110 c 1
 829 -23 l 2
 829 -100 796 -210 604 -210 c 0
 471 -210 343 -169 304 -143 c 1
 252 -282 l 1
 350 -335 467 -350 610 -350 c 0
 890 -350 1017 -188 1017 30 c 2
EndSplineSet
EndUndoOperation
EndUndoes
Redoes
EndRedoes
EndUndoRedoHistory
Fore
SplineSet
1017 30 m 2
 1017 -188 890 -350 610 -350 c 0
 467 -350 350 -335 252 -282 c 1
 304 -143 l 1
 343 -169 471 -210 604 -210 c 0
 796 -210 829 -100 829 -23 c 2
 829 110 l 1
 769 54 656 25 583 25 c 0
 312 25 150 142 150 362 c 2
 150 728 l 2
 150 941 281 1076 557 1076 c 0
 665 1076 799 1025 829 975 c 1
 829 1060 l 1
 1017 1060 l 1
 1017 30 l 2
585 935 m 0
 437 935 338 878 338 748 c 2
 338 333 l 2
 338 206 444 167 582 167 c 0
 722 167 799 225 829 249 c 1
 829 810 l 2
 829 869 752 935 585 935 c 0
EndSplineSet
EndChar

StartChar: grave
Encoding: 96 96 88
Width: 616
VWidth: 0
Flags: HW
PickledData: "(dp1
S'com.typemytype.robofont.layerData'
p2
(dp3
S'b'
(dp4
S'name'
p5
S'grave'
p6
sS'lib'
p7
(dp8
sS'unicodes'
p9
(tsS'width'
p10
I616
sS'contours'
p11
(tsS'components'
p12
(tsS'anchors'
p13
(tsss."
LayerCount: 2
UndoRedoHistory
Layer: 1
Undoes
UndoOperation
Index: 0
Type: 1
WasModified: 0
WasOrder2: 0
Width: 616
VWidth: 0
LBearingChange: 0
UnicodeEnc: 0
InstructionsLength: 0
SplineSet
115 1496 m 1
 340 1496 l 1
 478 1155 l 1
 372 1155 l 1
 115 1496 l 1
EndSplineSet
EndUndoOperation
UndoOperation
Index: 1
Type: 1
WasModified: 1
WasOrder2: 0
Width: 616
VWidth: 0
LBearingChange: 0
UnicodeEnc: 0
InstructionsLength: 0
SplineSet
115 1496 m 1
 340 1496 l 1
 478 1155 l 1
 372 1155 l 1
 115 1496 l 1
EndSplineSet
EndUndoOperation
UndoOperation
Index: 2
Type: 1
WasModified: 0
WasOrder2: 0
Width: 616
VWidth: 0
LBearingChange: 0
UnicodeEnc: 0
InstructionsLength: 0
SplineSet
115 1496 m 1
 340 1496 l 1
 478 1155 l 1
 372 1155 l 1
 115 1496 l 1
EndSplineSet
EndUndoOperation
EndUndoes
Redoes
EndRedoes
EndUndoRedoHistory
Fore
SplineSet
115 1496 m 1
 340 1496 l 1
 478 1155 l 1
 372 1155 l 1
 115 1496 l 1
EndSplineSet
EndChar

StartChar: greater
Encoding: 62 62 89
Width: 1455
VWidth: 0
Flags: HW
PickledData: "(dp1
S'com.typemytype.robofont.layerData'
p2
(dp3
S'b'
(dp4
S'name'
p5
S'greater'
p6
sS'lib'
p7
(dp8
sS'unicodes'
p9
(tsS'width'
p10
I1455
sS'contours'
p11
(tsS'components'
p12
(tsS'anchors'
p13
(tsss."
LayerCount: 2
UndoRedoHistory
Layer: 1
Undoes
UndoOperation
Index: 0
Type: 1
WasModified: 0
WasOrder2: 0
Width: 1455
VWidth: 0
LBearingChange: 0
UnicodeEnc: 0
InstructionsLength: 0
SplineSet
318 219 m 1
 1039 571 l 1
 318 927 l 1
 318 1144 l 1
 1204 673 l 1
 1204 472 l 1
 318 0 l 1
 318 219 l 1
EndSplineSet
EndUndoOperation
UndoOperation
Index: 1
Type: 1
WasModified: 1
WasOrder2: 0
Width: 1455
VWidth: 0
LBearingChange: 0
UnicodeEnc: 0
InstructionsLength: 0
SplineSet
318 219 m 1
 1039 571 l 1
 318 927 l 1
 318 1144 l 1
 1204 673 l 1
 1204 472 l 1
 318 0 l 1
 318 219 l 1
EndSplineSet
EndUndoOperation
UndoOperation
Index: 2
Type: 1
WasModified: 0
WasOrder2: 0
Width: 1455
VWidth: 0
LBearingChange: 0
UnicodeEnc: 0
InstructionsLength: 0
SplineSet
318 219 m 1
 1039 571 l 1
 318 927 l 1
 318 1144 l 1
 1204 673 l 1
 1204 472 l 1
 318 0 l 1
 318 219 l 1
EndSplineSet
EndUndoOperation
EndUndoes
Redoes
EndRedoes
EndUndoRedoHistory
Fore
SplineSet
318 219 m 1
 1039 571 l 1
 318 927 l 1
 318 1144 l 1
 1204 673 l 1
 1204 472 l 1
 318 0 l 1
 318 219 l 1
EndSplineSet
EndChar

StartChar: h
Encoding: 104 104 90
Width: 1214
VWidth: 0
Flags: HW
PickledData: "(dp1
S'com.typemytype.robofont.layerData'
p2
(dp3
S'b'
(dp4
S'name'
p5
S'h'
sS'lib'
p6
(dp7
sS'unicodes'
p8
(tsS'width'
p9
I1214
sS'contours'
p10
(tsS'components'
p11
(tsS'anchors'
p12
(tsss."
LayerCount: 2
UndoRedoHistory
Layer: 1
Undoes
UndoOperation
Index: 0
Type: 1
WasModified: 0
WasOrder2: 0
Width: 1214
VWidth: 0
LBearingChange: 0
UnicodeEnc: 0
InstructionsLength: 0
SplineSet
177 0 m 1
 177 1446 l 1
 365 1446 l 1
 365 961 l 1
 427 1033 528 1084 682 1084 c 0
 943 1084 1052 942 1052 774 c 2
 1052 0 l 1
 864 0 l 1
 864 787 l 2
 864 892 765 942 634 942 c 0
 450 942 365 861 365 759 c 2
 365 0 l 1
 177 0 l 1
EndSplineSet
EndUndoOperation
UndoOperation
Index: 1
Type: 1
WasModified: 1
WasOrder2: 0
Width: 1214
VWidth: 0
LBearingChange: 0
UnicodeEnc: 0
InstructionsLength: 0
SplineSet
177 0 m 1
 177 1446 l 1
 365 1446 l 1
 365 961 l 1
 427 1033 528 1084 682 1084 c 0
 943 1084 1052 942 1052 774 c 2
 1052 0 l 1
 864 0 l 1
 864 787 l 2
 864 892 765 942 634 942 c 0
 450 942 365 861 365 759 c 2
 365 0 l 1
 177 0 l 1
EndSplineSet
EndUndoOperation
UndoOperation
Index: 2
Type: 1
WasModified: 0
WasOrder2: 0
Width: 1214
VWidth: 0
LBearingChange: 0
UnicodeEnc: 0
InstructionsLength: 0
SplineSet
177 0 m 1
 177 1446 l 1
 365 1446 l 1
 365 961 l 1
 427 1033 528 1084 682 1084 c 0
 943 1084 1052 942 1052 774 c 2
 1052 0 l 1
 864 0 l 1
 864 787 l 2
 864 892 765 942 634 942 c 0
 450 942 365 861 365 759 c 2
 365 0 l 1
 177 0 l 1
EndSplineSet
EndUndoOperation
EndUndoes
Redoes
EndRedoes
EndUndoRedoHistory
Fore
SplineSet
177 0 m 1
 177 1446 l 1
 365 1446 l 1
 365 961 l 1
 427 1033 528 1084 682 1084 c 0
 943 1084 1052 942 1052 774 c 2
 1052 0 l 1
 864 0 l 1
 864 787 l 2
 864 892 765 942 634 942 c 0
 450 942 365 861 365 759 c 2
 365 0 l 1
 177 0 l 1
EndSplineSet
EndChar

StartChar: hungarumlaut
Encoding: 733 733 91
Width: 985
VWidth: 0
Flags: HW
PickledData: "(dp1
S'com.typemytype.robofont.layerData'
p2
(dp3
S'b'
(dp4
S'name'
p5
S'hungarumlaut'
p6
sS'lib'
p7
(dp8
sS'unicodes'
p9
(tsS'width'
p10
I985
sS'contours'
p11
(tsS'components'
p12
(tsS'anchors'
p13
(tsss."
LayerCount: 2
UndoRedoHistory
Layer: 1
Undoes
UndoOperation
Index: 0
Type: 1
WasModified: 0
WasOrder2: 0
Width: 985
VWidth: 0
LBearingChange: 0
UnicodeEnc: 0
InstructionsLength: 0
SplineSet
613 1638 m 1
 823 1638 l 1
 507 1163 l 1
 384 1163 l 1
 613 1638 l 1
249 1638 m 1
 460 1638 l 1
 241 1163 l 1
 143 1163 l 1
 249 1638 l 1
EndSplineSet
EndUndoOperation
UndoOperation
Index: 1
Type: 1
WasModified: 1
WasOrder2: 0
Width: 985
VWidth: 0
LBearingChange: 0
UnicodeEnc: 0
InstructionsLength: 0
SplineSet
613 1638 m 1
 823 1638 l 1
 507 1163 l 1
 384 1163 l 1
 613 1638 l 1
249 1638 m 1
 460 1638 l 1
 241 1163 l 1
 143 1163 l 1
 249 1638 l 1
EndSplineSet
EndUndoOperation
UndoOperation
Index: 2
Type: 1
WasModified: 0
WasOrder2: 0
Width: 985
VWidth: 0
LBearingChange: 0
UnicodeEnc: 0
InstructionsLength: 0
SplineSet
249 1638 m 1
 460 1638 l 1
 241 1163 l 1
 143 1163 l 1
 249 1638 l 1
613 1638 m 1
 823 1638 l 1
 507 1163 l 1
 384 1163 l 1
 613 1638 l 1
EndSplineSet
EndUndoOperation
EndUndoes
Redoes
EndRedoes
EndUndoRedoHistory
Fore
SplineSet
613 1638 m 1
 823 1638 l 1
 507 1163 l 1
 384 1163 l 1
 613 1638 l 1
249 1638 m 1
 460 1638 l 1
 241 1163 l 1
 143 1163 l 1
 249 1638 l 1
EndSplineSet
EndChar

StartChar: hyphen
Encoding: 45 45 92
Width: 942
VWidth: 0
Flags: HW
PickledData: "(dp1
S'com.typemytype.robofont.layerData'
p2
(dp3
S'b'
(dp4
S'name'
p5
S'hyphen'
p6
sS'lib'
p7
(dp8
sS'unicodes'
p9
(tsS'width'
p10
I942
sS'contours'
p11
(tsS'components'
p12
(tsS'anchors'
p13
(tsss."
LayerCount: 2
UndoRedoHistory
Layer: 1
Undoes
UndoOperation
Index: 0
Type: 1
WasModified: 0
WasOrder2: 0
Width: 942
VWidth: 0
LBearingChange: 0
UnicodeEnc: 0
InstructionsLength: 0
SplineSet
822 642 m 1
 822 494 l 1
 120 494 l 1
 120 642 l 1
 822 642 l 1
EndSplineSet
EndUndoOperation
UndoOperation
Index: 1
Type: 1
WasModified: 1
WasOrder2: 0
Width: 942
VWidth: 0
LBearingChange: 0
UnicodeEnc: 0
InstructionsLength: 0
SplineSet
822 642 m 1
 822 494 l 1
 120 494 l 1
 120 642 l 1
 822 642 l 1
EndSplineSet
EndUndoOperation
UndoOperation
Index: 2
Type: 1
WasModified: 0
WasOrder2: 0
Width: 942
VWidth: 0
LBearingChange: 0
UnicodeEnc: 0
InstructionsLength: 0
SplineSet
822 642 m 1
 822 494 l 1
 120 494 l 1
 120 642 l 1
 822 642 l 1
EndSplineSet
EndUndoOperation
EndUndoes
Redoes
EndRedoes
EndUndoRedoHistory
Fore
SplineSet
822 642 m 1
 822 494 l 1
 120 494 l 1
 120 642 l 1
 822 642 l 1
EndSplineSet
EndChar

StartChar: i
Encoding: 105 105 93
Width: 556
VWidth: 0
Flags: HW
PickledData: "(dp1
S'com.typemytype.robofont.layerData'
p2
(dp3
S'b'
(dp4
S'name'
p5
S'i'
sS'lib'
p6
(dp7
sS'unicodes'
p8
(tsS'width'
p9
I556
sS'contours'
p10
(tsS'components'
p11
(tsS'anchors'
p12
(tsss."
LayerCount: 2
UndoRedoHistory
Layer: 1
Undoes
UndoOperation
Index: 0
Type: 1
WasModified: 0
WasOrder2: 0
Width: 556
VWidth: 0
LBearingChange: 0
UnicodeEnc: 0
InstructionsLength: 0
SplineSet
193 1060 m 1
 380 1060 l 1
 380 0 l 1
 193 0 l 1
 193 1060 l 1
182 1434 m 1
 387 1434 l 1
 387 1233 l 1
 182 1233 l 1
 182 1434 l 1
EndSplineSet
EndUndoOperation
UndoOperation
Index: 1
Type: 1
WasModified: 1
WasOrder2: 0
Width: 556
VWidth: 0
LBearingChange: 0
UnicodeEnc: 0
InstructionsLength: 0
SplineSet
193 1060 m 1
 380 1060 l 1
 380 0 l 1
 193 0 l 1
 193 1060 l 1
182 1434 m 1
 387 1434 l 1
 387 1233 l 1
 182 1233 l 1
 182 1434 l 1
EndSplineSet
EndUndoOperation
UndoOperation
Index: 2
Type: 1
WasModified: 0
WasOrder2: 0
Width: 556
VWidth: 0
LBearingChange: 0
UnicodeEnc: 0
InstructionsLength: 0
SplineSet
182 1434 m 1
 387 1434 l 1
 387 1233 l 1
 182 1233 l 1
 182 1434 l 1
193 1060 m 1
 380 1060 l 1
 380 0 l 1
 193 0 l 1
 193 1060 l 1
EndSplineSet
EndUndoOperation
EndUndoes
Redoes
EndRedoes
EndUndoRedoHistory
Fore
SplineSet
193 1060 m 1
 380 1060 l 1
 380 0 l 1
 193 0 l 1
 193 1060 l 1
182 1434 m 1
 387 1434 l 1
 387 1233 l 1
 182 1233 l 1
 182 1434 l 1
EndSplineSet
EndChar

StartChar: iacute
Encoding: 237 237 94
Width: 419
VWidth: 0
Flags: HW
PickledData: "(dp1
S'com.typemytype.robofont.layerData'
p2
(dp3
S'b'
(dp4
S'name'
p5
S'iacute'
p6
sS'lib'
p7
(dp8
sS'unicodes'
p9
(tsS'width'
p10
I419
sS'contours'
p11
(tsS'components'
p12
(tsS'anchors'
p13
(tsss."
LayerCount: 2
UndoRedoHistory
Layer: 1
Undoes
UndoOperation
Index: 0
Type: 1
WasModified: 0
WasOrder2: 0
Width: 419
VWidth: 0
LBearingChange: 0
UnicodeEnc: 0
InstructionsLength: 0
SplineSet
250 1502 m 1
 515 1502 l 1
 307 1184 l 1
 146 1184 l 1
 250 1502 l 1
96 1084 m 1
 359 1084 l 1
 359 0 l 1
 96 0 l 1
 96 1084 l 1
EndSplineSet
EndUndoOperation
UndoOperation
Index: 1
Type: 1
WasModified: 1
WasOrder2: 0
Width: 419
VWidth: 0
LBearingChange: 0
UnicodeEnc: 0
InstructionsLength: 0
SplineSet
250 1502 m 1
 515 1502 l 1
 307 1184 l 1
 146 1184 l 1
 250 1502 l 1
96 1084 m 1
 359 1084 l 1
 359 0 l 1
 96 0 l 1
 96 1084 l 1
EndSplineSet
EndUndoOperation
UndoOperation
Index: 2
Type: 1
WasModified: 0
WasOrder2: 0
Width: 419
VWidth: 0
LBearingChange: 0
UnicodeEnc: 0
InstructionsLength: 0
SplineSet
96 1084 m 1
 359 1084 l 1
 359 0 l 1
 96 0 l 1
 96 1084 l 1
250 1502 m 1
 515 1502 l 1
 307 1184 l 1
 146 1184 l 1
 250 1502 l 1
EndSplineSet
EndUndoOperation
EndUndoes
Redoes
EndRedoes
EndUndoRedoHistory
Fore
SplineSet
250 1502 m 1
 515 1502 l 1
 307 1184 l 1
 146 1184 l 1
 250 1502 l 1
96 1084 m 1
 359 1084 l 1
 359 0 l 1
 96 0 l 1
 96 1084 l 1
EndSplineSet
EndChar

StartChar: icircumflex
Encoding: 238 238 95
Width: 419
VWidth: 0
Flags: HW
PickledData: "(dp1
S'com.typemytype.robofont.layerData'
p2
(dp3
S'b'
(dp4
S'name'
p5
S'icircumflex'
p6
sS'lib'
p7
(dp8
sS'unicodes'
p9
(tsS'width'
p10
I419
sS'contours'
p11
(tsS'components'
p12
(tsS'anchors'
p13
(tsss."
LayerCount: 2
UndoRedoHistory
Layer: 1
Undoes
UndoOperation
Index: 0
Type: 1
WasModified: 0
WasOrder2: 0
Width: 419
VWidth: 0
LBearingChange: 0
UnicodeEnc: 0
InstructionsLength: 0
SplineSet
113 1479 m 1
 451 1479 l 1
 611 1184 l 1
 383 1184 l 1
 282 1328 l 1
 183 1184 l 1
 -43 1184 l 1
 113 1479 l 1
96 1084 m 1
 359 1084 l 1
 359 0 l 1
 96 0 l 1
 96 1084 l 1
EndSplineSet
EndUndoOperation
UndoOperation
Index: 1
Type: 1
WasModified: 1
WasOrder2: 0
Width: 419
VWidth: 0
LBearingChange: 0
UnicodeEnc: 0
InstructionsLength: 0
SplineSet
113 1479 m 1
 451 1479 l 1
 611 1184 l 1
 383 1184 l 1
 282 1328 l 1
 183 1184 l 1
 -43 1184 l 1
 113 1479 l 1
96 1084 m 1
 359 1084 l 1
 359 0 l 1
 96 0 l 1
 96 1084 l 1
EndSplineSet
EndUndoOperation
UndoOperation
Index: 2
Type: 1
WasModified: 0
WasOrder2: 0
Width: 419
VWidth: 0
LBearingChange: 0
UnicodeEnc: 0
InstructionsLength: 0
SplineSet
96 1084 m 1
 359 1084 l 1
 359 0 l 1
 96 0 l 1
 96 1084 l 1
113 1479 m 1
 451 1479 l 1
 611 1184 l 1
 383 1184 l 1
 282 1328 l 1
 183 1184 l 1
 -43 1184 l 1
 113 1479 l 1
EndSplineSet
EndUndoOperation
EndUndoes
Redoes
EndRedoes
EndUndoRedoHistory
Fore
SplineSet
113 1479 m 1
 451 1479 l 1
 611 1184 l 1
 383 1184 l 1
 282 1328 l 1
 183 1184 l 1
 -43 1184 l 1
 113 1479 l 1
96 1084 m 1
 359 1084 l 1
 359 0 l 1
 96 0 l 1
 96 1084 l 1
EndSplineSet
EndChar

StartChar: idieresis
Encoding: 239 239 96
Width: 419
VWidth: 0
Flags: HW
PickledData: "(dp1
S'com.typemytype.robofont.layerData'
p2
(dp3
S'b'
(dp4
S'name'
p5
S'idieresis'
p6
sS'lib'
p7
(dp8
sS'unicodes'
p9
(tsS'width'
p10
I419
sS'contours'
p11
(tsS'components'
p12
(tsS'anchors'
p13
(tsss."
LayerCount: 2
UndoRedoHistory
Layer: 1
Undoes
UndoOperation
Index: 0
Type: 1
WasModified: 0
WasOrder2: 0
Width: 419
VWidth: 0
LBearingChange: 0
UnicodeEnc: 0
InstructionsLength: 0
SplineSet
397 1186 m 1
 397 1415 l 1
 664 1415 l 1
 664 1186 l 1
 397 1186 l 1
-62 1186 m 1
 -62 1415 l 1
 203 1415 l 1
 203 1186 l 1
 -62 1186 l 1
96 1084 m 1
 359 1084 l 1
 359 0 l 1
 96 0 l 1
 96 1084 l 1
EndSplineSet
EndUndoOperation
UndoOperation
Index: 1
Type: 1
WasModified: 1
WasOrder2: 0
Width: 419
VWidth: 0
LBearingChange: 0
UnicodeEnc: 0
InstructionsLength: 0
SplineSet
397 1186 m 1
 397 1415 l 1
 664 1415 l 1
 664 1186 l 1
 397 1186 l 1
-62 1186 m 1
 -62 1415 l 1
 203 1415 l 1
 203 1186 l 1
 -62 1186 l 1
96 1084 m 1
 359 1084 l 1
 359 0 l 1
 96 0 l 1
 96 1084 l 1
EndSplineSet
EndUndoOperation
UndoOperation
Index: 2
Type: 1
WasModified: 0
WasOrder2: 0
Width: 419
VWidth: 0
LBearingChange: 0
UnicodeEnc: 0
InstructionsLength: 0
SplineSet
96 1084 m 1
 359 1084 l 1
 359 0 l 1
 96 0 l 1
 96 1084 l 1
-62 1186 m 1
 -62 1415 l 1
 203 1415 l 1
 203 1186 l 1
 -62 1186 l 1
397 1186 m 1
 397 1415 l 1
 664 1415 l 1
 664 1186 l 1
 397 1186 l 1
EndSplineSet
EndUndoOperation
EndUndoes
Redoes
EndRedoes
EndUndoRedoHistory
Fore
SplineSet
397 1186 m 1
 397 1415 l 1
 664 1415 l 1
 664 1186 l 1
 397 1186 l 1
-62 1186 m 1
 -62 1415 l 1
 203 1415 l 1
 203 1186 l 1
 -62 1186 l 1
96 1084 m 1
 359 1084 l 1
 359 0 l 1
 96 0 l 1
 96 1084 l 1
EndSplineSet
EndChar

StartChar: igrave
Encoding: 236 236 97
Width: 419
VWidth: 0
Flags: HW
PickledData: "(dp1
S'com.typemytype.robofont.layerData'
p2
(dp3
S'b'
(dp4
S'name'
p5
S'igrave'
p6
sS'lib'
p7
(dp8
sS'unicodes'
p9
(tsS'width'
p10
I419
sS'contours'
p11
(tsS'components'
p12
(tsS'anchors'
p13
(tsss."
LayerCount: 2
UndoRedoHistory
Layer: 1
Undoes
UndoOperation
Index: 0
Type: 1
WasModified: 0
WasOrder2: 0
Width: 419
VWidth: 0
LBearingChange: 0
UnicodeEnc: 0
InstructionsLength: 0
SplineSet
18 1474 m 1
 284 1474 l 1
 388 1155 l 1
 226 1155 l 1
 18 1474 l 1
96 1084 m 1
 359 1084 l 1
 359 0 l 1
 96 0 l 1
 96 1084 l 1
EndSplineSet
EndUndoOperation
UndoOperation
Index: 1
Type: 1
WasModified: 1
WasOrder2: 0
Width: 419
VWidth: 0
LBearingChange: 0
UnicodeEnc: 0
InstructionsLength: 0
SplineSet
18 1474 m 1
 284 1474 l 1
 388 1155 l 1
 226 1155 l 1
 18 1474 l 1
96 1084 m 1
 359 1084 l 1
 359 0 l 1
 96 0 l 1
 96 1084 l 1
EndSplineSet
EndUndoOperation
UndoOperation
Index: 2
Type: 1
WasModified: 0
WasOrder2: 0
Width: 419
VWidth: 0
LBearingChange: 0
UnicodeEnc: 0
InstructionsLength: 0
SplineSet
96 1084 m 1
 359 1084 l 1
 359 0 l 1
 96 0 l 1
 96 1084 l 1
18 1474 m 1
 284 1474 l 1
 388 1155 l 1
 226 1155 l 1
 18 1474 l 1
EndSplineSet
EndUndoOperation
EndUndoes
Redoes
EndRedoes
EndUndoRedoHistory
Fore
SplineSet
18 1474 m 1
 284 1474 l 1
 388 1155 l 1
 226 1155 l 1
 18 1474 l 1
96 1084 m 1
 359 1084 l 1
 359 0 l 1
 96 0 l 1
 96 1084 l 1
EndSplineSet
EndChar

StartChar: j
Encoding: 106 106 98
Width: 596
VWidth: 0
Flags: HW
PickledData: "(dp1
S'com.typemytype.robofont.layerData'
p2
(dp3
S'b'
(dp4
S'name'
p5
S'j'
sS'lib'
p6
(dp7
sS'unicodes'
p8
(tsS'width'
p9
I596
sS'contours'
p10
(tsS'components'
p11
(tsS'anchors'
p12
(tsss."
LayerCount: 2
UndoRedoHistory
Layer: 1
Undoes
UndoOperation
Index: 0
Type: 1
WasModified: 0
WasOrder2: 0
Width: 596
VWidth: 0
LBearingChange: 0
UnicodeEnc: 0
InstructionsLength: 0
SplineSet
238 1061 m 1
 422 1061 l 1
 422 9 l 2
 422 -153 316 -251 140 -251 c 2
 34 -251 l 1
 34 -117 l 1
 104 -117 l 2
 237 -117 238 -14 238 26 c 2
 238 1061 l 1
234 1434 m 1
 421 1434 l 1
 421 1255 l 1
 234 1255 l 1
 234 1434 l 1
EndSplineSet
EndUndoOperation
UndoOperation
Index: 1
Type: 1
WasModified: 1
WasOrder2: 0
Width: 596
VWidth: 0
LBearingChange: 0
UnicodeEnc: 0
InstructionsLength: 0
SplineSet
238 1061 m 1
 422 1061 l 1
 422 9 l 2
 422 -153 316 -251 140 -251 c 2
 34 -251 l 1
 34 -117 l 1
 104 -117 l 2
 237 -117 238 -14 238 26 c 2
 238 1061 l 1
234 1434 m 1
 421 1434 l 1
 421 1255 l 1
 234 1255 l 1
 234 1434 l 1
EndSplineSet
EndUndoOperation
UndoOperation
Index: 2
Type: 1
WasModified: 0
WasOrder2: 0
Width: 596
VWidth: 0
LBearingChange: 0
UnicodeEnc: 0
InstructionsLength: 0
SplineSet
234 1434 m 1
 421 1434 l 1
 421 1255 l 1
 234 1255 l 1
 234 1434 l 1
238 1061 m 1
 422 1061 l 1
 422 9 l 2
 422 -153 316 -251 140 -251 c 2
 34 -251 l 1
 34 -117 l 1
 104 -117 l 2
 237 -117 238 -14 238 26 c 2
 238 1061 l 1
EndSplineSet
EndUndoOperation
EndUndoes
Redoes
EndRedoes
EndUndoRedoHistory
Fore
SplineSet
238 1061 m 1
 422 1061 l 1
 422 9 l 2
 422 -153 316 -251 140 -251 c 2
 34 -251 l 1
 34 -117 l 1
 104 -117 l 2
 237 -117 238 -14 238 26 c 2
 238 1061 l 1
234 1434 m 1
 421 1434 l 1
 421 1255 l 1
 234 1255 l 1
 234 1434 l 1
EndSplineSet
EndChar

